<svg width="22" height="22" viewBox="0 0 22 22" fill="none" xmlns="http://www.w3.org/2000/svg">
<path d="M15.5377 16.225C15.3636 16.225 15.1894 16.1608 15.0519 16.0233C14.7861 15.7575 14.7861 15.3175 15.0519 15.0517C16.1336 13.97 16.7294 12.5308 16.7294 11C16.7294 9.46917 16.1336 8.03 15.0519 6.94834C14.7861 6.6825 14.7861 6.2425 15.0519 5.97667C15.3177 5.71083 15.7577 5.71083 16.0236 5.97667C17.3619 7.315 18.1044 9.1025 18.1044 11C18.1044 12.8975 17.3619 14.685 16.0236 16.0233C15.8861 16.1608 15.7119 16.225 15.5377 16.225Z" fill="#3E6FCF"/>
<path d="M6.46265 16.225C6.28849 16.225 6.11432 16.1608 5.97682 16.0233C4.63849 14.685 3.896 12.8975 3.896 11C3.896 9.1025 4.63849 7.315 5.97682 5.97667C6.24265 5.71083 6.68265 5.71083 6.94848 5.97667C7.21432 6.2425 7.21432 6.6825 6.94848 6.94834C5.86682 8.03 5.271 9.46917 5.271 11C5.271 12.5308 5.86682 13.97 6.94848 15.0517C7.21432 15.3175 7.21432 15.7575 6.94848 16.0233C6.81098 16.1608 6.63682 16.225 6.46265 16.225Z" fill="#3E6FCF"/>
<path d="M11.8983 14.685H10.285C9.12081 14.685 8.16748 13.7042 8.16748 12.5033C8.16748 12.1275 8.47915 11.8158 8.85498 11.8158C9.23081 11.8158 9.54248 12.1275 9.54248 12.5033C9.54248 12.9525 9.87248 13.31 10.285 13.31H11.8983C12.2008 13.31 12.4575 13.035 12.4575 12.6958C12.4575 12.265 12.3566 12.21 12.0633 12.1092L9.48748 11.2108C8.60748 10.8992 8.17666 10.285 8.17666 9.3225C8.17666 8.2225 9.03831 7.33333 10.1108 7.33333H11.7242C12.8883 7.33333 13.8416 8.31416 13.8416 9.515C13.8416 9.89083 13.53 10.2025 13.1541 10.2025C12.7783 10.2025 12.4666 9.89083 12.4666 9.515C12.4666 9.06583 12.1367 8.70833 11.7242 8.70833H10.1108C9.80831 8.70833 9.55166 8.98333 9.55166 9.3225C9.55166 9.75333 9.65248 9.80833 9.94582 9.90916L12.5216 10.8075C13.4016 11.1192 13.8325 11.7333 13.8325 12.6958C13.8233 13.7867 12.9617 14.685 11.8983 14.685Z" fill="#3E6FCF"/>
<path d="M11 15.5375C10.6242 15.5375 10.3125 15.2258 10.3125 14.85V7.15C10.3125 6.77417 10.6242 6.4625 11 6.4625C11.3758 6.4625 11.6875 6.77417 11.6875 7.15V14.85C11.6875 15.2258 11.3758 15.5375 11 15.5375Z" fill="#3E6FCF"/>
<path d="M11.0002 20.8542C5.56433 20.8542 1.146 16.4358 1.146 11C1.146 5.56417 5.56433 1.14583 11.0002 1.14583C16.436 1.14583 20.8543 5.56417 20.8543 11C20.8543 16.4358 16.436 20.8542 11.0002 20.8542ZM11.0002 2.52083C6.32516 2.52083 2.521 6.325 2.521 11C2.521 15.675 6.32516 19.4792 11.0002 19.4792C15.6752 19.4792 19.4793 15.675 19.4793 11C19.4793 6.325 15.6752 2.52083 11.0002 2.52083Z" fill="#3E6FCF"/>
</svg>
