<svg width="80" height="22" viewBox="0 0 80 22" fill="none" xmlns="http://www.w3.org/2000/svg">
<path d="M1.00184 19.2899L5.66771 17.6204C6.09636 17.467 6.36755 17.0437 6.32776 16.5902L5.85056 11.1524C5.7599 10.1192 7.10706 9.64685 7.68149 10.5104L11.372 16.0584C11.674 16.5124 12.2836 16.6413 12.7434 16.3484L19.7215 11.9044C20.1763 11.6148 20.7787 11.7373 21.0842 12.1816L25.4556 18.538C25.9728 19.2902 27.1446 19.0143 27.2719 18.1103L29.5602 1.8636C29.699 0.878125 31.0347 0.676805 31.4578 1.57758L37.8412 15.1672C38.1996 15.9302 39.283 15.9357 39.6491 15.1764L44.0507 6.04933C44.4453 5.23104 45.6381 5.31906 45.9083 6.18641L50.1015 19.6449C50.3616 20.48 51.4923 20.6033 51.9264 19.8441L57.1935 10.6327C57.5072 10.084 58.2447 9.95972 58.7209 10.3753L62.729 13.873L67.9448 19.3091C68.4017 19.7853 69.1862 19.6969 69.5257 19.131L78.999 3.34182" stroke="#FA5F5F" stroke-width="2" stroke-linecap="round"/>
</svg>
