<svg width="24" height="24" viewBox="0 0 24 24" fill="none" xmlns="http://www.w3.org/2000/svg">
<path fill-rule="evenodd" clip-rule="evenodd" d="M4.54 2H7.92C9.33 2 10.46 3.15 10.46 4.561V7.97C10.46 9.39 9.33 10.53 7.92 10.53H4.54C3.14 10.53 2 9.39 2 7.97V4.561C2 3.15 3.14 2 4.54 2ZM16.0801 13.4697H19.4601C20.8601 13.4697 22.0001 14.6107 22.0001 16.0307V19.4397C22.0001 20.8497 20.8601 21.9997 19.4601 21.9997H16.0801C14.6701 21.9997 13.5401 20.8497 13.5401 19.4397V16.0307C13.5401 14.6107 14.6701 13.4697 16.0801 13.4697Z" fill="#F08A31"/>
<path fill-rule="evenodd" clip-rule="evenodd" d="M14 6.5C14 3.87479 14.0281 3 17.5 3C20.9719 3 21 3.87479 21 6.5C21 9.12521 21.0111 10 17.5 10C13.9889 10 14 9.12521 14 6.5Z" stroke="#F08A31" stroke-width="1.5" stroke-linecap="round" stroke-linejoin="round"/>
<path fill-rule="evenodd" clip-rule="evenodd" d="M3 17.5C3 14.8748 3.02811 14 6.5 14C9.97189 14 10 14.8748 10 17.5C10 20.1252 10.0111 21 6.5 21C2.98893 21 3 20.1252 3 17.5Z" stroke="#F08A31" stroke-width="1.5" stroke-linecap="round" stroke-linejoin="round"/>
</svg>
