<svg width="22" height="22" viewBox="0 0 22 22" fill="none" xmlns="http://www.w3.org/2000/svg">
<path d="M11.0003 11.6875C8.09449 11.6875 5.72949 9.3225 5.72949 6.41667C5.72949 3.51084 8.09449 1.14584 11.0003 1.14584C13.9062 1.14584 16.2712 3.51084 16.2712 6.41667C16.2712 9.3225 13.9062 11.6875 11.0003 11.6875ZM11.0003 2.52084C8.85533 2.52084 7.10449 4.27167 7.10449 6.41667C7.10449 8.56167 8.85533 10.3125 11.0003 10.3125C13.1453 10.3125 14.8962 8.56167 14.8962 6.41667C14.8962 4.27167 13.1453 2.52084 11.0003 2.52084Z" fill="white"/>
<path d="M3.12598 20.8542C2.75014 20.8542 2.43848 20.5425 2.43848 20.1667C2.43848 16.2525 6.27931 13.0625 11.0001 13.0625C11.926 13.0625 12.8335 13.1817 13.7135 13.4292C14.0801 13.53 14.291 13.9058 14.1901 14.2725C14.0893 14.6392 13.7135 14.85 13.3468 14.7492C12.5951 14.5384 11.8068 14.4375 11.0001 14.4375C7.04014 14.4375 3.81348 17.0042 3.81348 20.1667C3.81348 20.5425 3.50181 20.8542 3.12598 20.8542Z" fill="white"/>
<path d="M16.4997 20.8542C15.418 20.8542 14.3913 20.4509 13.5938 19.7267C13.273 19.4517 12.9888 19.1125 12.7688 18.7367C12.3655 18.0767 12.1455 17.2975 12.1455 16.5C12.1455 15.3542 12.5855 14.2817 13.3738 13.4658C14.1988 12.6133 15.308 12.1458 16.4997 12.1458C17.7463 12.1458 18.9288 12.6775 19.7355 13.5942C20.4505 14.3917 20.8538 15.4183 20.8538 16.5C20.8538 16.8483 20.808 17.1967 20.7163 17.5267C20.6247 17.9392 20.4505 18.37 20.2122 18.7458C19.4513 20.0475 18.0213 20.8542 16.4997 20.8542ZM16.4997 13.5208C15.6838 13.5208 14.9322 13.8417 14.3639 14.4192C13.823 14.9783 13.5205 15.7117 13.5205 16.5C13.5205 17.0408 13.6672 17.5725 13.9513 18.0308C14.098 18.2875 14.2905 18.5166 14.5105 18.7091C15.0605 19.2133 15.7663 19.4883 16.4997 19.4883C17.5355 19.4883 18.5163 18.9383 19.048 18.0492C19.2038 17.7925 19.323 17.4992 19.3872 17.215C19.4513 16.9767 19.4788 16.7475 19.4788 16.5092C19.4788 15.7758 19.2038 15.07 18.7088 14.52C18.1588 13.8784 17.3522 13.5208 16.4997 13.5208Z" fill="white"/>
<path d="M17.8746 17.1692H15.1338C14.758 17.1692 14.4463 16.8575 14.4463 16.4817C14.4463 16.1058 14.758 15.7942 15.1338 15.7942H17.8746C18.2504 15.7942 18.5621 16.1058 18.5621 16.4817C18.5621 16.8575 18.2504 17.1692 17.8746 17.1692Z" fill="white"/>
<path d="M16.5 18.5717C16.1242 18.5717 15.8125 18.26 15.8125 17.8842V15.1433C15.8125 14.7675 16.1242 14.4558 16.5 14.4558C16.8758 14.4558 17.1875 14.7675 17.1875 15.1433V17.8842C17.1875 18.2692 16.8758 18.5717 16.5 18.5717Z" fill="white"/>
</svg>
