<svg width="18" height="18" viewBox="0 0 18 18" fill="none" xmlns="http://www.w3.org/2000/svg">
<g opacity="0.6">
<path fill-rule="evenodd" clip-rule="evenodd" d="M6.51282 2.25363C8.14311 1.33303 10.1326 1.37397 11.7242 2.36088C13.2998 3.36729 14.2431 5.14043 14.2108 7.03493C14.1506 8.91667 13.0941 10.6732 11.7838 12.025C11.0275 12.8088 10.1837 13.4997 9.26975 14.0836C9.17571 14.1364 9.07298 14.1713 8.96663 14.1865C8.86453 14.1809 8.76542 14.1495 8.67823 14.0951C7.30505 13.1839 6.10474 12.0276 5.13506 10.6818C4.32362 9.55844 3.87139 8.20772 3.83978 6.81309C3.86209 4.91483 4.88253 3.17424 6.51282 2.25363ZM7.38199 7.64243C7.64601 8.31706 8.28332 8.76284 8.99636 8.77162C9.46344 8.78073 9.91477 8.59915 10.2498 8.26735C10.5848 7.93555 10.7757 7.48109 10.7799 7.00523C10.7914 6.27895 10.3718 5.61748 9.71724 5.32966C9.06264 5.04185 8.30209 5.18447 7.79071 5.69094C7.27932 6.1974 7.11796 6.9678 7.38199 7.64243Z" fill="#171717"/>
<ellipse opacity="0.4" cx="8.91777" cy="15.6679" rx="3.70466" ry="0.740932" transform="rotate(0.705552 8.91777 15.6679)" fill="#171717"/>
</g>
</svg>
