<svg width="36" height="36" viewBox="0 0 36 36" fill="none" xmlns="http://www.w3.org/2000/svg">
<path d="M30.7279 30.7279C37.7573 23.6985 37.7573 12.3015 30.7279 5.27212C23.6985 -1.75729 12.3015 -1.75729 5.27213 5.27212C-1.75729 12.3015 -1.75729 23.6985 5.27212 30.7279C12.3015 37.7573 23.6985 37.7573 30.7279 30.7279Z" fill="#233973"/>
<path d="M16.2685 26.027V15.8275C16.2704 15.8039 16.2704 15.7801 16.2685 15.7564C16.255 15.3094 16.0758 14.8833 15.7657 14.561C15.4557 14.2387 15.0368 14.0432 14.5906 14.0124C14.1444 13.9816 13.7027 14.1178 13.3513 14.3945C12.9999 14.6712 12.7639 15.0686 12.6892 15.5096C12.6696 15.6144 12.6596 15.7208 12.6593 15.8275V26.027C12.6593 26.5061 12.8496 26.9656 13.1884 27.3044C13.5272 27.6432 13.9867 27.8335 14.4658 27.8335C14.9449 27.8335 15.4044 27.6432 15.7432 27.3044C16.082 26.9656 16.2723 26.5061 16.2723 26.027H16.2685Z" fill="white"/>
<path d="M7.41796 20.401L13.1255 14.5215C13.3461 14.3177 13.6124 14.1701 13.9021 14.091C14.1918 14.0119 14.4963 14.0038 14.7897 14.0673C15.0832 14.1307 15.3571 14.2639 15.5883 14.4556C15.8194 14.6473 16.001 14.8918 16.1176 15.1685C16.136 15.2122 16.151 15.2572 16.1625 15.3032C16.2333 15.5473 16.2546 15.8031 16.2252 16.0555C16.1957 16.308 16.1161 16.552 15.991 16.7733C15.8659 16.9945 15.6979 17.1886 15.4968 17.344C15.2956 17.4994 15.0655 17.613 14.8198 17.6782L7.41796 20.401Z" fill="white"/>
<path d="M29.3095 21.4529L23.6019 27.3325C23.3811 27.5362 23.1145 27.6836 22.8246 27.7624C22.5348 27.8412 22.2302 27.849 21.9366 27.7852C21.6431 27.7213 21.3693 27.5877 21.1383 27.3957C20.9074 27.2036 20.7261 26.9587 20.6098 26.6817L20.5649 26.5508C20.4923 26.3057 20.4694 26.0486 20.4977 25.7945C20.526 25.5405 20.6048 25.2947 20.7296 25.0716C20.8544 24.8485 21.0226 24.6526 21.2243 24.4956C21.426 24.3385 21.657 24.2234 21.9039 24.1571L29.3095 21.4529Z" fill="white"/>
<path d="M21.4729 21.4529L15.7654 27.3325C15.5445 27.5362 15.2779 27.6836 14.988 27.7624C14.6982 27.8412 14.3936 27.849 14.1001 27.7852C13.8065 27.7213 13.5327 27.5877 13.3017 27.3957C13.0708 27.2036 12.8895 26.9587 12.7732 26.6817L12.7283 26.5508C12.6557 26.3057 12.6328 26.0486 12.6611 25.7945C12.6894 25.5405 12.7682 25.2947 12.893 25.0716C13.0178 24.8485 13.186 24.6526 13.3877 24.4956C13.5894 24.3385 13.8204 24.2234 14.0673 24.1571L21.4729 21.4529Z" fill="white"/>
<path d="M20.4897 15.8266V26.0261C20.4879 26.0497 20.4879 26.0735 20.4897 26.0971C20.5179 26.5625 20.7251 26.999 21.0678 27.3152C21.4105 27.6314 21.8622 27.8028 22.3284 27.7937C22.7946 27.7845 23.2392 27.5954 23.5692 27.266C23.8992 26.9365 24.089 26.4922 24.0989 26.0261V15.8266C24.0979 15.3478 23.9073 14.8888 23.5687 14.5503C23.2302 14.2117 22.7712 14.021 22.2924 14.0201C21.8139 14.022 21.3556 14.213 21.0172 14.5513C20.6788 14.8897 20.4879 15.3481 20.4859 15.8266H20.4897Z" fill="white"/>
<path d="M22.2971 12.3624C23.5221 12.3624 24.5151 11.3694 24.5151 10.1445C24.5151 8.91959 23.5221 7.92658 22.2971 7.92658C21.0722 7.92658 20.0792 8.91959 20.0792 10.1445C20.0792 11.3694 21.0722 12.3624 22.2971 12.3624Z" fill="#EE7D19"/>
<path d="M14.4596 12.3624C15.6845 12.3624 16.6775 11.3694 16.6775 10.1445C16.6775 8.91959 15.6845 7.92658 14.4596 7.92658C13.2346 7.92658 12.2416 8.91959 12.2416 10.1445C12.2416 11.3694 13.2346 12.3624 14.4596 12.3624Z" fill="#EE7D19"/>
</svg>
