<svg width="22" height="22" viewBox="0 0 22 22" fill="none" xmlns="http://www.w3.org/2000/svg">
<path d="M13.7497 20.8542H8.24967C3.27217 20.8542 1.14551 18.7275 1.14551 13.75V8.24999C1.14551 3.2725 3.27217 1.14583 8.24967 1.14583H13.7497C18.7272 1.14583 20.8538 3.2725 20.8538 8.24999V13.75C20.8538 18.7275 18.7272 20.8542 13.7497 20.8542ZM8.24967 2.52083C4.02384 2.52083 2.52051 4.02416 2.52051 8.24999V13.75C2.52051 17.9758 4.02384 19.4792 8.24967 19.4792H13.7497C17.9755 19.4792 19.4788 17.9758 19.4788 13.75V8.24999C19.4788 4.02416 17.9755 2.52083 13.7497 2.52083H8.24967Z" fill="#9A9A9A"/>
<path d="M19.6896 7.205H2.30957C1.93374 7.205 1.62207 6.89334 1.62207 6.5175C1.62207 6.14167 1.92457 5.83 2.30957 5.83H19.6896C20.0654 5.83 20.3771 6.14167 20.3771 6.5175C20.3771 6.89334 20.0746 7.205 19.6896 7.205Z" fill="#9A9A9A"/>
<path d="M7.80957 7.07667C7.43374 7.07667 7.12207 6.76501 7.12207 6.38917V1.93417C7.12207 1.55834 7.43374 1.24667 7.80957 1.24667C8.1854 1.24667 8.49707 1.55834 8.49707 1.93417V6.38917C8.49707 6.76501 8.1854 7.07667 7.80957 7.07667Z" fill="#9A9A9A"/>
<path d="M14.1904 6.66417C13.8146 6.66417 13.5029 6.35251 13.5029 5.97667V1.93417C13.5029 1.55834 13.8146 1.24667 14.1904 1.24667C14.5663 1.24667 14.8779 1.55834 14.8779 1.93417V5.97667C14.8779 6.36167 14.5754 6.66417 14.1904 6.66417Z" fill="#9A9A9A"/>
<path d="M10.1658 16.61C9.83583 16.61 9.52417 16.5275 9.24 16.3717C8.61667 16.005 8.25 15.2717 8.25 14.3458V12.1458C8.25 11.22 8.61667 10.4775 9.24917 10.1108C9.88167 9.74416 10.7067 9.79916 11.5042 10.2667L13.4108 11.3667C14.2083 11.825 14.6758 12.5125 14.6758 13.2458C14.6758 13.9792 14.2083 14.6667 13.4017 15.125L11.495 16.225C11.055 16.4817 10.5967 16.61 10.1658 16.61ZM10.175 11.2475C10.0833 11.2475 10.0008 11.2658 9.93667 11.3025C9.74417 11.4125 9.625 11.7242 9.625 12.1458V14.3458C9.625 14.7583 9.74417 15.07 9.93667 15.1892C10.1292 15.2992 10.4592 15.2442 10.8167 15.0333L12.7233 13.9333C13.0808 13.7225 13.3008 13.4658 13.3008 13.2458C13.3008 13.0258 13.09 12.7692 12.7233 12.5583L10.8167 11.4583C10.5783 11.3208 10.3492 11.2475 10.175 11.2475Z" fill="#9A9A9A"/>
</svg>
