<svg width="22" height="22" viewBox="0 0 22 22" fill="none" xmlns="http://www.w3.org/2000/svg">
<path d="M12.2835 15.9683H9.98264C8.47931 15.9683 7.26014 14.7033 7.26014 13.145C7.26014 12.7692 7.57181 12.4575 7.94764 12.4575C8.32348 12.4575 8.63514 12.7692 8.63514 13.145C8.63514 13.9425 9.24014 14.5933 9.98264 14.5933H12.2835C12.8793 14.5933 13.3743 14.0617 13.3743 13.42C13.3743 12.6225 13.0901 12.4667 12.6226 12.3017L8.92848 11C8.21348 10.7525 7.25098 10.2208 7.25098 8.57999C7.25098 7.16833 8.36014 6.03166 9.71681 6.03166H12.0176C13.521 6.03166 14.7401 7.29666 14.7401 8.855C14.7401 9.23083 14.4285 9.5425 14.0526 9.5425C13.6768 9.5425 13.3651 9.23083 13.3651 8.855C13.3651 8.0575 12.7601 7.40666 12.0176 7.40666H9.71681C9.12098 7.40666 8.62598 7.93833 8.62598 8.57999C8.62598 9.3775 8.91014 9.53333 9.37764 9.69833L13.0718 11C13.7868 11.2475 14.7493 11.7792 14.7493 13.42C14.7401 14.8225 13.6401 15.9683 12.2835 15.9683Z" fill="black"/>
<path d="M11 17.1875C10.6242 17.1875 10.3125 16.8758 10.3125 16.5V5.5C10.3125 5.12417 10.6242 4.8125 11 4.8125C11.3758 4.8125 11.6875 5.12417 11.6875 5.5V16.5C11.6875 16.8758 11.3758 17.1875 11 17.1875Z" fill="black"/>
<path d="M10.9997 20.8542C5.56384 20.8542 1.14551 16.4358 1.14551 11C1.14551 5.56416 5.56384 1.14583 10.9997 1.14583C16.4355 1.14583 20.8538 5.56416 20.8538 11C20.8538 16.4358 16.4355 20.8542 10.9997 20.8542ZM10.9997 2.52083C6.32467 2.52083 2.52051 6.325 2.52051 11C2.52051 15.675 6.32467 19.4792 10.9997 19.4792C15.6747 19.4792 19.4788 15.675 19.4788 11C19.4788 6.325 15.6747 2.52083 10.9997 2.52083Z" fill="black"/>
</svg>
