<svg width="24" height="22" viewBox="0 0 24 22" fill="none" xmlns="http://www.w3.org/2000/svg">
<path fill-rule="evenodd" clip-rule="evenodd" d="M20.2044 9.07895H2.77819C2.37343 9.07895 2.04492 8.77095 2.04492 8.39145C2.04492 8.01195 2.37343 7.70395 2.77819 7.70395H20.2044C20.6092 7.70395 20.9377 8.01195 20.9377 8.39145C20.9377 8.77095 20.6092 9.07895 20.2044 9.07895Z" fill="black"/>
<path fill-rule="evenodd" clip-rule="evenodd" d="M15.8394 12.6588C15.4346 12.6588 15.1022 12.3508 15.1022 11.9713C15.1022 11.5918 15.4258 11.2838 15.8306 11.2838H15.8394C16.2441 11.2838 16.5726 11.5918 16.5726 11.9713C16.5726 12.3508 16.2441 12.6588 15.8394 12.6588Z" fill="black"/>
<path fill-rule="evenodd" clip-rule="evenodd" d="M11.5 12.6588C11.0953 12.6588 10.7629 12.3508 10.7629 11.9713C10.7629 11.5918 11.0865 11.2838 11.4912 11.2838H11.5C11.9048 11.2838 12.2333 11.5918 12.2333 11.9713C12.2333 12.3508 11.9048 12.6588 11.5 12.6588Z" fill="black"/>
<path fill-rule="evenodd" clip-rule="evenodd" d="M7.15187 12.6588C6.74711 12.6588 6.41371 12.3508 6.41371 11.9713C6.41371 11.5918 6.73831 11.2838 7.14307 11.2838H7.15187C7.55663 11.2838 7.88513 11.5918 7.88513 11.9713C7.88513 12.3508 7.55663 12.6588 7.15187 12.6588Z" fill="black"/>
<path fill-rule="evenodd" clip-rule="evenodd" d="M15.8394 16.2216C15.4346 16.2216 15.1022 15.9136 15.1022 15.5341C15.1022 15.1546 15.4258 14.8466 15.8306 14.8466H15.8394C16.2441 14.8466 16.5726 15.1546 16.5726 15.5341C16.5726 15.9136 16.2441 16.2216 15.8394 16.2216Z" fill="black"/>
<path fill-rule="evenodd" clip-rule="evenodd" d="M11.5 16.2216C11.0953 16.2216 10.7629 15.9136 10.7629 15.5341C10.7629 15.1546 11.0865 14.8466 11.4912 14.8466H11.5C11.9048 14.8466 12.2333 15.1546 12.2333 15.5341C12.2333 15.9136 11.9048 16.2216 11.5 16.2216Z" fill="black"/>
<path fill-rule="evenodd" clip-rule="evenodd" d="M7.15187 16.2216C6.74711 16.2216 6.41371 15.9136 6.41371 15.5341C6.41371 15.1546 6.73831 14.8466 7.14307 14.8466H7.15187C7.55663 14.8466 7.88513 15.1546 7.88513 15.5341C7.88513 15.9136 7.55663 16.2216 7.15187 16.2216Z" fill="black"/>
<path fill-rule="evenodd" clip-rule="evenodd" d="M15.4406 5.30838C15.0358 5.30838 14.7073 5.00038 14.7073 4.62088V1.60413C14.7073 1.22463 15.0358 0.916631 15.4406 0.916631C15.8454 0.916631 16.1739 1.22463 16.1739 1.60413V4.62088C16.1739 5.00038 15.8454 5.30838 15.4406 5.30838Z" fill="black"/>
<path fill-rule="evenodd" clip-rule="evenodd" d="M7.54182 5.30838C7.13706 5.30838 6.80856 5.00038 6.80856 4.62088V1.60413C6.80856 1.22463 7.13706 0.916631 7.54182 0.916631C7.94658 0.916631 8.27508 1.22463 8.27508 1.60413V4.62088C8.27508 5.00038 7.94658 5.30838 7.54182 5.30838Z" fill="black"/>
<mask id="mask0_498_16563" style="mask-type:luminance" maskUnits="userSpaceOnUse" x="1" y="2" width="21" height="19">
<path fill-rule="evenodd" clip-rule="evenodd" d="M1.95456 2.36414H21.0194V20.625H1.95456V2.36414Z" fill="white"/>
</mask>
<g mask="url(#mask0_498_16563)">
<path fill-rule="evenodd" clip-rule="evenodd" d="M7.35236 3.73914C4.81722 3.73914 3.42109 5.00689 3.42109 7.30863V15.6035C3.42109 17.9557 4.81722 19.25 7.35236 19.25H15.6216C18.1567 19.25 19.5529 17.9795 19.5529 15.6732V7.30863C19.5568 6.17655 19.2322 5.29655 18.5879 4.69155C17.925 4.06822 16.9034 3.73914 15.6304 3.73914H7.35236ZM15.6216 20.625H7.35236C4.02334 20.625 1.95456 18.701 1.95456 15.6035V7.30863C1.95456 4.25797 4.02334 2.36414 7.35236 2.36414H15.6304C17.3013 2.36414 18.6827 2.83347 19.6262 3.71989C20.5423 4.58247 21.0243 5.82272 21.0194 7.31047V15.6732C21.0194 18.7275 18.9506 20.625 15.6216 20.625Z" fill="black"/>
</g>
</svg>
