<svg width="13" height="13" viewBox="0 0 13 13" fill="none" xmlns="http://www.w3.org/2000/svg">
<path d="M11.1064 0H1.80651C1.32739 0 0.8679 0.191507 0.529115 0.532384C0.190329 0.87326 0 1.33558 0 1.81766V11.1822C0.00190272 11.6637 0.192844 12.125 0.531218 12.4654C0.869592 12.8059 1.32798 12.998 1.80651 12.9999H11.1064C11.5849 12.998 12.0433 12.8059 12.3817 12.4654C12.7201 12.125 12.911 11.6637 12.9129 11.1822V1.81766C12.9129 1.33558 12.7226 0.87326 12.3838 0.532384C12.045 0.191507 11.5855 0 11.1064 0ZM12.1903 8.11404L9.3866 5.29304C9.18245 5.09057 8.9073 4.97708 8.62064 4.97708C8.33399 4.97708 8.05884 5.09057 7.85469 5.29304L4.55962 8.61572C4.49087 8.68279 4.39886 8.72027 4.3031 8.72027C4.20733 8.72027 4.11533 8.68279 4.04657 8.61572L3.64192 8.20857C3.43687 8.00782 3.16206 7.89549 2.87596 7.89549C2.58986 7.89549 2.31505 8.00782 2.11 8.20857L0.715377 9.60451V1.81766C0.715377 1.52841 0.829573 1.25105 1.03284 1.04653C1.23612 0.842002 1.51181 0.727063 1.79928 0.727063H11.1064C11.3939 0.727063 11.6696 0.842002 11.8728 1.04653C12.0761 1.25105 12.1903 1.52841 12.1903 1.81766V8.11404Z" fill="white"/>
<path d="M3.60396 5.44893C3.24667 5.44893 2.8974 5.34232 2.60032 5.1426C2.30324 4.94287 2.0717 4.659 1.93497 4.32687C1.79824 3.99474 1.76246 3.62925 1.83217 3.27666C1.90187 2.92407 2.07392 2.6002 2.32657 2.346C2.57921 2.09179 2.9011 1.91867 3.25153 1.84854C3.60196 1.7784 3.96518 1.81441 4.29528 1.95198C4.62538 2.08955 4.90751 2.32253 5.10602 2.62144C5.30452 2.92035 5.41047 3.27177 5.41047 3.63127C5.41047 4.11334 5.22014 4.57567 4.88136 4.91654C4.54257 5.25742 4.08308 5.44893 3.60396 5.44893ZM3.60396 2.54068C3.38959 2.54068 3.18002 2.60465 3.00178 2.72448C2.82353 2.84432 2.6846 3.01468 2.60257 3.21396C2.52053 3.41324 2.49906 3.6325 2.54089 3.84406C2.58271 4.05561 2.68594 4.24992 2.83753 4.40244C2.98911 4.55497 3.18224 4.65884 3.3925 4.70092C3.60276 4.743 3.8207 4.72143 4.01875 4.63888C4.21681 4.55634 4.38609 4.41653 4.50519 4.23719C4.62429 4.05784 4.68786 3.84697 4.68786 3.63127C4.68786 3.34203 4.57367 3.06467 4.3704 2.86014C4.16713 2.65562 3.89143 2.54068 3.60396 2.54068Z" fill="white"/>
</svg>
