<svg width="20" height="20" viewBox="0 0 20 20" fill="none" xmlns="http://www.w3.org/2000/svg">
<path d="M4.16589 15.2083C4.00755 15.2083 3.84922 15.15 3.72422 15.025C3.48255 14.7833 3.48255 14.3833 3.72422 14.1416L15.3909 2.47495C15.6326 2.23328 16.0326 2.23328 16.2742 2.47495C16.5159 2.71662 16.5159 3.11662 16.2742 3.35828L4.60755 15.025C4.48255 15.15 4.32422 15.2083 4.16589 15.2083Z" fill="black"/>
<path d="M12.7243 15.2082H4.16602C3.82435 15.2082 3.54102 14.9249 3.54102 14.5832V6.0249C3.54102 5.68324 3.82435 5.3999 4.16602 5.3999C4.50768 5.3999 4.79102 5.68324 4.79102 6.0249V13.9582H12.7243C13.066 13.9582 13.3493 14.2416 13.3493 14.5832C13.3493 14.9249 13.066 15.2082 12.7243 15.2082Z" fill="black"/>
<path d="M17.0827 18.9583H2.91602C2.57435 18.9583 2.29102 18.6749 2.29102 18.3333C2.29102 17.9916 2.57435 17.7083 2.91602 17.7083H17.0827C17.4243 17.7083 17.7077 17.9916 17.7077 18.3333C17.7077 18.6749 17.4243 18.9583 17.0827 18.9583Z" fill="#292D32"/>
</svg>
