<svg width="16" height="16" viewBox="0 0 16 16" fill="none" xmlns="http://www.w3.org/2000/svg">
<path d="M1.33333 9.6465V5.65993C1.33333 3.81997 2.82663 2.33333 4.66659 2.33333H11.3331C13.1731 2.33333 14.6664 3.81997 14.6664 5.65993V10.3132C14.6664 12.1464 13.1731 13.6331 11.3331 13.6331H10.3331C10.1265 13.6331 9.92648 13.7331 9.79981 13.8997L8.79983 15.2264C8.35984 15.813 7.63986 15.813 7.19987 15.2264L6.19989 13.8997C6.09323 13.7531 5.85323 13.6331 5.66657 13.6331H4.66659C2.82663 13.6331 1.33333 12.1464 1.33333 10.3132V9.6465Z" fill="white"/>
<path d="M7.99999 8.99984C7.62666 8.99984 7.33333 8.69985 7.33333 8.33319C7.33333 7.96653 7.63333 7.66654 7.99999 7.66654C8.36664 7.66654 8.66664 7.96653 8.66664 8.33319C8.66664 8.69985 8.37331 8.99984 7.99999 8.99984Z" fill="#212121"/>
<path d="M10.6667 8.99984C10.2933 8.99984 10 8.69985 10 8.33319C10 7.96653 10.3 7.66654 10.6667 7.66654C11.0333 7.66654 11.3333 7.96653 11.3333 8.33319C11.3333 8.69985 11.04 8.99984 10.6667 8.99984Z" fill="#212121"/>
<path d="M5.33434 8.99984C4.96101 8.99984 4.66769 8.69985 4.66769 8.33319C4.66769 7.96653 4.96768 7.66654 5.33434 7.66654C5.701 7.66654 6.00099 7.96653 6.00099 8.33319C6.00099 8.69985 5.70766 8.99984 5.33434 8.99984Z" fill="#212121"/>
</svg>
