<svg width="18" height="18" viewBox="0 0 18 18" fill="none" xmlns="http://www.w3.org/2000/svg">
<g opacity="0.6">
<path fill-rule="evenodd" clip-rule="evenodd" d="M6.3989 2.20255C8.03753 1.25044 10.0517 1.26708 11.6749 2.24615C13.2822 3.24515 14.2591 5.02809 14.25 6.94603C14.2126 8.85138 13.1651 10.6424 11.8557 12.027C11.1 12.8297 10.2546 13.5395 9.33679 14.1419C9.24226 14.1966 9.13872 14.2332 9.03127 14.2499C8.92786 14.2455 8.82715 14.2149 8.73823 14.161C7.33699 13.2558 6.10768 12.1004 5.10944 10.7504C4.27413 9.62345 3.79957 8.26194 3.7502 6.85076C3.74911 4.92914 4.76026 3.15467 6.3989 2.20255ZM7.34579 7.64602C7.62143 8.32556 8.27205 8.76881 8.99386 8.76882C9.46674 8.77221 9.9213 8.5828 10.2563 8.24279C10.5912 7.90278 10.7788 7.44042 10.7771 6.95873C10.7796 6.22347 10.3467 5.55919 9.6806 5.27603C9.01446 4.99288 8.24645 5.14672 7.73516 5.66571C7.22387 6.18471 7.07016 6.96649 7.34579 7.64602Z" fill="#171717"/>
<ellipse opacity="0.4" cx="9.00065" cy="15.7498" rx="3.74997" ry="0.749995" fill="#171717"/>
</g>
</svg>
