<svg width="22" height="22" viewBox="0 0 22 22" fill="none" xmlns="http://www.w3.org/2000/svg">
<path d="M0 22L1.55972 16.356C0.601362 14.7003 0.0980817 12.8225 0.100543 10.9116C0.0894439 4.89004 5.00168 0 11.0388 0C13.9689 0 16.7201 1.13087 18.7917 3.19374C19.8128 4.20493 20.6221 5.40778 21.1728 6.73259C21.7235 8.05741 22.0047 9.47785 21.9999 10.9116C21.9999 16.9215 17.0877 21.8115 11.0499 21.8115C9.21207 21.8115 7.41862 21.3566 5.81451 20.4811L0 22ZM6.07109 18.5183L6.40536 18.7179C7.80842 19.5443 9.40854 19.9809 11.0388 19.982C16.0516 19.982 20.1399 15.9128 20.1399 10.922C20.1399 8.50493 19.1932 6.22109 17.4775 4.51374C16.6338 3.66908 15.6305 2.999 14.5254 2.54211C13.4204 2.08522 12.2354 1.85056 11.0388 1.85164C6.01494 1.85229 1.92794 5.92148 1.92794 10.9123C1.92794 12.6196 2.40715 14.2945 3.32052 15.736L3.53206 16.0798L2.60758 19.4282L6.07174 18.519L6.07109 18.5183Z" fill="white"/>
<path fill-rule="evenodd" clip-rule="evenodd" d="M8.3098 6.34328C8.10936 5.88833 7.88673 5.87728 7.6974 5.87728C7.53026 5.86623 7.35138 5.86623 7.16204 5.86623C6.98446 5.86623 6.68349 5.93253 6.42756 6.21004C6.17098 6.48691 5.46979 7.14139 5.46979 8.48284C5.46979 9.82493 6.44976 11.1222 6.58359 11.2996C6.71678 11.477 8.47693 14.3153 11.2621 15.4136C13.5785 16.3229 14.0466 16.1455 14.548 16.0896C15.0488 16.0343 16.1632 15.4357 16.397 14.7923C16.6196 14.1606 16.6196 13.6062 16.553 13.4951C16.4864 13.3846 16.2964 13.3176 16.0294 13.1734C15.7506 13.0408 14.4142 12.3752 14.1583 12.2862C13.9017 12.1978 13.7234 12.1536 13.5452 12.4194C13.367 12.697 12.8434 13.3066 12.6769 13.484C12.5202 13.6614 12.3537 13.6835 12.086 13.5503C11.8079 13.4177 10.9278 13.1292 9.88062 12.1978C9.06713 11.4764 8.52133 10.5788 8.35419 10.313C8.19881 10.0355 8.332 9.89123 8.47693 9.75799C8.59967 9.63645 8.75571 9.43693 8.88955 9.2816C9.02274 9.12561 9.06713 9.00408 9.16768 8.82665C9.25647 8.64922 9.21207 8.48284 9.14548 8.35025C9.07823 8.22807 8.55528 6.88597 8.3098 6.34263V6.34328Z" fill="white"/>
</svg>
