<svg width="22" height="22" viewBox="0 0 22 22" fill="none" xmlns="http://www.w3.org/2000/svg">
<path d="M16.262 20.8542H5.73866C3.45616 20.8542 1.60449 19.0025 1.60449 16.72V10.5508C1.60449 8.26835 3.45616 6.41667 5.73866 6.41667H16.262C18.5445 6.41667 20.3962 8.26835 20.3962 10.5508V11.8708C20.3962 12.2467 20.0845 12.5583 19.7087 12.5583H17.857C17.5362 12.5583 17.2428 12.6775 17.032 12.8975L17.0228 12.9067C16.7662 13.1542 16.647 13.4933 16.6745 13.8416C16.7295 14.4466 17.307 14.9325 17.967 14.9325H19.7087C20.0845 14.9325 20.3962 15.2442 20.3962 15.62V16.7108C20.3962 19.0025 18.5445 20.8542 16.262 20.8542ZM5.73866 7.79167C4.21699 7.79167 2.97949 9.02918 2.97949 10.5508V16.72C2.97949 18.2417 4.21699 19.4792 5.73866 19.4792H16.262C17.7837 19.4792 19.0212 18.2417 19.0212 16.72V16.3167H17.967C16.5828 16.3167 15.4095 15.29 15.2995 13.97C15.2262 13.2183 15.5012 12.4759 16.0512 11.935C16.5278 11.4492 17.1695 11.1833 17.857 11.1833H19.0212V10.5508C19.0212 9.02918 17.7837 7.79167 16.262 7.79167H5.73866Z" fill="black"/>
<path d="M2.29199 12.0633C1.91616 12.0633 1.60449 11.7517 1.60449 11.3758V7.18672C1.60449 5.82088 2.46616 4.58333 3.74033 4.0975L11.0187 1.3475C11.7703 1.06333 12.6045 1.16421 13.2553 1.62254C13.9153 2.08088 14.3003 2.82337 14.3003 3.62087V7.10419C14.3003 7.48003 13.9887 7.79169 13.6128 7.79169C13.237 7.79169 12.9253 7.48003 12.9253 7.10419V3.62087C12.9253 3.27254 12.7603 2.95169 12.467 2.75003C12.1737 2.54836 11.8253 2.50252 11.4953 2.63086L4.21699 5.38086C3.47449 5.66502 2.97033 6.38922 2.97033 7.18672V11.3758C2.97949 11.7608 2.66783 12.0633 2.29199 12.0633Z" fill="black"/>
<path d="M17.9663 16.3166C16.5821 16.3166 15.4088 15.2899 15.2988 13.9699C15.2254 13.2091 15.5004 12.4666 16.0504 11.9258C16.5179 11.4491 17.1596 11.1833 17.8471 11.1833H19.7538C20.6613 11.2108 21.3579 11.9258 21.3579 12.8058V14.6941C21.3579 15.5741 20.6613 16.2891 19.7813 16.3166H17.9663ZM19.7354 12.5583H17.8563C17.5354 12.5583 17.2421 12.6775 17.0313 12.8975C16.7654 13.1541 16.6371 13.5024 16.6738 13.8508C16.7288 14.4558 17.3063 14.9416 17.9663 14.9416H19.7629C19.8821 14.9416 19.9921 14.8316 19.9921 14.6941V12.8058C19.9921 12.6683 19.8821 12.5675 19.7354 12.5583Z" fill="black"/>
<path d="M12.8337 11.6875H6.41699C6.04116 11.6875 5.72949 11.3758 5.72949 11C5.72949 10.6242 6.04116 10.3125 6.41699 10.3125H12.8337C13.2095 10.3125 13.5212 10.6242 13.5212 11C13.5212 11.3758 13.2095 11.6875 12.8337 11.6875Z" fill="black"/>
</svg>
