<svg width="8" height="7" viewBox="0 0 8 7" fill="none" xmlns="http://www.w3.org/2000/svg">
<path d="M3.246 6.74155C3.20733 6.702 3.042 6.55265 2.906 6.41354C2.05067 5.59795 0.650666 3.47034 0.223333 2.35675C0.154666 2.18763 0.0093331 1.76006 -2.39031e-07 1.53161C-2.48599e-07 1.31271 0.0479997 1.10404 0.145333 0.904921C0.281333 0.656698 0.495333 0.457575 0.748 0.348466C0.923333 0.278228 1.448 0.169119 1.45733 0.169119C2.03133 0.0600108 2.964 8.24114e-07 3.99467 7.79062e-07C4.97667 7.36137e-07 5.87133 0.0600102 6.454 0.149343C6.46333 0.159572 7.11533 0.26868 7.33867 0.388018C7.74667 0.606917 8 1.03449 8 1.49206L8 1.53161C7.99 1.82962 7.73667 2.45631 7.72733 2.45631C7.29933 3.50989 5.968 5.58841 5.08333 6.42377C5.08333 6.42377 4.856 6.65904 4.714 6.76132C4.51 6.9209 4.25733 7 4.00467 7C3.72267 7 3.46 6.91067 3.246 6.74155Z" fill="black"/>
</svg>
