<svg width="27" height="27" viewBox="0 0 27 27" fill="none" xmlns="http://www.w3.org/2000/svg">
<path d="M5.02938 13.691C4.81563 13.691 4.60188 13.6123 4.43313 13.4435L3.07188 12.0822L1.71062 13.4435C1.38437 13.7698 0.844375 13.7698 0.518125 13.4435C0.191875 13.1173 0.191875 12.5773 0.518125 12.251L2.47562 10.2935C2.80187 9.96727 3.34188 9.96727 3.66813 10.2935L5.62563 12.251C5.95188 12.5773 5.95188 13.1173 5.62563 13.4435C5.46813 13.6123 5.24313 13.691 5.02938 13.691Z" fill="#292D32"/>
<path d="M23.9176 16.9537C23.7038 16.9537 23.4901 16.8749 23.3213 16.7062L21.3638 14.7487C21.0376 14.4225 21.0376 13.8825 21.3638 13.5562C21.6901 13.23 22.2301 13.23 22.5563 13.5562L23.9176 14.9175L25.2788 13.5562C25.6051 13.23 26.1451 13.23 26.4713 13.5562C26.7976 13.8825 26.7976 14.4225 26.4713 14.7487L24.5138 16.7062C24.3563 16.8637 24.1313 16.9537 23.9176 16.9537Z" fill="#292D32"/>
<path d="M23.9181 16.9538C23.4568 16.9538 23.0743 16.5713 23.0743 16.11V13.5C23.0743 8.22375 18.7768 3.92624 13.5005 3.92624C10.5868 3.92624 7.8643 5.23124 6.03055 7.51499C5.73805 7.87499 5.20929 7.93124 4.84929 7.64999C4.48929 7.35749 4.4218 6.82875 4.7143 6.46875C6.86305 3.78 10.0693 2.25 13.5005 2.25C19.7105 2.25 24.7618 7.30126 24.7618 13.5113V16.1213C24.7618 16.5713 24.3906 16.9538 23.9181 16.9538Z" fill="#292D32"/>
<path d="M13.5005 24.7609C7.29051 24.7609 2.23926 19.7097 2.23926 13.4997V10.8896C2.23926 10.4284 2.62176 10.0459 3.08301 10.0459C3.54426 10.0459 3.92676 10.4284 3.92676 10.8896V13.4997C3.92676 18.7759 8.22426 23.0734 13.5005 23.0734C16.4143 23.0734 19.1368 21.7684 20.9705 19.4847C21.263 19.1247 21.7918 19.0572 22.1518 19.3497C22.5118 19.6422 22.5793 20.1709 22.2868 20.5309C20.138 23.2197 16.9318 24.7609 13.5005 24.7609Z" fill="#292D32"/>
<path d="M15.0525 14.3438H10.125C9.66375 14.3438 9.28125 13.9612 9.28125 13.5V9.5625C9.28125 9.10125 9.66375 8.71875 10.125 8.71875H15.0525C16.5487 8.71875 17.865 10.035 17.865 11.5312C17.865 13.0837 16.5937 14.3438 15.0525 14.3438ZM10.9688 12.6562H15.0413C15.66 12.6562 16.1663 12.15 16.1663 11.5312C16.1663 11.025 15.66 10.4062 15.0413 10.4062H10.9688V12.6562Z" fill="#292D32"/>
<path d="M15.75 18.2812H10.125C9.66375 18.2812 9.28125 17.8987 9.28125 17.4375V13.5C9.28125 13.0387 9.66375 12.6562 10.125 12.6562H15.75C17.46 12.6562 18.8438 13.9162 18.8438 15.4688C18.8438 17.0212 17.46 18.2812 15.75 18.2812ZM10.9688 16.5938H15.75C16.5262 16.5938 17.1562 16.0875 17.1562 15.4688C17.1562 14.85 16.5262 14.3438 15.75 14.3438H10.9688V16.5938Z" fill="#292D32"/>
<path d="M13.2744 20.25C12.8132 20.25 12.4307 19.8675 12.4307 19.4062V17.4375C12.4307 16.9762 12.8132 16.5938 13.2744 16.5938C13.7357 16.5938 14.1182 16.9762 14.1182 17.4375V19.4062C14.1182 19.8675 13.7357 20.25 13.2744 20.25Z" fill="#292D32"/>
<path d="M13.2744 10.4062C12.8132 10.4062 12.4307 10.0238 12.4307 9.5625V7.59375C12.4307 7.1325 12.8132 6.75 13.2744 6.75C13.7357 6.75 14.1182 7.1325 14.1182 7.59375V9.5625C14.1182 10.0238 13.7357 10.4062 13.2744 10.4062Z" fill="#292D32"/>
</svg>
