<svg width="15" height="29" viewBox="0 0 15 29" fill="none" xmlns="http://www.w3.org/2000/svg">
<path d="M7.1868 23.15C6.41654 23.159 5.58737 23.122 4.69931 23.039C3.83485 22.9791 3.01681 22.8953 2.24518 22.7876C1.49689 22.6796 0.853638 22.5704 0.31542 22.46L0.414915 18.9922C1.02261 19.0551 1.70047 19.1289 2.44848 19.2135C3.21984 19.2978 3.96772 19.3708 4.69213 19.4324C5.4396 19.4703 6.04675 19.4865 6.51357 19.4811C7.21381 19.4729 7.785 19.4078 8.22712 19.2859C8.69258 19.1638 9.04052 18.9729 9.27093 18.7135C9.50106 18.4306 9.61313 18.0325 9.60712 17.519C9.60248 17.1222 9.49389 16.8199 9.28136 16.6123C9.09217 16.4044 8.71666 16.2337 8.15483 16.1003C7.61607 15.9431 6.82055 15.789 5.76827 15.6379C4.45897 15.4665 3.37045 15.2108 2.50273 14.8708C1.65834 14.5305 1.03378 14.0242 0.62906 13.3519C0.224064 12.6563 0.014602 11.7133 0.000674439 10.5229C-0.0162571 9.07575 0.285607 7.94001 0.906266 7.11569C1.52693 6.29136 2.36053 5.70967 3.40707 5.3706C4.45333 5.00819 5.59501 4.81975 6.83211 4.80528C7.64905 4.79572 8.48989 4.83257 9.35462 4.91583C10.2191 4.97575 11.0371 5.05956 11.8087 5.16725C12.5804 5.27495 13.2236 5.38414 13.7385 5.49484L13.6398 9.0327C13.0552 8.94617 12.3773 8.87239 11.6063 8.81138C10.8349 8.72702 10.0638 8.66601 9.293 8.62834C8.54553 8.5904 7.91504 8.57443 7.40153 8.58044C6.86468 8.58672 6.38686 8.65067 5.96808 8.77229C5.54903 8.87057 5.22416 9.03779 4.99348 9.27393C4.78613 9.5098 4.68519 9.86115 4.69066 10.328C4.69448 10.6548 4.79099 10.9221 4.98017 11.13C5.16936 11.3379 5.52167 11.5205 6.03709 11.6779C6.57558 11.8117 7.34749 11.9427 8.35281 12.071C9.80243 12.2641 10.9612 12.5424 11.8292 12.9057C12.6972 13.2691 13.3221 13.7987 13.7037 14.4946C14.1087 15.1902 14.3182 16.1332 14.3321 17.3236C14.357 19.4477 13.7442 20.9489 12.4939 21.8273C11.2666 22.682 9.4976 23.1229 7.1868 23.15Z" fill="black"/>
<path d="M12.2483 0.0756085L11.5263 7.33321" stroke="black" stroke-width="1.5"/>
<path d="M10.7592 20.6963L10.0372 27.9539" stroke="black" stroke-width="1.5"/>
<path d="M8.692 0.380012L7.77232 7.24837" stroke="black" stroke-width="1.5"/>
<path d="M7.20291 21.0009L6.28323 27.8693" stroke="black" stroke-width="1.5"/>
<line x1="4.14758" y1="0.686481" x2="3.04236" y2="8.26976" stroke="black" stroke-width="1.5"/>
<line x1="2.66048" y1="21.3069" x2="1.55525" y2="28.8902" stroke="black" stroke-width="1.5"/>
</svg>
