<svg width="21" height="20" viewBox="0 0 21 20" fill="none" xmlns="http://www.w3.org/2000/svg">
<path fill-rule="evenodd" clip-rule="evenodd" d="M10.4542 2.91664C6.37081 2.91664 3.04888 6.09413 3.04888 9.99997C3.04888 13.9058 6.37081 17.0833 10.4542 17.0833C14.5376 17.0833 17.8595 13.9058 17.8595 9.99997C17.8595 6.09413 14.5376 2.91664 10.4542 2.91664ZM10.4542 18.3333C5.65032 18.3333 1.74206 14.595 1.74206 9.99997C1.74206 5.40497 5.65032 1.66664 10.4542 1.66664C15.258 1.66664 19.1663 5.40497 19.1663 9.99997C19.1663 14.595 15.258 18.3333 10.4542 18.3333Z" fill="#363636"/>
<path fill-rule="evenodd" clip-rule="evenodd" d="M11.7112 13.5173C11.5448 13.5173 11.3775 13.4564 11.2503 13.3348L8.21236 10.4431C8.08952 10.3256 8.0207 10.1664 8.0207 9.99978C8.0207 9.83395 8.08952 9.67478 8.21236 9.55728L11.2503 6.66478C11.5055 6.42145 11.9185 6.42145 12.1738 6.66645C12.429 6.91145 12.4273 7.30728 12.172 7.55061L9.60021 9.99978L12.172 12.4498C12.4273 12.6931 12.429 13.0881 12.1738 13.3331C12.0466 13.4564 11.8784 13.5173 11.7112 13.5173Z" fill="#363636"/>
</svg>
