<svg width="19" height="19" viewBox="0 0 19 19" fill="none" xmlns="http://www.w3.org/2000/svg">
<path fill-rule="evenodd" clip-rule="evenodd" d="M2.60422 3.23613L2.66165 3.17611C4.18753 1.6501 5.1812 1.24562 6.24141 1.85529C6.54639 2.03066 6.8323 2.27614 7.22108 2.67101L8.41362 3.90761C9.07231 4.62636 9.22205 5.31579 9.00757 6.12318L8.97802 6.23007L8.94523 6.33635L8.7858 6.80409C8.44458 7.85303 8.58704 8.44485 9.80106 9.65855C11.0635 10.9207 11.6528 11.024 12.7827 10.6291L12.9841 10.5591L13.2276 10.4801L13.3341 10.4505C14.1923 10.2215 14.9173 10.4042 15.6861 11.1726L16.647 12.1007L16.9298 12.3789C17.2434 12.6987 17.4507 12.952 17.6038 13.2199C18.2096 14.2798 17.8047 15.2728 16.2348 16.8369L16.0855 16.9882C15.8511 17.2141 15.6321 17.3759 15.3104 17.5287C14.7704 17.7851 14.1324 17.8817 13.3911 17.7786C11.5643 17.5246 9.24745 16.0833 6.31172 13.1483C6.07275 12.9094 5.84386 12.6751 5.62485 12.4453L5.1999 11.9918C1.21794 7.6655 0.866646 5.00791 2.4985 3.34115L2.60422 3.23613ZM6.25989 3.38898C6.00197 3.13471 5.81462 2.9797 5.64944 2.88472C5.28407 2.67461 4.88959 2.76342 4.15951 3.39179L3.93011 3.59673C3.8901 3.63367 3.84917 3.67201 3.80729 3.71179L3.54424 3.968L3.52054 3.99762L3.3422 4.17678C2.91126 4.61695 2.70713 5.15417 2.88303 6.07807C3.17168 7.59413 4.4929 9.65075 7.1513 12.3085C9.92125 15.0777 12.0317 16.3907 13.5546 16.6025C14.4424 16.7259 14.8952 16.5109 15.357 16.0378L15.7092 15.6824C15.8744 15.5096 16.0155 15.353 16.1346 15.2099L16.2971 15.0051C16.7125 14.4518 16.7504 14.1199 16.5728 13.8092C16.5052 13.6909 16.4069 13.5613 16.2638 13.4029L16.0696 13.1978L15.9547 13.0828L14.7425 11.9123C14.3374 11.5387 14.0606 11.4857 13.6402 11.5979L13.5189 11.6328L13.0168 11.8032C11.56 12.2737 10.5091 12.0456 8.96147 10.4984C7.35863 8.89592 7.17065 7.82584 7.7077 6.2851L7.74215 6.18609L7.83742 5.89905L7.88425 5.71609C7.9673 5.31791 7.87248 5.04028 7.44445 4.61217C7.42682 4.59455 7.40712 4.57469 7.38569 4.55295L6.25989 3.38898Z" fill="white"/>
</svg>
