<svg width="21" height="21" viewBox="0 0 21 21" fill="none" xmlns="http://www.w3.org/2000/svg">
<path d="M13.3524 19.4687H7.64742C3.35117 19.4687 1.51367 17.6312 1.51367 13.335V13.2212C1.51367 9.33624 3.04492 7.46374 6.47492 7.13999C6.82492 7.11374 7.15742 7.37624 7.19242 7.73499C7.22742 8.09374 6.96492 8.41749 6.59742 8.45249C3.84992 8.70624 2.82617 10.0012 2.82617 13.23V13.3437C2.82617 16.905 4.08617 18.165 7.64742 18.165H13.3524C16.9137 18.165 18.1737 16.905 18.1737 13.3437V13.23C18.1737 9.98374 17.1324 8.68874 14.3324 8.45249C13.9737 8.41749 13.7024 8.10249 13.7374 7.74374C13.7724 7.38499 14.0787 7.11374 14.4462 7.14874C17.9287 7.44624 19.4862 9.32749 19.4862 13.2387V13.3525C19.4862 17.6312 17.6487 19.4687 13.3524 19.4687Z" fill="white"/>
<path d="M10.5 13.7812C10.1413 13.7812 9.84375 13.4837 9.84375 13.125V3.16748C9.84375 2.80873 10.1413 2.51123 10.5 2.51123C10.8587 2.51123 11.1562 2.80873 11.1562 3.16748V13.125C11.1562 13.4837 10.8587 13.7812 10.5 13.7812Z" fill="white"/>
<path d="M13.4311 5.77501C13.2649 5.77501 13.0986 5.71376 12.9674 5.58251L10.4999 3.11501L8.03236 5.58251C7.77861 5.83626 7.35861 5.83626 7.10486 5.58251C6.85111 5.32876 6.85111 4.90876 7.10486 4.65501L10.0361 1.72376C10.2899 1.47001 10.7099 1.47001 10.9636 1.72376L13.8949 4.65501C14.1486 4.90876 14.1486 5.32876 13.8949 5.58251C13.7724 5.71376 13.5974 5.77501 13.4311 5.77501Z" fill="white"/>
</svg>
