<svg width="10" height="20" viewBox="0 0 10 20" fill="none" xmlns="http://www.w3.org/2000/svg">
<path d="M4.67816 15.6049C4.17698 15.611 3.63748 15.5859 3.05966 15.5297C2.4972 15.489 1.96493 15.4322 1.46287 15.3593C0.975986 15.2861 0.557449 15.2121 0.207254 15.1373L0.271991 12.7871C0.667392 12.8297 1.10844 12.8797 1.59514 12.937C2.09703 12.9942 2.58365 13.0437 3.05498 13.0854C3.54133 13.1111 3.93638 13.1221 4.24012 13.1184C4.69574 13.1128 5.06738 13.0688 5.35505 12.9862C5.6579 12.9034 5.88429 12.774 6.03421 12.5982C6.18395 12.4065 6.25686 12.1367 6.25296 11.7886C6.24994 11.5197 6.17928 11.3149 6.041 11.1742C5.9179 11.0333 5.67357 10.9176 5.30801 10.8272C4.95746 10.7207 4.43985 10.6163 3.75519 10.5139C2.90328 10.3977 2.19503 10.2244 1.63044 9.99393C1.08103 9.76331 0.674662 9.4202 0.411326 8.9646C0.147812 8.49318 0.0115247 7.8541 0.00246265 7.04734C-0.00855397 6.06658 0.187856 5.29687 0.591692 4.73821C0.995528 4.17956 1.53791 3.78534 2.21885 3.55555C2.89961 3.30994 3.64245 3.18223 4.44738 3.17242C4.97893 3.16594 5.52602 3.19092 6.08866 3.24734C6.65112 3.28795 7.18339 3.34475 7.68545 3.41774C8.18752 3.49072 8.60606 3.56473 8.94106 3.63975L8.87686 6.0374C8.49647 5.97875 8.05542 5.92875 7.55371 5.88741C7.05182 5.83024 6.55011 5.78889 6.04857 5.76336C5.56223 5.73764 5.15199 5.72682 4.81787 5.73089C4.46857 5.73515 4.15767 5.77849 3.88519 5.86092C3.61253 5.92752 3.40116 6.04085 3.25106 6.20089C3.11615 6.36074 3.05047 6.59885 3.05403 6.91523C3.05652 7.13669 3.11931 7.31787 3.24241 7.45875C3.3655 7.59964 3.59473 7.72342 3.9301 7.83008C4.28047 7.92073 4.78271 8.00954 5.43683 8.09649C6.38004 8.22739 7.13402 8.41596 7.69879 8.66221C8.26356 8.90846 8.67011 9.26739 8.91844 9.73899C9.18195 10.2104 9.31824 10.8495 9.3273 11.6563C9.34347 13.0958 8.94479 14.1132 8.13125 14.7084C7.33273 15.2877 6.1817 15.5865 4.67816 15.6049Z" fill="black"/>
<path d="M8.78972 0.105237L8.02108 6.04751" stroke="black" stroke-width="1.5"/>
<path d="M8.18678 13.6143L7.90568 18.9477" stroke="black" stroke-width="1.5"/>
<path d="M5.52774 0.124431L4.49485 5.68317" stroke="black" stroke-width="1.5"/>
<line y1="-0.75" x2="6.89383" y2="-0.75" transform="matrix(-0.213499 1.01396 -1.03096 -0.104005 1.47334 0.0628352)" stroke="black" stroke-width="1.5"/>
<path d="M4.93878 13.9301L4.36329 18.948" stroke="black" stroke-width="1.5"/>
<line x1="1.66361" y1="14.3718" x2="0.768068" y2="19.8752" stroke="black" stroke-width="1.5"/>
</svg>
