<svg width="16" height="22" viewBox="0 0 16 22" fill="none" xmlns="http://www.w3.org/2000/svg">
<path d="M6.87638 15.7184L7.04063 15.5868C7.10159 15.5452 7.16774 15.5119 7.23737 15.4878L7.4341 15.4C7.61138 15.3627 7.7951 15.3703 7.96875 15.4221C8.14239 15.474 8.30051 15.5684 8.4289 15.697C8.52536 15.804 8.60288 15.9268 8.65811 16.0602C8.74059 16.2605 8.76242 16.4808 8.72085 16.6935C8.67928 16.9063 8.57617 17.1019 8.42447 17.2558C8.27277 17.4098 8.07925 17.5152 7.86821 17.5588C7.65717 17.6024 7.43802 17.5823 7.2383 17.501C7.10759 17.4373 6.98614 17.3559 6.87731 17.2592C6.77683 17.1581 6.69712 17.038 6.64274 16.9059C6.58836 16.7738 6.56038 16.6323 6.56038 16.4893C6.56038 16.3463 6.58836 16.2047 6.64274 16.0726C6.69712 15.9405 6.77683 15.8205 6.87731 15.7194L6.87638 15.7184ZM3.2795 0H12.0248C12.8946 0 13.7288 0.347678 14.3438 0.966548C14.9588 1.58542 15.3044 2.42479 15.3044 3.3V18.7C15.3044 19.5752 14.9588 20.4146 14.3438 21.0335C13.7288 21.6523 12.8946 22 12.0248 22H3.2795C2.40973 22 1.57557 21.6523 0.960545 21.0335C0.345518 20.4146 0 19.5752 0 18.7V3.3C0 2.42479 0.345518 1.58542 0.960545 0.966548C1.57557 0.347678 2.40973 0 3.2795 0ZM2.18634 18.7C2.18732 18.9911 2.30292 19.2699 2.50783 19.4754C2.71273 19.6809 2.99022 19.7963 3.2795 19.7963H12.0248C12.1684 19.7963 12.3106 19.7678 12.4432 19.7125C12.5758 19.6573 12.6963 19.5762 12.7978 19.4741C12.8993 19.3719 12.9799 19.2507 13.0348 19.1172C13.0897 18.9838 13.118 18.8407 13.118 18.6963V3.3C13.118 3.15555 13.0897 3.01251 13.0348 2.87905C12.9799 2.74559 12.8993 2.62433 12.7978 2.52218C12.6963 2.42004 12.5758 2.33901 12.4432 2.28373C12.3106 2.22845 12.1684 2.2 12.0248 2.2H3.2795C2.98958 2.2 2.71153 2.31589 2.50652 2.52218C2.30151 2.72847 2.18634 3.00826 2.18634 3.3V18.7Z" fill="#959595"/>
</svg>
