<svg width="32" height="32" viewBox="0 0 32 32" fill="none" xmlns="http://www.w3.org/2000/svg">
<path d="M18.1069 26.8933C17.3603 27.64 16.6336 27.86 16.0336 27.86C14.8603 27.86 13.2003 27.0267 11.8736 23.06L11.3003 21.3267C11.2203 21.1 10.9003 20.78 10.6736 20.7L8.94026 20.1267C4.96693 18.8067 4.13359 17.1333 4.14026 15.9667C4.13359 14.8 4.96693 13.1267 8.93359 11.8133L17.4936 8.96C19.6203 8.24667 21.3869 8.45333 22.4669 9.53333C23.5469 10.6133 23.7536 12.38 23.0469 14.5L20.1936 23.06C19.5469 25 18.8136 26.1867 18.1069 26.8933ZM6.10693 14.8933C5.74693 15.2533 5.55359 15.62 5.55359 15.9667C5.54693 16.9333 6.98693 17.9867 9.38026 18.78L11.1203 19.36C11.7669 19.58 12.4203 20.2333 12.6403 20.88L13.2136 22.6133C14.0136 25.0133 15.0603 26.4467 16.0269 26.44C16.9936 26.4467 18.0469 25.0067 18.8469 22.6067L21.7003 14.0467C22.2269 12.48 22.1336 11.2 21.4603 10.5267C20.7869 9.85333 19.5003 9.76667 17.9336 10.2933L9.38026 13.1533C7.86026 13.66 6.72693 14.2733 6.10693 14.8933Z" fill="#3E6FCF"/>
<path d="M15.7267 17.2733L12.1267 20.8733C11.8534 21.1467 11.4 21.1467 11.1267 20.8733C10.8534 20.6 10.8534 20.1467 11.1267 19.8733L14.7267 16.2733C15 16 15.4534 16 15.7267 16.2733C16 16.5467 16 17 15.7267 17.2733Z" fill="#3E6FCF"/>
</svg>
