<svg width="30" height="30" viewBox="0 0 30 30" fill="none" xmlns="http://www.w3.org/2000/svg">
<path d="M22.5871 10.6378L11.8871 5.28779C4.6996 1.68779 1.7496 4.63779 5.3496 11.8253L6.4371 14.0003C6.7496 14.6378 6.7496 15.3753 6.4371 16.0128L5.3496 18.1753C1.7496 25.3628 4.6871 28.3128 11.8871 24.7128L22.5871 19.3628C27.3871 16.9628 27.3871 13.0378 22.5871 10.6378ZM18.5496 15.9378H11.7996C11.2871 15.9378 10.8621 15.5128 10.8621 15.0003C10.8621 14.4878 11.2871 14.0628 11.7996 14.0628H18.5496C19.0621 14.0628 19.4871 14.4878 19.4871 15.0003C19.4871 15.5128 19.0621 15.9378 18.5496 15.9378Z" fill="white"/>
</svg>
