<svg width="22" height="22" viewBox="0 0 22 22" fill="none" xmlns="http://www.w3.org/2000/svg">
<path d="M14.6667 20.8541H7.33333C3.9875 20.8541 2.0625 18.9291 2.0625 15.5833V6.41658C2.0625 3.07075 3.9875 1.14575 7.33333 1.14575H14.6667C18.0125 1.14575 19.9375 3.07075 19.9375 6.41658V15.5833C19.9375 18.9291 18.0125 20.8541 14.6667 20.8541ZM7.33333 2.52075C4.71167 2.52075 3.4375 3.79492 3.4375 6.41658V15.5833C3.4375 18.2049 4.71167 19.4791 7.33333 19.4791H14.6667C17.2883 19.4791 18.5625 18.2049 18.5625 15.5833V6.41658C18.5625 3.79492 17.2883 2.52075 14.6667 2.52075H7.33333Z" fill="#292D32"/>
<path d="M16.9577 8.47917H15.1243C13.731 8.47917 12.6035 7.35167 12.6035 5.95833V4.125C12.6035 3.74917 12.9152 3.4375 13.291 3.4375C13.6668 3.4375 13.9785 3.74917 13.9785 4.125V5.95833C13.9785 6.59083 14.4918 7.10417 15.1243 7.10417H16.9577C17.3335 7.10417 17.6452 7.41583 17.6452 7.79167C17.6452 8.1675 17.3335 8.47917 16.9577 8.47917Z" fill="#292D32"/>
<path d="M11.0007 12.6042H7.33398C6.95815 12.6042 6.64648 12.2926 6.64648 11.9167C6.64648 11.5409 6.95815 11.2292 7.33398 11.2292H11.0007C11.3765 11.2292 11.6882 11.5409 11.6882 11.9167C11.6882 12.2926 11.3765 12.6042 11.0007 12.6042Z" fill="#292D32"/>
<path d="M14.6673 16.2708H7.33398C6.95815 16.2708 6.64648 15.9591 6.64648 15.5833C6.64648 15.2074 6.95815 14.8958 7.33398 14.8958H14.6673C15.0432 14.8958 15.3548 15.2074 15.3548 15.5833C15.3548 15.9591 15.0432 16.2708 14.6673 16.2708Z" fill="#292D32"/>
</svg>
