<svg width="26" height="26" viewBox="0 0 26 26" fill="none" xmlns="http://www.w3.org/2000/svg">
<path d="M10.368 20.3882C10.1622 20.3882 9.95638 20.3124 9.79388 20.1499L3.21805 13.574C2.90388 13.2599 2.90388 12.7399 3.21805 12.4257L9.79388 5.84988C10.108 5.53572 10.628 5.53572 10.9422 5.84988C11.2564 6.16405 11.2564 6.68405 10.9422 6.99822L4.94055 12.9999L10.9422 19.0015C11.2564 19.3157 11.2564 19.8357 10.9422 20.1499C10.7905 20.3124 10.5739 20.3882 10.368 20.3882Z" fill="#292D32"/>
<path d="M22.2091 13.8125H3.97656C3.5324 13.8125 3.16406 13.4442 3.16406 13C3.16406 12.5558 3.5324 12.1875 3.97656 12.1875H22.2091C22.6532 12.1875 23.0216 12.5558 23.0216 13C23.0216 13.4442 22.6532 13.8125 22.2091 13.8125Z" fill="#292D32"/>
</svg>
