<svg width="21" height="21" viewBox="0 0 21 21" fill="none" xmlns="http://www.w3.org/2000/svg">
<path d="M8.37352 16.468C8.20726 16.468 8.04102 16.4067 7.90977 16.2755L2.59852 10.9642C2.34477 10.7105 2.34477 10.2905 2.59852 10.0367L7.90977 4.72547C8.16352 4.47172 8.58352 4.47172 8.83727 4.72547C9.09102 4.97922 9.09102 5.39922 8.83727 5.65297L3.98977 10.5005L8.83727 15.348C9.09102 15.6017 9.09102 16.0217 8.83727 16.2755C8.71477 16.4067 8.53976 16.468 8.37352 16.468Z" fill="white"/>
<path d="M17.9372 11.1562H3.21094C2.85219 11.1562 2.55469 10.8587 2.55469 10.5C2.55469 10.1413 2.85219 9.84375 3.21094 9.84375H17.9372C18.2959 9.84375 18.5934 10.1413 18.5934 10.5C18.5934 10.8587 18.2959 11.1562 17.9372 11.1562Z" fill="white"/>
</svg>
