<svg width="19" height="19" viewBox="0 0 19 19" fill="none" xmlns="http://www.w3.org/2000/svg">
<path d="M17.4173 7.71879C17.0927 7.71879 16.8236 7.44962 16.8236 7.12504V5.54171C16.8236 3.49921 15.5015 2.17712 13.459 2.17712H5.54232C3.49982 2.17712 2.17773 3.49921 2.17773 5.54171V7.12504C2.17773 7.44962 1.90857 7.71879 1.58398 7.71879C1.2594 7.71879 0.990234 7.44962 0.990234 7.12504V5.54171C0.990234 2.81837 2.81898 0.989624 5.54232 0.989624H13.459C16.1823 0.989624 18.0111 2.81837 18.0111 5.54171V7.12504C18.0111 7.44962 17.7419 7.71879 17.4173 7.71879Z" fill="#292D32"/>
<path d="M13.459 18.0104H5.54232C2.81898 18.0104 0.990234 16.1817 0.990234 13.4583V11.875C0.990234 11.5504 1.2594 11.2812 1.58398 11.2812C1.90857 11.2812 2.17773 11.5504 2.17773 11.875V13.4583C2.17773 15.5008 3.49982 16.8229 5.54232 16.8229H13.459C15.5015 16.8229 16.8236 15.5008 16.8236 13.4583V11.875C16.8236 11.5504 17.0927 11.2812 17.4173 11.2812C17.7419 11.2812 18.0111 11.5504 18.0111 11.875V13.4583C18.0111 16.1817 16.1823 18.0104 13.459 18.0104Z" fill="#292D32"/>
<path d="M17.4173 10.0938H1.58398C1.2594 10.0938 0.990234 9.82458 0.990234 9.5C0.990234 9.17542 1.2594 8.90625 1.58398 8.90625H17.4173C17.7419 8.90625 18.0111 9.17542 18.0111 9.5C18.0111 9.82458 17.7419 10.0938 17.4173 10.0938Z" fill="#292D32"/>
</svg>
