<svg width="30" height="30" viewBox="0 0 30 30" fill="none" xmlns="http://www.w3.org/2000/svg">
<path d="M18.0377 23.5254C18.2752 23.5254 18.5127 23.4379 18.7002 23.2504L26.2877 15.6629C26.6502 15.3004 26.6502 14.7004 26.2877 14.3379L18.7002 6.75039C18.3377 6.38789 17.7377 6.38789 17.3752 6.75039C17.0127 7.11289 17.0127 7.71289 17.3752 8.07539L24.3002 15.0004L17.3752 21.9254C17.0127 22.2879 17.0127 22.8879 17.3752 23.2504C17.5502 23.4379 17.8002 23.5254 18.0377 23.5254Z" fill="white"/>
<path d="M4.37461 15.9375H25.4121C25.9246 15.9375 26.3496 15.5125 26.3496 15C26.3496 14.4875 25.9246 14.0625 25.4121 14.0625H4.37461C3.86211 14.0625 3.43711 14.4875 3.43711 15C3.43711 15.5125 3.86211 15.9375 4.37461 15.9375Z" fill="white"/>
</svg>
