<svg width="25" height="23" viewBox="0 0 25 23" fill="none" xmlns="http://www.w3.org/2000/svg">
<mask id="mask0_498_14619" style="mask-type:luminance" maskUnits="userSpaceOnUse" x="2" y="2" width="21" height="20">
<path fill-rule="evenodd" clip-rule="evenodd" d="M2.0293 2.8749H22.8029V21.5634H2.0293V2.8749Z" fill="white"/>
</mask>
<g mask="url(#mask0_498_14619)">
<path fill-rule="evenodd" clip-rule="evenodd" d="M3.88008 11.6179C5.30269 15.7981 10.9232 19.1782 12.4168 20.0148C13.9155 19.1695 19.5766 15.7521 20.9535 11.6217C21.8576 8.95179 21.0185 5.56983 17.6841 4.55496C16.0687 4.06525 14.1844 4.36329 12.8836 5.31396C12.6116 5.51138 12.2341 5.51521 11.9602 5.31971C10.5822 4.34125 8.78212 4.05471 7.14134 4.55496C3.81209 5.56888 2.97597 8.95083 3.88008 11.6179ZM12.4178 21.5635C12.292 21.5635 12.1672 21.5347 12.0535 21.4762C11.7359 21.3124 4.2545 17.4177 2.43108 12.0568C2.43006 12.0568 2.43006 12.0558 2.43006 12.0558C1.28547 8.68058 2.55994 4.439 6.67458 3.18646C8.60658 2.59613 10.7121 2.85583 12.4148 3.87071C14.0647 2.88554 16.2564 2.61338 18.1499 3.18646C22.2686 4.44092 23.5471 8.68154 22.4035 12.0558C20.639 17.3554 13.1027 21.3085 12.7831 21.4743C12.6695 21.5337 12.5436 21.5635 12.4178 21.5635Z" fill="#FA5F5F"/>
</g>
<path fill-rule="evenodd" clip-rule="evenodd" d="M18.4204 10.1822C18.0277 10.1822 17.6949 9.89757 17.6625 9.5219C17.5955 8.73415 17.0374 8.06907 16.2429 7.82661C15.8421 7.70395 15.6229 7.29857 15.7518 6.92195C15.8827 6.54436 16.3078 6.33928 16.7096 6.45811C18.0927 6.88074 19.0617 8.03745 19.1805 9.40499C19.2139 9.80078 18.9024 10.1477 18.4834 10.1793C18.462 10.1812 18.4417 10.1822 18.4204 10.1822Z" fill="#FA5F5F"/>
</svg>
