<svg width="22" height="20" viewBox="0 0 22 20" fill="none" xmlns="http://www.w3.org/2000/svg">
<path fill-rule="evenodd" clip-rule="evenodd" d="M20.8535 11.629H1.60352C1.22402 11.629 0.916016 11.349 0.916016 11.004C0.916016 10.659 1.22402 10.379 1.60352 10.379H20.8535C21.233 10.379 21.541 10.659 21.541 11.004C21.541 11.349 21.233 11.629 20.8535 11.629Z" fill="black"/>
<path fill-rule="evenodd" clip-rule="evenodd" d="M19.1398 8.12083C18.7603 8.12083 18.4523 7.84083 18.4523 7.49583V6.23417C18.4523 4.865 17.2258 3.75 15.7179 3.75H14.6133C14.2338 3.75 13.9258 3.47 13.9258 3.125C13.9258 2.78 14.2338 2.5 14.6133 2.5H15.7179C17.9839 2.5 19.8273 4.17583 19.8273 6.23417V7.49583C19.8273 7.84083 19.5193 8.12083 19.1398 8.12083Z" fill="black"/>
<path fill-rule="evenodd" clip-rule="evenodd" d="M3.31836 8.12083C2.93886 8.12083 2.63086 7.84083 2.63086 7.49583V6.23417C2.63086 4.17583 4.47428 2.5 6.74028 2.5H7.87328C8.25278 2.5 8.56078 2.78 8.56078 3.125C8.56078 3.47 8.25278 3.75 7.87328 3.75H6.74028C5.23236 3.75 4.00586 4.865 4.00586 6.23417V7.49583C4.00586 7.84083 3.69786 8.12083 3.31836 8.12083Z" fill="black"/>
<path fill-rule="evenodd" clip-rule="evenodd" d="M15.7179 18.1339H14.6133C14.2338 18.1339 13.9258 17.8539 13.9258 17.5089C13.9258 17.1639 14.2338 16.8839 14.6133 16.8839H15.7179C17.2258 16.8839 18.4523 15.7689 18.4523 14.3989V11.0031C18.4523 10.6581 18.7603 10.3781 19.1398 10.3781C19.5193 10.3781 19.8273 10.6581 19.8273 11.0031V14.3989C19.8273 16.4581 17.9839 18.1339 15.7179 18.1339Z" fill="black"/>
<path fill-rule="evenodd" clip-rule="evenodd" d="M7.87328 18.1339H6.74028C4.47428 18.1339 2.63086 16.4581 2.63086 14.3989V11.0031C2.63086 10.6581 2.93886 10.3781 3.31836 10.3781C3.69786 10.3781 4.00586 10.6581 4.00586 11.0031V14.3989C4.00586 15.7689 5.23236 16.8839 6.74028 16.8839H7.87328C8.25278 16.8839 8.56078 17.1639 8.56078 17.5089C8.56078 17.8539 8.25278 18.1339 7.87328 18.1339Z" fill="black"/>
</svg>
