<svg width="20" height="20" viewBox="0 0 20 20" fill="none" xmlns="http://www.w3.org/2000/svg">
<path d="M4.61666 16.2667C4.10832 16.2667 3.63332 16.0917 3.29166 15.7667C2.85832 15.3583 2.64999 14.7417 2.72499 14.075L3.03332 11.375C3.09166 10.8667 3.39999 10.1917 3.75832 9.82501L10.6 2.58334C12.3083 0.775005 14.0917 0.725005 15.9 2.43334C17.7083 4.14167 17.7583 5.92501 16.05 7.73334L9.20832 14.975C8.85832 15.35 8.20832 15.7 7.69999 15.7833L5.01666 16.2417C4.87499 16.25 4.74999 16.2667 4.61666 16.2667ZM13.275 2.42501C12.6333 2.42501 12.075 2.82501 11.5083 3.42501L4.66666 10.675C4.49999 10.85 4.30832 11.2667 4.27499 11.5083L3.96666 14.2083C3.93332 14.4833 3.99999 14.7083 4.14999 14.85C4.29999 14.9917 4.52499 15.0417 4.79999 15L7.48332 14.5417C7.72499 14.5 8.12499 14.2833 8.29166 14.1083L15.1333 6.86667C16.1667 5.76667 16.5417 4.75001 15.0333 3.33334C14.3667 2.69167 13.7917 2.42501 13.275 2.42501Z" fill="#989898"/>
<path d="M14.4497 9.12501C14.433 9.12501 14.408 9.12501 14.3914 9.12501C11.7914 8.86667 9.69971 6.89167 9.29971 4.30834C9.24971 3.96667 9.48305 3.65001 9.82471 3.59167C10.1664 3.54167 10.483 3.77501 10.5414 4.11667C10.858 6.13334 12.4914 7.68334 14.5247 7.88334C14.8664 7.91667 15.1164 8.22501 15.083 8.56667C15.0414 8.88334 14.7664 9.12501 14.4497 9.12501Z" fill="#989898"/>
</svg>
