<svg width="22" height="22" viewBox="0 0 22 22" fill="none" xmlns="http://www.w3.org/2000/svg">
<path fill-rule="evenodd" clip-rule="evenodd" d="M6.61499 14.6693C6.46832 14.6693 6.32074 14.6226 6.19607 14.5272C5.89541 14.2953 5.83857 13.8636 6.07049 13.5629L8.81407 9.99708C8.92591 9.85133 9.09182 9.75691 9.27332 9.73399C9.45849 9.71016 9.63999 9.76149 9.78391 9.87608L12.3689 11.9065L14.6303 8.98874C14.8632 8.68716 15.294 8.63124 15.5947 8.86591C15.8953 9.09874 15.9503 9.53049 15.7175 9.83024L13.0317 13.2952C12.9198 13.4401 12.7548 13.5345 12.5733 13.5565C12.39 13.5812 12.2085 13.5281 12.0637 13.4153L9.48049 11.3858L7.16041 14.4007C7.02474 14.5767 6.82124 14.6693 6.61499 14.6693Z" fill="black"/>
<mask id="mask0_770_18553" style="mask-type:luminance" maskUnits="userSpaceOnUse" x="15" y="1" width="6" height="6">
<path fill-rule="evenodd" clip-rule="evenodd" d="M15.8535 1.83342H20.7522V6.73292H15.8535V1.83342Z" fill="white"/>
</mask>
<g mask="url(#mask0_770_18553)">
<path fill-rule="evenodd" clip-rule="evenodd" d="M18.3028 3.20833C17.7107 3.20833 17.2285 3.68958 17.2285 4.28267C17.2285 4.87483 17.7107 5.35792 18.3028 5.35792C18.895 5.35792 19.3772 4.87483 19.3772 4.28267C19.3772 3.68958 18.895 3.20833 18.3028 3.20833ZM18.3028 6.73292C16.9526 6.73292 15.8535 5.63383 15.8535 4.28267C15.8535 2.9315 16.9526 1.83333 18.3028 1.83333C19.654 1.83333 20.7522 2.9315 20.7522 4.28267C20.7522 5.63383 19.654 6.73292 18.3028 6.73292Z" fill="black"/>
</g>
<mask id="mask1_770_18553" style="mask-type:luminance" maskUnits="userSpaceOnUse" x="1" y="2" width="20" height="19">
<path fill-rule="evenodd" clip-rule="evenodd" d="M1.83301 2.60526H20.0397V20.8112H1.83301V2.60526Z" fill="white"/>
</mask>
<g mask="url(#mask1_770_18553)">
<path fill-rule="evenodd" clip-rule="evenodd" d="M14.8799 20.8112H6.99292C3.90651 20.8112 1.83301 18.6433 1.83301 15.4166V8.00809C1.83301 4.77684 3.90651 2.60526 6.99292 2.60526H13.6553C14.0348 2.60526 14.3428 2.91326 14.3428 3.29276C14.3428 3.67226 14.0348 3.98026 13.6553 3.98026H6.99292C4.69392 3.98026 3.20801 5.56059 3.20801 8.00809V15.4166C3.20801 17.8962 4.65817 19.4362 6.99292 19.4362H14.8799C17.1789 19.4362 18.6648 17.8586 18.6648 15.4166V8.96417C18.6648 8.58467 18.9728 8.27667 19.3523 8.27667C19.7318 8.27667 20.0398 8.58467 20.0398 8.96417V15.4166C20.0398 18.6433 17.9663 20.8112 14.8799 20.8112Z" fill="black"/>
</g>
</svg>
