<svg width="22" height="22" viewBox="0 0 22 22" fill="none" xmlns="http://www.w3.org/2000/svg">
<path fill-rule="evenodd" clip-rule="evenodd" d="M7.15234 9.34845C6.77284 9.34845 6.46484 9.04045 6.46484 8.66095V6.69287C6.47676 3.9997 8.65476 1.83362 11.325 1.83362H11.3433C13.4113 1.83362 15.2575 3.1472 15.9349 5.10337C16.0596 5.46178 15.8689 5.8532 15.5096 5.97787C15.1512 6.10345 14.7598 5.91187 14.6351 5.55253C14.1502 4.15095 12.8256 3.20862 11.3406 3.20862H11.3278C9.41009 3.20862 7.84809 4.76145 7.83984 6.67728V8.66095C7.83984 9.04045 7.53184 9.34845 7.15234 9.34845Z" fill="black"/>
<path fill-rule="evenodd" clip-rule="evenodd" d="M7.82952 9.28308C6.29135 9.28308 5.04102 10.5343 5.04102 12.0725V16.0032C5.04102 17.5413 6.29135 18.7926 7.82952 18.7926H14.8347C16.3719 18.7926 17.6232 17.5413 17.6232 16.0032V12.0725C17.6232 10.5343 16.3719 9.28308 14.8347 9.28308H7.82952ZM14.8347 20.1676H7.82952C5.53327 20.1676 3.66602 18.2994 3.66602 16.0032V12.0725C3.66602 9.77625 5.53327 7.90808 7.82952 7.90808H14.8347C17.13 7.90808 18.9982 9.77625 18.9982 12.0725V16.0032C18.9982 18.2994 17.13 20.1676 14.8347 20.1676Z" fill="black"/>
<path fill-rule="evenodd" clip-rule="evenodd" d="M11.332 15.7436C10.9525 15.7436 10.6445 15.4356 10.6445 15.0561V13.0193C10.6445 12.6398 10.9525 12.3318 11.332 12.3318C11.7115 12.3318 12.0195 12.6398 12.0195 13.0193V15.0561C12.0195 15.4356 11.7115 15.7436 11.332 15.7436Z" fill="black"/>
</svg>
