<svg width="23" height="23" viewBox="0 0 23 23" fill="none" xmlns="http://www.w3.org/2000/svg">
<path d="M14.3747 21.8019H8.62475C3.42106 21.8019 1.19775 19.5785 1.19775 14.3748V8.62491C1.19775 3.42122 3.42106 1.19791 8.62475 1.19791H14.3747C19.5784 1.19791 21.8017 3.42122 21.8017 8.62491V14.3748C21.8017 19.5785 19.5784 21.8019 14.3747 21.8019ZM8.62475 2.63539C4.20688 2.63539 2.63523 4.20704 2.63523 8.62491V14.3748C2.63523 18.7927 4.20688 20.3644 8.62475 20.3644H14.3747C18.7926 20.3644 20.3642 18.7927 20.3642 14.3748V8.62491C20.3642 4.20704 18.7926 2.63539 14.3747 2.63539H8.62475Z" fill="#9A9A9A"/>
<path d="M20.5849 7.53241H2.41513C2.02222 7.53241 1.69639 7.20658 1.69639 6.81367C1.69639 6.42076 2.01264 6.09493 2.41513 6.09493H20.5849C20.9779 6.09493 21.3037 6.42076 21.3037 6.81367C21.3037 7.20658 20.9874 7.53241 20.5849 7.53241Z" fill="#9A9A9A"/>
<path d="M8.16513 7.39827C7.77222 7.39827 7.44639 7.07244 7.44639 6.67952V2.02207C7.44639 1.62916 7.77222 1.30333 8.16513 1.30333C8.55805 1.30333 8.88388 1.62916 8.88388 2.02207V6.67952C8.88388 7.07244 8.55805 7.39827 8.16513 7.39827Z" fill="#9A9A9A"/>
<path d="M14.8349 6.96702C14.4419 6.96702 14.1161 6.64119 14.1161 6.24828V2.02207C14.1161 1.62916 14.4419 1.30333 14.8349 1.30333C15.2278 1.30333 15.5536 1.62916 15.5536 2.02207V6.24828C15.5536 6.65078 15.2373 6.96702 14.8349 6.96702Z" fill="#9A9A9A"/>
<path d="M10.6279 17.3648C10.2829 17.3648 9.95707 17.2786 9.65999 17.1156C9.00833 16.7323 8.625 15.9657 8.625 14.9977V12.6978C8.625 11.7299 9.00833 10.9536 9.66957 10.5703C10.3308 10.187 11.1933 10.2445 12.027 10.7332L14.0204 11.8832C14.8541 12.3624 15.3428 13.0811 15.3428 13.8478C15.3428 14.6144 14.8541 15.3332 14.0108 15.8123L12.0175 16.9623C11.5575 17.2306 11.0783 17.3648 10.6279 17.3648ZM10.6375 11.7586C10.5416 11.7586 10.4554 11.7778 10.3883 11.8161C10.1871 11.9311 10.0625 12.2569 10.0625 12.6978V14.9977C10.0625 15.429 10.1871 15.7548 10.3883 15.8794C10.5896 15.9944 10.9346 15.9369 11.3083 15.7165L13.3016 14.5665C13.6754 14.3461 13.9054 14.0778 13.9054 13.8478C13.9054 13.6178 13.6849 13.3494 13.3016 13.129L11.3083 11.979C11.0591 11.8353 10.8196 11.7586 10.6375 11.7586Z" fill="#9A9A9A"/>
</svg>
