<svg width="6" height="13" viewBox="0 0 6 13" fill="none" xmlns="http://www.w3.org/2000/svg">
<path fill-rule="evenodd" clip-rule="evenodd" d="M2.8331 8.33332C0.999767 8.33332 0.999767 8.47199 0.999767 10.1667V10.1833C0.999767 10.9213 0.999767 11.4547 1.18043 11.68C1.3571 11.8987 1.88177 12 2.8331 12C3.78443 12 4.30909 11.898 4.48576 11.6793C4.66643 11.4547 4.66643 10.9213 4.66643 10.1827C4.66643 8.47199 4.66643 8.33332 2.8331 8.33332ZM2.83333 12.9999C1.70933 12.9999 0.865998 12.8819 0.402666 12.3066C0 11.8073 0 11.126 0 10.1833L0.499999 10.1666H0C0 8.25329 0.120667 7.33329 2.83333 7.33329C5.54599 7.33329 5.66666 8.25329 5.66666 10.1666C5.66666 11.1253 5.66666 11.8073 5.26399 12.3066C4.80066 12.8819 3.95733 12.9999 2.83333 12.9999Z" fill="white"/>
<path fill-rule="evenodd" clip-rule="evenodd" d="M2.8331 1.00003C0.999767 1.00003 0.999767 1.1387 0.999767 2.83336V2.85003C0.999767 3.58803 0.999767 4.12136 1.18043 4.34669C1.3571 4.56536 1.88177 4.66669 2.8331 4.66669C3.78443 4.66669 4.30909 4.56469 4.48576 4.34603C4.66643 4.12136 4.66643 3.58803 4.66643 2.84936C4.66643 1.1387 4.66643 1.00003 2.8331 1.00003ZM2.83333 5.66666C1.70933 5.66666 0.865998 5.54866 0.402666 4.97332C0 4.47399 0 3.79266 0 2.85L0.499999 2.83333H0C0 0.919998 0.120667 0 2.83333 0C5.54599 0 5.66666 0.919998 5.66666 2.83333C5.66666 3.79199 5.66666 4.47399 5.26399 4.97332C4.80066 5.54866 3.95733 5.66666 2.83333 5.66666Z" fill="white"/>
</svg>
