<svg width="23" height="23" viewBox="0 0 23 23" fill="none" xmlns="http://www.w3.org/2000/svg">
<circle opacity="0.3" cx="11.5" cy="11.5" r="11.5" fill="#848484"/>
<path d="M4.33301 12.6468V8.66016C4.33301 6.82016 5.82634 5.3335 7.66634 5.3335H14.333C16.173 5.3335 17.6663 6.82016 17.6663 8.66016V13.3135C17.6663 15.1468 16.173 16.6335 14.333 16.6335H13.333C13.1263 16.6335 12.9263 16.7335 12.7997 16.9002L11.7997 18.2268C11.3597 18.8135 10.6397 18.8135 10.1997 18.2268L9.19967 16.9002C9.09301 16.7535 8.85301 16.6335 8.66634 16.6335H7.66634C5.82634 16.6335 4.33301 15.1468 4.33301 13.3135V12.6468Z" fill="white"/>
<path d="M10.9997 12.0003C10.6263 12.0003 10.333 11.7003 10.333 11.3337C10.333 10.967 10.633 10.667 10.9997 10.667C11.3663 10.667 11.6663 10.967 11.6663 11.3337C11.6663 11.7003 11.373 12.0003 10.9997 12.0003Z" fill="#212121"/>
<path d="M13.6667 12.0003C13.2933 12.0003 13 11.7003 13 11.3337C13 10.967 13.3 10.667 13.6667 10.667C14.0333 10.667 14.3333 10.967 14.3333 11.3337C14.3333 11.7003 14.04 12.0003 13.6667 12.0003Z" fill="#212121"/>
<path d="M8.33366 12.0003C7.96033 12.0003 7.66699 11.7003 7.66699 11.3337C7.66699 10.967 7.96699 10.667 8.33366 10.667C8.70033 10.667 9.00033 10.967 9.00033 11.3337C9.00033 11.7003 8.70699 12.0003 8.33366 12.0003Z" fill="#212121"/>
</svg>
