<svg width="22" height="22" viewBox="0 0 22 22" fill="none" xmlns="http://www.w3.org/2000/svg">
<path d="M14.6667 20.8543H7.33338C3.09838 20.8543 2.31005 18.8834 2.10838 16.9676L1.42088 9.62511C1.32005 8.66261 1.29255 7.24178 2.24588 6.17844C3.07088 5.26178 4.43671 4.82178 6.41671 4.82178H15.5834C17.5725 4.82178 18.9384 5.27094 19.7542 6.17844C20.7075 7.24178 20.68 8.66261 20.5792 9.63428L19.8917 16.9584C19.69 18.8834 18.9017 20.8543 14.6667 20.8543ZM6.41671 6.18761C4.86755 6.18761 3.80421 6.49011 3.26338 7.09511C2.81421 7.59011 2.66755 8.35094 2.78671 9.48761L3.47421 16.8301C3.63005 18.2784 4.02421 19.4793 7.33338 19.4793H14.6667C17.9667 19.4793 18.37 18.2784 18.5259 16.8209L19.2134 9.49678C19.3325 8.35094 19.1859 7.59011 18.7367 7.09511C18.1959 6.49011 17.1325 6.18761 15.5834 6.18761H6.41671Z" fill="#8C8C8C"/>
<path d="M14.6663 6.18766C14.2905 6.18766 13.9788 5.876 13.9788 5.50016V4.76683C13.9788 3.13516 13.9788 2.521 11.733 2.521H10.2663C8.02051 2.521 8.02051 3.13516 8.02051 4.76683V5.50016C8.02051 5.876 7.70884 6.18766 7.33301 6.18766C6.95717 6.18766 6.64551 5.876 6.64551 5.50016V4.76683C6.64551 3.1535 6.64551 1.146 10.2663 1.146H11.733C15.3538 1.146 15.3538 3.1535 15.3538 4.76683V5.50016C15.3538 5.876 15.0422 6.18766 14.6663 6.18766Z" fill="#8C8C8C"/>
<path d="M11.0003 15.3542C8.47949 15.3542 8.47949 13.7958 8.47949 12.8608V11.9167C8.47949 10.6242 8.79116 10.3125 10.0837 10.3125H11.917C13.2095 10.3125 13.5212 10.6242 13.5212 11.9167V12.8333C13.5212 13.7867 13.5212 15.3542 11.0003 15.3542ZM9.85449 11.6875C9.85449 11.7608 9.85449 11.8433 9.85449 11.9167V12.8608C9.85449 13.805 9.85449 13.9792 11.0003 13.9792C12.1462 13.9792 12.1462 13.8325 12.1462 12.8517V11.9167C12.1462 11.8433 12.1462 11.7608 12.1462 11.6875C12.0728 11.6875 11.9903 11.6875 11.917 11.6875H10.0837C10.0103 11.6875 9.92783 11.6875 9.85449 11.6875Z" fill="#8C8C8C"/>
<path d="M12.8329 13.5391C12.4937 13.5391 12.1912 13.2824 12.1546 12.9341C12.1087 12.5582 12.3746 12.2099 12.7504 12.1641C15.1704 11.8616 17.4896 10.9449 19.4421 9.52406C19.7446 9.29489 20.1754 9.36823 20.4046 9.67989C20.6246 9.98239 20.5604 10.4132 20.2487 10.6424C18.1037 12.2007 15.5737 13.1999 12.9154 13.5391C12.8879 13.5391 12.8604 13.5391 12.8329 13.5391Z" fill="#8C8C8C"/>
<path d="M9.16635 13.5482C9.13885 13.5482 9.11135 13.5482 9.08385 13.5482C6.57219 13.264 4.12469 12.3473 2.00719 10.899C1.69552 10.6882 1.61302 10.2573 1.82385 9.94566C2.03469 9.634 2.46552 9.5515 2.77719 9.76233C4.71135 11.0823 6.93885 11.9165 9.23052 12.1823C9.60635 12.2282 9.88135 12.5673 9.83552 12.9432C9.80802 13.2915 9.51469 13.5482 9.16635 13.5482Z" fill="#8C8C8C"/>
</svg>
