<svg width="23" height="23" viewBox="0 0 23 23" fill="none" xmlns="http://www.w3.org/2000/svg">
<path d="M9.57407 21.8308C8.99907 21.8308 8.45282 21.5433 8.07907 21.0354L6.92909 19.5021C6.92909 19.5117 6.88116 19.4829 6.862 19.4829H6.50742C3.22992 19.4829 1.19824 18.5917 1.19824 14.1738V10.3404C1.19824 6.30584 3.66117 5.25167 5.73117 5.06959C5.96117 5.04084 6.2295 5.03125 6.50742 5.03125H12.6407C16.1099 5.03125 17.9499 6.87126 17.9499 10.3404V14.1738C17.9499 14.4517 17.9403 14.72 17.902 14.9788C17.7295 17.02 16.6753 19.4829 12.6407 19.4829H12.2574L11.0691 21.0354C10.6953 21.5433 10.1491 21.8308 9.57407 21.8308ZM6.50742 6.46875C6.287 6.46875 6.07616 6.47833 5.87491 6.4975C3.65158 6.68917 2.63574 7.90626 2.63574 10.3404V14.1738C2.63574 17.4608 3.65158 18.0454 6.50742 18.0454H6.89075C7.322 18.0454 7.81074 18.285 8.07907 18.63L9.22908 20.1729C9.43991 20.4604 9.70825 20.4604 9.91908 20.1729L11.0691 18.6396C11.347 18.2658 11.7878 18.0454 12.2574 18.0454H12.6407C15.0749 18.0454 16.292 17.02 16.4741 14.835C16.5028 14.605 16.5124 14.3942 16.5124 14.1738V10.3404C16.5124 7.66667 15.3145 6.46875 12.6407 6.46875H6.50742Z" fill="#9A9A9A"/>
<path d="M9.57357 13.5988C9.0369 13.5988 8.61523 13.1675 8.61523 12.6404C8.61523 12.1133 9.04648 11.6821 9.57357 11.6821C10.1007 11.6821 10.5319 12.1133 10.5319 12.6404C10.5319 13.1675 10.1102 13.5988 9.57357 13.5988Z" fill="#9A9A9A"/>
<path d="M12.64 13.5988C12.1033 13.5988 11.6816 13.1675 11.6816 12.6404C11.6816 12.1133 12.1129 11.6821 12.64 11.6821C13.1671 11.6821 13.5983 12.1133 13.5983 12.6404C13.5983 13.1675 13.1671 13.5988 12.64 13.5988Z" fill="#9A9A9A"/>
<path d="M6.51693 13.5988C5.98026 13.5988 5.55859 13.1675 5.55859 12.6404C5.55859 12.1133 5.98984 11.6821 6.51693 11.6821C7.04401 11.6821 7.47526 12.1133 7.47526 12.6404C7.47526 13.1675 7.04401 13.5988 6.51693 13.5988Z" fill="#9A9A9A"/>
<path d="M17.1922 15.6112C17.0005 15.6112 16.8088 15.5346 16.6747 15.3908C16.5213 15.2375 16.4543 15.0171 16.483 14.8063C16.5118 14.605 16.5213 14.3942 16.5213 14.1737V10.3404C16.5213 7.66666 15.3234 6.46874 12.6497 6.46874H6.51631C6.2959 6.46874 6.08509 6.47832 5.88384 6.49749C5.67301 6.52624 5.45258 6.44956 5.29924 6.30581C5.14591 6.15248 5.05965 5.94167 5.07881 5.73083C5.25131 3.66083 6.31506 1.19791 10.3496 1.19791H16.483C19.9522 1.19791 21.7922 3.03791 21.7922 6.50708V10.3404C21.7922 14.375 19.3293 15.4292 17.2593 15.6112C17.2305 15.6112 17.2113 15.6112 17.1922 15.6112ZM6.63134 5.03124H12.6401C16.1092 5.03124 17.9493 6.87125 17.9493 10.3404V14.0492C19.5784 13.6467 20.3451 12.4487 20.3451 10.3404V6.50708C20.3451 3.83333 19.1472 2.63541 16.4734 2.63541H10.3401C8.23175 2.63541 7.04342 3.40207 6.63134 5.03124Z" fill="#9A9A9A"/>
</svg>
