<svg width="14" height="13" viewBox="0 0 14 13" fill="none" xmlns="http://www.w3.org/2000/svg">
<path fill-rule="evenodd" clip-rule="evenodd" d="M3.62682 1.89583C2.03084 1.89583 2.03084 2.0085 2.03084 3.38541V3.39896C2.03084 3.99858 2.03084 4.43191 2.18811 4.615C2.34191 4.79266 2.79865 4.875 3.62682 4.875C4.45499 4.875 4.91173 4.79212 5.06553 4.61446C5.2228 4.43191 5.2228 3.99858 5.2228 3.39841C5.2228 2.0085 5.2228 1.89583 3.62682 1.89583ZM3.62682 5.6875C2.64834 5.6875 1.91419 5.59162 1.51084 5.12416C1.1603 4.71846 1.1603 4.16487 1.1603 3.39896L1.59557 3.38541H1.1603C1.1603 1.83083 1.26535 1.08333 3.62682 1.08333C5.98829 1.08333 6.09334 1.83083 6.09334 3.38541C6.09334 4.16433 6.09334 4.71846 5.7428 5.12416C5.33945 5.59162 4.6053 5.6875 3.62682 5.6875Z" fill="white"/>
<path fill-rule="evenodd" clip-rule="evenodd" d="M10.0105 1.89583C8.41456 1.89583 8.41456 2.0085 8.41456 3.38541V3.39896C8.41456 3.99858 8.41456 4.43191 8.57184 4.615C8.72563 4.79266 9.18237 4.875 10.0105 4.875C10.8387 4.875 11.2955 4.79212 11.4492 4.61446C11.6065 4.43191 11.6065 3.99858 11.6065 3.39841C11.6065 2.0085 11.6065 1.89583 10.0105 1.89583ZM10.0105 5.6875C9.03206 5.6875 8.29791 5.59162 7.89456 5.12416C7.54402 4.71846 7.54402 4.16487 7.54402 3.39896L7.97929 3.38541H7.54402C7.54402 1.83083 7.64907 1.08333 10.0105 1.08333C12.372 1.08333 12.4771 1.83083 12.4771 3.38541C12.4771 4.16433 12.4771 4.71846 12.1265 5.12416C11.7232 5.59162 10.989 5.6875 10.0105 5.6875Z" fill="white"/>
<path fill-rule="evenodd" clip-rule="evenodd" d="M3.62682 7.85417C2.03084 7.85417 2.03084 7.96683 2.03084 9.34375V9.35729C2.03084 9.95692 2.03084 10.3902 2.18811 10.5733C2.34191 10.751 2.79865 10.8333 3.62682 10.8333C4.45499 10.8333 4.91173 10.7505 5.06553 10.5728C5.2228 10.3902 5.2228 9.95692 5.2228 9.35675C5.2228 7.96683 5.2228 7.85417 3.62682 7.85417ZM3.62682 11.6458C2.64834 11.6458 1.91419 11.55 1.51084 11.0825C1.1603 10.6768 1.1603 10.1232 1.1603 9.35729L1.59557 9.34375H1.1603C1.1603 7.78917 1.26535 7.04167 3.62682 7.04167C5.98829 7.04167 6.09334 7.78917 6.09334 9.34375C6.09334 10.1227 6.09334 10.6768 5.7428 11.0825C5.33945 11.55 4.6053 11.6458 3.62682 11.6458Z" fill="white"/>
<path fill-rule="evenodd" clip-rule="evenodd" d="M10.0105 7.85417C8.41456 7.85417 8.41456 7.96683 8.41456 9.34375V9.35729C8.41456 9.95692 8.41456 10.3902 8.57184 10.5733C8.72563 10.751 9.18237 10.8333 10.0105 10.8333C10.8387 10.8333 11.2955 10.7505 11.4492 10.5728C11.6065 10.3902 11.6065 9.95692 11.6065 9.35675C11.6065 7.96683 11.6065 7.85417 10.0105 7.85417ZM10.0105 11.6458C9.03206 11.6458 8.29791 11.55 7.89456 11.0825C7.54402 10.6768 7.54402 10.1232 7.54402 9.35729L7.97929 9.34375H7.54402C7.54402 7.78917 7.64907 7.04167 10.0105 7.04167C12.372 7.04167 12.4771 7.78917 12.4771 9.34375C12.4771 10.1227 12.4771 10.6768 12.1265 11.0825C11.7232 11.55 10.989 11.6458 10.0105 11.6458Z" fill="white"/>
</svg>
