<svg width="23" height="23" viewBox="0 0 23 23" fill="none" xmlns="http://www.w3.org/2000/svg">
<path fill-rule="evenodd" clip-rule="evenodd" d="M5.98991 3.35416C3.35449 3.35416 3.35449 3.55349 3.35449 5.98957V6.01353C3.35449 7.07441 3.35449 7.84107 3.6142 8.16499C3.86816 8.47932 4.62237 8.62499 5.98991 8.62499C7.35745 8.62499 8.11166 8.47836 8.36562 8.16403C8.62533 7.84107 8.62533 7.07441 8.62533 6.01257C8.62533 3.55349 8.62533 3.35416 5.98991 3.35416ZM5.98991 10.0625C4.37416 10.0625 3.16187 9.89286 2.49583 9.06582C1.91699 8.34803 1.91699 7.36861 1.91699 6.01353L2.63574 5.98957H1.91699C1.91699 3.23916 2.09045 1.91666 5.98991 1.91666C9.88937 1.91666 10.0628 3.23916 10.0628 5.98957C10.0628 7.36766 10.0628 8.34803 9.48399 9.06582C8.81795 9.89286 7.60566 10.0625 5.98991 10.0625Z" fill="#9A9A9A"/>
<path fill-rule="evenodd" clip-rule="evenodd" d="M16.5319 3.35416C13.8965 3.35416 13.8965 3.55349 13.8965 5.98957V6.01353C13.8965 7.07441 13.8965 7.84107 14.1562 8.16499C14.4102 8.47932 15.1644 8.62499 16.5319 8.62499C17.8994 8.62499 18.6537 8.47836 18.9076 8.16403C19.1673 7.84107 19.1673 7.07441 19.1673 6.01257C19.1673 3.55349 19.1673 3.35416 16.5319 3.35416ZM16.5319 10.0625C14.9162 10.0625 13.7039 9.89286 13.0378 9.06582C12.459 8.34803 12.459 7.36861 12.459 6.01353L13.1777 5.98957H12.459C12.459 3.23916 12.6324 1.91666 16.5319 1.91666C20.4314 1.91666 20.6048 3.23916 20.6048 5.98957C20.6048 7.36766 20.6048 8.34803 20.026 9.06582C19.3599 9.89286 18.1477 10.0625 16.5319 10.0625Z" fill="#9A9A9A"/>
<path fill-rule="evenodd" clip-rule="evenodd" d="M5.98991 13.8958C3.35449 13.8958 3.35449 14.0951 3.35449 16.5312V16.5552C3.35449 17.6161 3.35449 18.3827 3.6142 18.7066C3.86816 19.021 4.62237 19.1666 5.98991 19.1666C7.35745 19.1666 8.11166 19.02 8.36562 18.7057C8.62533 18.3827 8.62533 17.6161 8.62533 16.5542C8.62533 14.0951 8.62533 13.8958 5.98991 13.8958ZM5.98991 20.6041C4.37416 20.6041 3.16187 20.4345 2.49583 19.6075C1.91699 18.8897 1.91699 17.9103 1.91699 16.5552L2.63574 16.5312H1.91699C1.91699 13.7808 2.09045 12.4583 5.98991 12.4583C9.88937 12.4583 10.0628 13.7808 10.0628 16.5312C10.0628 17.9093 10.0628 18.8897 9.48399 19.6075C8.81795 20.4345 7.60566 20.6041 5.98991 20.6041Z" fill="#9A9A9A"/>
<path fill-rule="evenodd" clip-rule="evenodd" d="M16.5319 13.8958C13.8965 13.8958 13.8965 14.0951 13.8965 16.5312V16.5552C13.8965 17.6161 13.8965 18.3827 14.1562 18.7066C14.4102 19.021 15.1644 19.1666 16.5319 19.1666C17.8994 19.1666 18.6537 19.02 18.9076 18.7057C19.1673 18.3827 19.1673 17.6161 19.1673 16.5542C19.1673 14.0951 19.1673 13.8958 16.5319 13.8958ZM16.5319 20.6041C14.9162 20.6041 13.7039 20.4345 13.0378 19.6075C12.459 18.8897 12.459 17.9103 12.459 16.5552L13.1777 16.5312H12.459C12.459 13.7808 12.6324 12.4583 16.5319 12.4583C20.4314 12.4583 20.6048 13.7808 20.6048 16.5312C20.6048 17.9093 20.6048 18.8897 20.026 19.6075C19.3599 20.4345 18.1477 20.6041 16.5319 20.6041Z" fill="#9A9A9A"/>
</svg>
