<svg width="15" height="15" viewBox="0 0 15 15" fill="none" xmlns="http://www.w3.org/2000/svg">
<path fill-rule="evenodd" clip-rule="evenodd" d="M7.65625 5.3125C7.05313 5.3125 6.5625 5.80313 6.5625 6.40688C6.5625 7.01 7.05313 7.5 7.65625 7.5C8.25938 7.5 8.75 7.01 8.75 6.40688C8.75 5.80313 8.25938 5.3125 7.65625 5.3125ZM7.65625 8.4375C6.53625 8.4375 5.625 7.52688 5.625 6.40687C5.625 5.28625 6.53625 4.375 7.65625 4.375C8.77625 4.375 9.6875 5.28625 9.6875 6.40687C9.6875 7.52688 8.77625 8.4375 7.65625 8.4375Z" fill="#A2A2A2"/>
<mask id="mask0_498_17582" style="mask-type:luminance" maskUnits="userSpaceOnUse" x="2" y="1" width="11" height="13">
<path fill-rule="evenodd" clip-rule="evenodd" d="M2.5 1.25H12.8122V13.4375H2.5V1.25Z" fill="white"/>
</mask>
<g mask="url(#mask0_498_17582)">
<path fill-rule="evenodd" clip-rule="evenodd" d="M7.65625 2.1875C5.33 2.1875 3.4375 4.09812 3.4375 6.44563C3.4375 9.4325 6.9525 12.3425 7.65625 12.4975C8.36 12.3419 11.875 9.43188 11.875 6.44563C11.875 4.09812 9.9825 2.1875 7.65625 2.1875ZM7.65625 13.4375C6.535 13.4375 2.5 9.9675 2.5 6.44562C2.5 3.58062 4.81313 1.25 7.65625 1.25C10.4994 1.25 12.8125 3.58062 12.8125 6.44562C12.8125 9.9675 8.7775 13.4375 7.65625 13.4375Z" fill="#A2A2A2"/>
</g>
</svg>
