<svg width="22" height="22" viewBox="0 0 22 22" fill="none" xmlns="http://www.w3.org/2000/svg">
<mask id="mask0_796_24524" style="mask-type:luminance" maskUnits="userSpaceOnUse" x="2" y="0" width="18" height="17">
<path fill-rule="evenodd" clip-rule="evenodd" d="M2.75 0.916626H19.7055V16.819H2.75V0.916626Z" fill="white"/>
</mask>
<g mask="url(#mask0_796_24524)">
<path fill-rule="evenodd" clip-rule="evenodd" d="M11.2264 2.29163C8.02268 2.29163 5.78968 4.80146 5.78968 7.05371C5.78968 8.95946 5.26076 9.84038 4.79326 10.6177C4.41835 11.242 4.12226 11.7351 4.12226 12.8067C4.27535 14.5355 5.4166 15.444 11.2264 15.444C17.0042 15.444 18.1812 14.4952 18.3333 12.7471C18.3306 11.7351 18.0345 11.242 17.6596 10.6177C17.1921 9.84038 16.6632 8.95946 16.6632 7.05371C16.6632 4.80146 14.4302 2.29163 11.2264 2.29163ZM11.2264 16.819C6.94009 16.819 3.06626 16.5165 2.75001 12.8654C2.74726 11.3547 3.20835 10.5865 3.61535 9.91004C4.02693 9.22438 4.41468 8.57813 4.41468 7.05371C4.41468 4.09013 7.15184 0.916626 11.2264 0.916626C15.301 0.916626 18.0382 4.09013 18.0382 7.05371C18.0382 8.57813 18.4259 9.22438 18.8375 9.91004C19.2445 10.5865 19.7056 11.3547 19.7056 12.8067C19.3857 16.5165 15.5128 16.819 11.2264 16.819Z" fill="black"/>
</g>
<path fill-rule="evenodd" clip-rule="evenodd" d="M11.1819 20.6249H11.1801C10.1525 20.624 9.17993 20.1712 8.44202 19.3489C8.1881 19.0675 8.21102 18.6321 8.49335 18.3791C8.77568 18.1243 9.21018 18.1472 9.4641 18.4304C9.93893 18.9594 10.5485 19.2499 11.181 19.2499H11.1819C11.8172 19.2499 12.4295 18.9594 12.9053 18.4295C13.1601 18.1481 13.5946 18.1252 13.876 18.3791C14.1583 18.633 14.1813 19.0684 13.9273 19.3499C13.1867 20.1721 12.2123 20.6249 11.1819 20.6249Z" fill="black"/>
</svg>
