<svg width="23" height="27" viewBox="0 0 23 27" fill="none" xmlns="http://www.w3.org/2000/svg">
<path d="M14.3753 21.8021H8.62533C3.42158 21.8021 1.19824 19.5788 1.19824 14.375V8.62501C1.19824 3.42126 3.42158 1.19792 8.62533 1.19792H14.3753C19.5791 1.19792 21.8024 3.42126 21.8024 8.62501V14.375C21.8024 19.5788 19.5791 21.8021 14.3753 21.8021ZM8.62533 2.63542C4.20741 2.63542 2.63574 4.20709 2.63574 8.62501V14.375C2.63574 18.7929 4.20741 20.3646 8.62533 20.3646H14.3753C18.7932 20.3646 20.3649 18.7929 20.3649 14.375V8.62501C20.3649 4.20709 18.7932 2.63542 14.3753 2.63542H8.62533Z" fill="#9A9A9A"/>
<path d="M20.585 7.5325H2.41504C2.02212 7.5325 1.69629 7.20667 1.69629 6.81375C1.69629 6.42083 2.01254 6.095 2.41504 6.095H20.585C20.978 6.095 21.3038 6.42083 21.3038 6.81375C21.3038 7.20667 20.9875 7.5325 20.585 7.5325Z" fill="#9A9A9A"/>
<path d="M8.16504 7.39833C7.77212 7.39833 7.44629 7.0725 7.44629 6.67958V2.02208C7.44629 1.62916 7.77212 1.30333 8.16504 1.30333C8.55796 1.30333 8.88379 1.62916 8.88379 2.02208V6.67958C8.88379 7.0725 8.55796 7.39833 8.16504 7.39833Z" fill="#9A9A9A"/>
<path d="M14.835 6.96708C14.442 6.96708 14.1162 6.64125 14.1162 6.24833V2.02208C14.1162 1.62916 14.442 1.30333 14.835 1.30333C15.2279 1.30333 15.5537 1.62916 15.5537 2.02208V6.24833C15.5537 6.65083 15.2375 6.96708 14.835 6.96708Z" fill="#9A9A9A"/>
<path d="M10.6279 17.365C10.2829 17.365 9.95708 17.2788 9.66 17.1158C9.00833 16.7325 8.625 15.9658 8.625 14.9979V12.6979C8.625 11.73 9.00833 10.9538 9.66958 10.5704C10.3308 10.1871 11.1933 10.2446 12.0271 10.7333L14.0204 11.8833C14.8542 12.3625 15.3429 13.0813 15.3429 13.8479C15.3429 14.6146 14.8542 15.3333 14.0108 15.8125L12.0175 16.9625C11.5575 17.2308 11.0783 17.365 10.6279 17.365ZM10.6375 11.7588C10.5417 11.7588 10.4554 11.7779 10.3883 11.8163C10.1871 11.9313 10.0625 12.2571 10.0625 12.6979V14.9979C10.0625 15.4292 10.1871 15.755 10.3883 15.8796C10.5896 15.9946 10.9346 15.9371 11.3083 15.7167L13.3017 14.5667C13.6754 14.3463 13.9054 14.0779 13.9054 13.8479C13.9054 13.6179 13.685 13.3496 13.3017 13.1292L11.3083 11.9792C11.0592 11.8354 10.8196 11.7588 10.6375 11.7588Z" fill="#9A9A9A"/>
<ellipse cx="12" cy="26" rx="8" ry="1" fill="#9A9A9A"/>
</svg>
