<svg width="19" height="19" viewBox="0 0 19 19" fill="none" xmlns="http://www.w3.org/2000/svg">
<path d="M17.4168 7.71875C17.0922 7.71875 16.8231 7.44958 16.8231 7.125V5.54166C16.8231 3.49916 15.501 2.17708 13.4585 2.17708H5.54183C3.49933 2.17708 2.17725 3.49916 2.17725 5.54166V7.125C2.17725 7.44958 1.90808 7.71875 1.5835 7.71875C1.25891 7.71875 0.989746 7.44958 0.989746 7.125V5.54166C0.989746 2.81833 2.8185 0.989578 5.54183 0.989578H13.4585C16.1818 0.989578 18.0106 2.81833 18.0106 5.54166V7.125C18.0106 7.44958 17.7414 7.71875 17.4168 7.71875Z" fill="#D9D9D9"/>
<path d="M13.4585 18.0104H5.54183C2.8185 18.0104 0.989746 16.1817 0.989746 13.4583V11.875C0.989746 11.5504 1.25891 11.2812 1.5835 11.2812C1.90808 11.2812 2.17725 11.5504 2.17725 11.875V13.4583C2.17725 15.5008 3.49933 16.8229 5.54183 16.8229H13.4585C15.501 16.8229 16.8231 15.5008 16.8231 13.4583V11.875C16.8231 11.5504 17.0922 11.2812 17.4168 11.2812C17.7414 11.2812 18.0106 11.5504 18.0106 11.875V13.4583C18.0106 16.1817 16.1818 18.0104 13.4585 18.0104Z" fill="#D9D9D9"/>
<path d="M17.4168 10.0938H1.5835C1.25891 10.0938 0.989746 9.82458 0.989746 9.5C0.989746 9.17542 1.25891 8.90625 1.5835 8.90625H17.4168C17.7414 8.90625 18.0106 9.17542 18.0106 9.5C18.0106 9.82458 17.7414 10.0938 17.4168 10.0938Z" fill="#D9D9D9"/>
</svg>
