<svg width="30" height="30" viewBox="0 0 30 30" fill="none" xmlns="http://www.w3.org/2000/svg">
<mask id="mask0_498_14798" style="mask-type:luminance" maskUnits="userSpaceOnUse" x="2" y="2" width="26" height="26">
<path fill-rule="evenodd" clip-rule="evenodd" d="M2.50066 15L14.5534 2.94721L27.5037 15.8975L15.451 27.9503L2.50066 15Z" fill="white"/>
</mask>
<g mask="url(#mask0_498_14798)">
<path fill-rule="evenodd" clip-rule="evenodd" d="M15.4018 21.3984C15.5449 21.2553 15.7062 21.1303 15.8837 21.0278C16.4199 20.7191 17.0693 20.6347 17.6661 20.7966C18.0455 20.8934 18.4017 21.0934 18.688 21.3747C19.0942 21.7809 19.7461 21.7803 20.1473 21.3791L20.9304 20.596C21.3298 20.1966 21.3323 19.5466 20.9348 19.1454C20.4911 18.7066 20.2442 18.1148 20.2442 17.4835C20.2442 16.861 20.4923 16.2392 20.9398 15.8167C21.2317 15.5386 21.5829 15.3411 21.9623 15.2367C22.5098 15.088 22.8354 14.5248 22.6929 13.9799L22.416 12.873C22.3492 12.6211 22.176 12.3943 21.9423 12.2593C21.7092 12.1236 21.4267 12.0861 21.1673 12.1568C20.5586 12.3205 19.9242 12.2374 19.3799 11.9218C18.8449 11.613 18.4461 11.0905 18.2874 10.4906C18.1811 10.0968 18.1811 9.67558 18.2886 9.27809C18.4292 8.74122 18.1049 8.17936 17.563 8.03124C17.5411 8.02562 17.5193 8.01874 17.498 8.00999L16.4968 7.74125C15.9506 7.59375 15.3874 7.91812 15.2374 8.46436C15.0837 9.06309 14.7 9.57433 14.1568 9.8912C13.6162 10.2093 12.9844 10.2974 12.3763 10.1381C11.9925 10.0418 11.635 9.84057 11.3482 9.55871C11.14 9.33934 10.8732 9.22246 10.5963 9.21809C10.3207 9.21371 10.0507 9.32496 9.85507 9.52058L9.07196 10.3037C8.87822 10.4974 8.7726 10.7543 8.77197 11.0274C8.7726 11.3005 8.88009 11.5568 9.07509 11.7493C9.97569 12.6761 9.96444 14.1586 9.06009 15.063C8.76697 15.3498 8.40948 15.5511 8.02199 15.6486C7.48762 15.7954 7.16201 16.3598 7.3095 16.906L7.582 18.0248C7.72449 18.5547 8.28761 18.8804 8.83322 18.736C9.64133 18.5204 10.5132 18.7535 11.1057 19.346C11.6982 19.9385 11.9306 20.8097 11.7144 21.6197C11.57 22.1615 11.8931 22.7222 12.4356 22.8672L13.51 23.1528C13.7831 23.2309 14.0693 23.1984 14.3056 23.0659C14.5406 22.9334 14.7212 22.709 14.7962 22.4465C14.8987 22.0528 15.1118 21.6884 15.4018 21.3984ZM21.8679 21.5334L21.0848 22.3165C20.1667 23.2346 18.6736 23.2353 17.7555 22.3172C17.6411 22.2053 17.4911 22.1203 17.3286 22.079C17.0593 22.0059 16.778 22.0422 16.5462 22.1765C16.3155 22.3097 16.1431 22.5359 16.0743 22.7947C15.9006 23.4059 15.4918 23.9209 14.9506 24.2246C14.4093 24.5271 13.755 24.6015 13.1569 24.4309L12.0931 24.1484C10.8438 23.8128 10.1001 22.5253 10.4338 21.2766C10.5288 20.9228 10.4269 20.5422 10.1682 20.2835C9.90944 20.0247 9.5282 19.9222 9.17446 20.0172C7.92261 20.3491 6.63327 19.6022 6.29703 18.3535L6.02516 17.2342C5.69204 15.9998 6.43452 14.7048 7.68512 14.3667C7.85762 14.323 8.00761 14.238 8.12823 14.1199C8.5176 13.7305 8.52198 13.0836 8.13323 12.6824C7.69512 12.2493 7.44888 11.6593 7.44638 11.0305C7.44575 10.4012 7.69012 9.81058 8.13448 9.36621L8.91759 8.5831C9.36508 8.13561 9.98382 7.88437 10.6151 7.89187C11.2475 7.90187 11.86 8.17061 12.2938 8.6306C12.3956 8.72998 12.545 8.8131 12.7069 8.85497C12.975 8.92435 13.2506 8.88622 13.4856 8.74872C13.7181 8.60873 13.8881 8.38873 13.9556 8.12499C14.2987 6.86814 15.5906 6.12379 16.8412 6.46065L17.9049 6.74564C17.933 6.75377 17.9593 6.76252 17.9849 6.77314C19.1805 7.14126 19.8886 8.40186 19.5692 9.61996C19.5217 9.7962 19.5211 9.97682 19.5673 10.1481C19.6386 10.4131 19.8117 10.6399 20.0442 10.7749C20.2817 10.9124 20.5567 10.9487 20.8211 10.8768C21.4186 10.7156 22.0692 10.7999 22.6067 11.1112C23.1435 11.4218 23.5416 11.9437 23.7004 12.5436L23.9766 13.6499C24.3047 14.8917 23.5585 16.1817 22.3092 16.516C22.1429 16.561 21.9879 16.6498 21.8635 16.7679L21.8598 16.7717C21.6792 16.9523 21.5704 17.2148 21.5698 17.4842C21.5698 17.7579 21.6773 18.0154 21.8723 18.2079C22.786 19.1304 22.7817 20.6197 21.8679 21.5334Z" fill="black"/>
</g>
<path fill-rule="evenodd" clip-rule="evenodd" d="M13.8252 14.2681C13.1752 14.9181 13.1758 15.9762 13.8258 16.6262C14.4758 17.2762 15.5326 17.2755 16.1826 16.6256C16.8326 15.9756 16.8332 14.9187 16.1832 14.2687C15.5332 13.6188 14.4751 13.6181 13.8252 14.2681ZM17.1201 17.563C15.9532 18.7299 14.0552 18.7305 12.8883 17.5637C11.7215 16.3968 11.7208 14.4975 12.8877 13.3306C14.0545 12.1638 15.9539 12.1644 17.1207 13.3313C18.2876 14.4981 18.2869 16.3962 17.1201 17.563Z" fill="black"/>
</svg>
