<svg width="5" height="17" viewBox="0 0 5 17" fill="none" xmlns="http://www.w3.org/2000/svg">
<path d="M-0.000271528 14.9226C-0.000271377 16.0699 0.932019 17 2.08206 17C3.23211 17 4.16441 16.0699 4.16441 14.9226C4.16441 13.7753 3.23211 12.8452 2.08206 12.8452C0.932018 12.8452 -0.000271679 13.7753 -0.000271528 14.9226Z" fill="#F08A31"/>
<path d="M-0.000271528 8.5C-0.000271377 9.64732 0.932019 10.5774 2.08206 10.5774C3.23211 10.5774 4.16441 9.64732 4.16441 8.5C4.16441 7.35268 3.23211 6.42259 2.08206 6.42259C0.932018 6.42259 -0.000271679 7.35268 -0.000271528 8.5Z" fill="#F08A31"/>
<path d="M-0.000271528 2.07741C-0.000271377 3.22473 0.932019 4.15483 2.08206 4.15483C3.23211 4.15483 4.16441 3.22473 4.16441 2.07741C4.16441 0.930094 3.23211 1.21967e-07 2.08206 2.7242e-07C0.932018 4.22873e-07 -0.000271679 0.930095 -0.000271528 2.07741Z" fill="#F08A31"/>
</svg>
