<svg width="33" height="29" viewBox="0 0 33 29" fill="none" xmlns="http://www.w3.org/2000/svg">
<path fill-rule="evenodd" clip-rule="evenodd" d="M16.7857 7.07631C16.7857 9.92698 14.5001 12.2128 11.6474 12.2128C8.7957 12.2128 6.50909 9.92698 6.50909 7.07631C6.50909 4.22564 8.7957 1.94083 11.6474 1.94083C14.5001 1.94083 16.7857 4.22564 16.7857 7.07631ZM11.6474 21.3528C7.43733 21.3528 3.88264 20.6685 3.88264 18.0284C3.88264 15.3874 7.45966 14.7274 11.6474 14.7274C15.8585 14.7274 19.4122 15.4117 19.4122 18.0517C19.4122 20.6928 15.8352 21.3528 11.6474 21.3528Z" fill="#F08A31"/>
<circle cx="24.265" cy="19.4124" r="8.73537" fill="white"/>
<path d="M19.4122 19.6736H28.9315M19.4122 16.5005H28.9315M19.4122 22.8467H28.9315" stroke="#F08A31" stroke-width="2" stroke-linecap="round" stroke-linejoin="round"/>
</svg>
