<svg width="95" height="95" viewBox="0 0 95 95" fill="none" xmlns="http://www.w3.org/2000/svg">
<path d="M80.7307 14.2693C99.0835 32.6221 99.0835 62.3779 80.7307 80.7307C62.3779 99.0835 32.6221 99.0835 14.2693 80.7307C-4.08353 62.3779 -4.08352 32.6221 14.2693 14.2693C32.6221 -4.08351 62.3779 -4.08352 80.7307 14.2693Z" fill="#233973" stroke="#F08A31"/>
<path d="M42.9308 68.6825V41.7671C42.9358 41.7047 42.9358 41.642 42.9308 41.5795C42.8952 40.3998 42.4223 39.2755 41.604 38.4249C40.7857 37.5744 39.6805 37.0584 38.503 36.9772C37.3255 36.896 36.1599 37.2554 35.2326 37.9855C34.3053 38.7157 33.6825 39.7645 33.4853 40.9281C33.4336 41.2048 33.4072 41.4856 33.4063 41.7671V68.6825C33.4063 69.9468 33.9086 71.1594 34.8026 72.0534C35.6966 72.9474 36.9092 73.4497 38.1735 73.4497C39.4379 73.4497 40.6504 72.9474 41.5444 72.0534C42.4385 71.1594 42.9407 69.9468 42.9407 68.6825H42.9308Z" fill="white"/>
<path d="M19.575 53.8365L34.6366 38.3209C35.2187 37.7832 35.9216 37.3935 36.6861 37.1849C37.4505 36.9763 38.2539 36.9548 39.0284 37.1223C39.8029 37.2898 40.5257 37.6413 41.1356 38.1471C41.7456 38.653 42.2247 39.2982 42.5326 40.0284C42.5809 40.1437 42.6205 40.2624 42.651 40.3837C42.8379 41.0279 42.8941 41.7029 42.8164 42.3691C42.7386 43.0353 42.5286 43.6793 42.1985 44.2632C41.8684 44.847 41.4249 45.359 40.8941 45.7691C40.3634 46.1792 39.756 46.4791 39.1077 46.6511L19.575 53.8365Z" fill="white"/>
<path d="M77.3445 56.6116L62.2829 72.1272C61.7002 72.6646 60.9966 73.0538 60.2317 73.2617C59.4667 73.4696 58.663 73.4902 57.8884 73.3217C57.1138 73.1533 56.3912 72.8007 55.7817 72.2938C55.1722 71.7869 54.6938 71.1407 54.387 70.4098L54.2685 70.0644C54.0768 69.4176 54.0164 68.739 54.0911 68.0686C54.1657 67.3982 54.3738 66.7495 54.7031 66.1608C55.0325 65.5721 55.4763 65.0553 56.0085 64.6408C56.5407 64.2264 57.1505 63.9226 57.802 63.7476L77.3445 56.6116Z" fill="white"/>
<path d="M56.6665 56.6116L41.6049 72.1272C41.0222 72.6646 40.3186 73.0538 39.5537 73.2617C38.7887 73.4696 37.985 73.4902 37.2104 73.3217C36.4358 73.1533 35.7132 72.8007 35.1037 72.2938C34.4942 71.7869 34.0158 71.1407 33.709 70.4098L33.5905 70.0644C33.3988 69.4176 33.3384 68.739 33.4131 68.0686C33.4877 67.3982 33.6958 66.7495 34.0251 66.1608C34.3545 65.5721 34.7983 65.0553 35.3305 64.6408C35.8627 64.2264 36.4725 63.9226 37.124 63.7476L56.6665 56.6116Z" fill="white"/>
<path d="M54.0699 41.7641V68.6795C54.0653 68.7419 54.0653 68.8046 54.0699 68.867C54.1446 70.0952 54.6913 71.247 55.5956 72.0814C56.5 72.9158 57.6919 73.3683 58.9222 73.344C60.1524 73.3198 61.3256 72.8208 62.1964 71.9515C63.0673 71.0821 63.5682 69.9097 63.5944 68.6795V41.7641C63.5918 40.5005 63.0887 39.2895 62.1953 38.396C61.3018 37.5026 60.0908 36.9995 58.8272 36.9969C57.5645 37.0021 56.355 37.506 55.4621 38.3989C54.5692 39.2918 54.0652 40.5013 54.06 41.7641H54.0699Z" fill="white"/>
<path d="M58.8394 32.6237C62.0718 32.6237 64.6923 30.0032 64.6923 26.7708C64.6923 23.5383 62.0718 20.9179 58.8394 20.9179C55.6069 20.9179 52.9865 23.5383 52.9865 26.7708C52.9865 30.0032 55.6069 32.6237 58.8394 32.6237Z" fill="#EE7D19"/>
<path d="M38.1576 32.6237C41.3901 32.6237 44.0105 30.0032 44.0105 26.7708C44.0105 23.5383 41.3901 20.9179 38.1576 20.9179C34.9251 20.9179 32.3047 23.5383 32.3047 26.7708C32.3047 30.0032 34.9251 32.6237 38.1576 32.6237Z" fill="#EE7D19"/>
</svg>
