<svg width="31" height="31" viewBox="0 0 31 31" fill="none" xmlns="http://www.w3.org/2000/svg">
<path d="M9.74888 28.0946C21.447 28.0946 27.8454 18.4028 27.8454 9.99807C27.8454 9.72279 27.8454 9.44875 27.8268 9.17595C29.0716 8.2756 30.1461 7.1608 31 5.88375C29.8393 6.39835 28.6079 6.73568 27.347 6.88443C28.6748 6.08965 29.6685 4.83944 30.1432 3.36655C28.8947 4.10746 27.5288 4.62958 26.1045 4.91035C25.1455 3.89068 23.8773 3.21548 22.4959 2.98923C21.1146 2.76299 19.6972 2.99831 18.463 3.65879C17.2289 4.31927 16.2469 5.36808 15.6689 6.64292C15.0909 7.91777 14.9492 9.34757 15.2656 10.7111C12.737 10.5842 10.2633 9.92707 8.00505 8.78226C5.74682 7.63744 3.75457 6.03056 2.1576 4.06591C1.34427 5.46607 1.09517 7.12358 1.461 8.70096C1.82684 10.2783 2.78011 11.657 4.12672 12.5562C3.11451 12.5265 2.12434 12.2535 1.24 11.7601V11.8407C1.2404 13.3091 1.74872 14.7322 2.67875 15.8686C3.60878 17.005 4.90325 17.7847 6.3426 18.0754C5.40625 18.3308 4.4238 18.3682 3.47076 18.1846C3.87734 19.4482 4.66864 20.5533 5.73402 21.3452C6.7994 22.1371 8.08561 22.5763 9.41284 22.6014C8.09415 23.638 6.58403 24.4043 4.96888 24.8567C3.35373 25.309 1.66524 25.4385 0 25.2377C2.90862 27.1041 6.2929 28.0942 9.74888 28.0897" fill="#1DA1F2"/>
</svg>
