<svg width="16" height="16" viewBox="0 0 16 16" fill="none" xmlns="http://www.w3.org/2000/svg">
<path d="M11.833 10C11.833 10.0667 11.8197 10.1267 11.793 10.1933C11.7197 10.38 11.533 10.5 11.333 10.5L7.33301 10.5C7.05967 10.5 6.83301 10.2733 6.83301 10C6.83301 9.72667 7.05967 9.5 7.33301 9.5L10.1263 9.5L9.64634 9.02C9.45301 8.82667 9.45301 8.50667 9.64634 8.31333C9.83967 8.12 10.1597 8.12 10.353 8.31333L11.6863 9.64667C11.7797 9.74 11.833 9.87333 11.833 10Z" fill="#292D32"/>
<path d="M11.8336 10C11.8336 10.1267 11.787 10.2533 11.687 10.3533L10.3536 11.6867C10.1603 11.88 9.84029 11.88 9.64695 11.6867C9.45362 11.4933 9.45362 11.1733 9.64695 10.98L10.9803 9.64667C11.1736 9.45333 11.4936 9.45333 11.687 9.64667C11.787 9.74666 11.8336 9.87333 11.8336 10Z" fill="#292D32"/>
<path d="M15.1663 6L15.1663 10C15.1663 13.62 13.6197 15.1667 9.99967 15.1667L5.99967 15.1667C2.37967 15.1667 0.833008 13.62 0.833008 10L0.833007 6.66667C0.833007 6.39334 1.05967 6.16667 1.33301 6.16667C1.60634 6.16667 1.83301 6.39334 1.83301 6.66667L1.83301 10C1.83301 13.0733 2.92634 14.1667 5.99967 14.1667L9.99967 14.1667C13.073 14.1667 14.1663 13.0733 14.1663 10L14.1663 6C14.1663 2.92667 13.073 1.83334 9.99967 1.83334L6.66634 1.83334C6.39301 1.83334 6.16634 1.60667 6.16634 1.33334C6.16634 1.06 6.39301 0.833338 6.66634 0.833338L9.99967 0.833337C13.6197 0.833337 15.1663 2.38 15.1663 6Z" fill="#292D32"/>
<path d="M7.16633 1.33332L7.16633 3.99999C7.16633 6.27999 6.27967 7.16666 3.99967 7.16666L1.333 7.16666C1.133 7.16666 0.946334 7.04666 0.873 6.85999C0.793 6.67332 0.839667 6.45999 0.979667 6.31332L6.313 0.979989C6.453 0.839989 6.673 0.793322 6.85967 0.873322C7.04633 0.953322 7.16633 1.13332 7.16633 1.33332ZM2.53967 6.16666L3.99967 6.16666C5.71967 6.16666 6.16633 5.71999 6.16633 3.99999L6.16633 2.53999L2.53967 6.16666Z" fill="#292D32"/>
</svg>
