<svg width="16" height="16" viewBox="0 0 16 16" fill="none" xmlns="http://www.w3.org/2000/svg">
<path d="M7.85044 14.5583C6.32841 13.6182 4.91355 12.5097 3.63172 11.2531C2.7268 10.3558 2.0357 9.26031 1.61124 8.05018C0.852817 5.69015 1.73567 2.99299 4.20054 2.19226C5.50154 1.78369 6.9165 2.0345 8.00449 2.86656C9.09289 2.03543 10.5074 1.7847 11.8085 2.19226C14.2733 2.99299 15.1621 5.69015 14.4037 8.05018C13.9827 9.25917 13.2957 10.3546 12.395 11.2531C11.1121 12.5083 9.69734 13.6167 8.17632 14.5583L8.01042 14.6667L7.85044 14.5583Z" fill="white"/>
<path d="M8.00694 14.6669L7.85033 14.5585C6.32643 13.6185 4.90959 12.51 3.62569 11.2533C2.71648 10.3573 2.02126 9.26168 1.59335 8.0504C0.840858 5.69038 1.72371 2.99321 4.18858 2.19249C5.48958 1.78391 6.9232 2.03492 8.00694 2.87394V14.6669Z" fill="white"/>
<path d="M12.153 6.66615C12.0191 6.65753 11.8943 6.5906 11.8081 6.48104C11.7218 6.37149 11.6815 6.22893 11.6966 6.08677C11.7111 5.61854 11.4447 5.19234 11.0338 5.02651C10.7733 4.95539 10.6155 4.67324 10.6807 4.39499C10.7425 4.12121 10.9989 3.95098 11.2566 4.0126C11.2891 4.018 11.3204 4.02979 11.3489 4.04737C12.1727 4.36439 12.7061 5.2176 12.6637 6.1505C12.6623 6.2919 12.6072 6.42665 12.5109 6.52387C12.4146 6.62109 12.2854 6.67244 12.153 6.66615Z" fill="#E2626A"/>
</svg>
