<svg width="16" height="4" viewBox="0 0 16 4" fill="none" xmlns="http://www.w3.org/2000/svg">
<path fill-rule="evenodd" clip-rule="evenodd" d="M1.91695 -0.000183363C2.97713 -0.000183456 3.84367 0.858919 3.84367 1.92175C3.84367 2.98457 2.99438 3.84367 1.93612 3.84367L1.91695 3.84367C0.856777 3.84368 -0.000182883 2.98457 -0.000182976 1.92175C-0.000183069 0.858919 0.856777 -0.00018327 1.91695 -0.000183363Z" fill="black"/>
<path fill-rule="evenodd" clip-rule="evenodd" d="M7.99607 -0.000183363C9.05678 -0.000183456 9.92184 0.858919 9.92184 1.92175C9.92184 2.98457 9.07404 3.84367 8.01334 3.84367L7.99607 3.84367C6.93537 3.84368 6.07798 2.98457 6.07798 1.92175C6.07798 0.858919 6.93537 -0.00018327 7.99607 -0.000183363Z" fill="black"/>
<path fill-rule="evenodd" clip-rule="evenodd" d="M14.0733 -0.000183363C15.1335 -0.000183456 16 0.858919 16 1.92175C16 2.98457 15.1507 3.84367 14.0905 3.84367L14.0733 3.84367C13.0131 3.84368 12.1561 2.98457 12.1561 1.92175C12.1561 0.858919 13.0131 -0.00018327 14.0733 -0.000183363Z" fill="black"/>
</svg>
