<svg width="4" height="18" viewBox="0 0 4 18" fill="none" xmlns="http://www.w3.org/2000/svg">
<path fill-rule="evenodd" clip-rule="evenodd" d="M3.6 1.79552C3.6 2.78843 2.7954 3.60001 1.8 3.60001C0.8046 3.60001 -3.47685e-08 2.80459 -7.80919e-08 1.81347L-7.88767e-08 1.79552C-1.22279e-07 0.8026 0.8046 6.40213e-06 1.8 6.35862e-06C2.7954 6.31511e-06 3.6 0.8026 3.6 1.79552Z" fill="white"/>
<path fill-rule="evenodd" clip-rule="evenodd" d="M3.6 8.99639C3.6 9.98981 2.7954 10.8 1.8 10.8C0.8046 10.8 -3.47074e-08 10.006 -7.81308e-08 9.01256L-7.88375e-08 8.9964C-1.22261e-07 8.00298 0.8046 7.19999 1.8 7.19999C2.7954 7.19999 3.6 8.00298 3.6 8.99639Z" fill="white"/>
<path fill-rule="evenodd" clip-rule="evenodd" d="M3.6 16.1955C3.6 17.1884 2.7954 18 1.8 18C0.8046 18 -3.47685e-08 17.2046 -7.81703e-08 16.2117L-7.88767e-08 16.1955C-1.22279e-07 15.2026 0.8046 14.4 1.8 14.4C2.7954 14.4 3.6 15.2026 3.6 16.1955Z" fill="white"/>
</svg>
