<svg width="23" height="23" viewBox="0 0 23 23" fill="none" xmlns="http://www.w3.org/2000/svg">
<path d="M11.5003 15.5732C8.98949 15.5732 6.94824 13.532 6.94824 11.0212V5.75033C6.94824 3.23949 8.98949 1.19824 11.5003 1.19824C14.0112 1.19824 16.0524 3.23949 16.0524 5.75033V11.0212C16.0524 13.532 14.0112 15.5732 11.5003 15.5732ZM11.5003 2.63574C9.78491 2.63574 8.38574 4.03491 8.38574 5.75033V11.0212C8.38574 12.7366 9.78491 14.1357 11.5003 14.1357C13.2157 14.1357 14.6149 12.7366 14.6149 11.0212V5.75033C14.6149 4.03491 13.2157 2.63574 11.5003 2.63574Z" fill="white"/>
<path d="M11.5002 18.9272C7.06311 18.9272 3.4502 15.3143 3.4502 10.8772V9.24805C3.4502 8.85513 3.77603 8.5293 4.16895 8.5293C4.56186 8.5293 4.8877 8.85513 4.8877 9.24805V10.8772C4.8877 14.5189 7.85853 17.4897 11.5002 17.4897C15.1419 17.4897 18.1127 14.5189 18.1127 10.8772V9.24805C18.1127 8.85513 18.4385 8.5293 18.8314 8.5293C19.2244 8.5293 19.5502 8.85513 19.5502 9.24805V10.8772C19.5502 15.3143 15.9373 18.9272 11.5002 18.9272Z" fill="white"/>
<path d="M12.8319 6.88048C12.7552 6.88048 12.669 6.8709 12.5827 6.84215C11.8831 6.5834 11.1165 6.5834 10.4169 6.84215C10.0431 6.97631 9.63105 6.78465 9.49688 6.4109C9.36272 6.03715 9.55438 5.62507 9.92813 5.4909C10.944 5.12673 12.0652 5.12673 13.0811 5.4909C13.4548 5.62507 13.6465 6.03715 13.5123 6.4109C13.3973 6.6984 13.1194 6.88048 12.8319 6.88048Z" fill="white"/>
<path d="M12.2663 8.91215C12.1992 8.91215 12.1418 8.90257 12.0747 8.8834C11.6913 8.77798 11.2984 8.77798 10.9151 8.8834C10.5318 8.98882 10.1388 8.75882 10.0334 8.37548C9.928 8.00173 10.158 7.60882 10.5413 7.5034C11.1642 7.3309 11.8351 7.3309 12.458 7.5034C12.8413 7.60882 13.0713 8.00173 12.9659 8.38507C12.8797 8.70132 12.5826 8.91215 12.2663 8.91215Z" fill="white"/>
<path d="M11.5 21.8018C11.1071 21.8018 10.7812 21.4759 10.7812 21.083V18.208C10.7812 17.8151 11.1071 17.4893 11.5 17.4893C11.8929 17.4893 12.2188 17.8151 12.2188 18.208V21.083C12.2188 21.4759 11.8929 21.8018 11.5 21.8018Z" fill="white"/>
</svg>
