<svg width="21" height="21" viewBox="0 0 21 21" fill="none" xmlns="http://www.w3.org/2000/svg">
<path fill-rule="evenodd" clip-rule="evenodd" d="M10.5 3.0625C6.39888 3.0625 3.0625 6.39888 3.0625 10.5C3.0625 14.6011 6.39888 17.9375 10.5 17.9375C14.6011 17.9375 17.9375 14.6011 17.9375 10.5C17.9375 6.39888 14.6011 3.0625 10.5 3.0625ZM10.5 19.25C5.67525 19.25 1.75 15.3247 1.75 10.5C1.75 5.67525 5.67525 1.75 10.5 1.75C15.3247 1.75 19.25 5.67525 19.25 10.5C19.25 15.3247 15.3247 19.25 10.5 19.25Z" fill="black"/>
<path fill-rule="evenodd" clip-rule="evenodd" d="M9.23871 14.1931C9.07071 14.1931 8.90184 14.1292 8.77409 13.9997C8.51859 13.7425 8.51946 13.3277 8.77584 13.0722L11.3588 10.4997L8.77584 7.92811C8.51946 7.67261 8.51859 7.25699 8.77409 6.99974C9.02959 6.74161 9.44434 6.74336 9.70159 6.99799L12.7518 10.0351C12.8752 10.1585 12.9443 10.3256 12.9443 10.4997C12.9443 10.6747 12.8752 10.8419 12.7518 10.9652L9.70159 14.0015C9.57384 14.1292 9.40584 14.1931 9.23871 14.1931Z" fill="black"/>
</svg>
