<svg width="22" height="22" viewBox="0 0 22 22" fill="none" xmlns="http://www.w3.org/2000/svg">
<path d="M18.792 9.34148H16.1428C13.9703 9.34148 12.2012 7.57232 12.2012 5.39982V2.75065C12.2012 2.24648 11.7887 1.83398 11.2845 1.83398H7.39783C4.57449 1.83398 2.29199 3.66732 2.29199 6.93982V15.0615C2.29199 18.334 4.57449 20.1673 7.39783 20.1673H14.6028C17.4262 20.1673 19.7087 18.334 19.7087 15.0615V10.2582C19.7087 9.75398 19.2962 9.34148 18.792 9.34148ZM11.257 14.4657L9.42366 16.299C9.35949 16.3632 9.27699 16.4182 9.19449 16.4457C9.11199 16.4823 9.02949 16.5007 8.93783 16.5007C8.84616 16.5007 8.76366 16.4823 8.68116 16.4457C8.60783 16.4182 8.53449 16.3632 8.47949 16.3082C8.47033 16.299 8.46116 16.299 8.46116 16.2898L6.62783 14.4565C6.36199 14.1907 6.36199 13.7507 6.62783 13.4848C6.89366 13.219 7.33366 13.219 7.59949 13.4848L8.25033 14.154V10.3132C8.25033 9.93732 8.56199 9.62565 8.93783 9.62565C9.31366 9.62565 9.62533 9.93732 9.62533 10.3132V14.154L10.2853 13.494C10.5512 13.2282 10.9912 13.2282 11.257 13.494C11.5228 13.7598 11.5228 14.1998 11.257 14.4657Z" fill="#292D32"/>
<path d="M15.9779 8.07627C16.8487 8.08544 18.0587 8.08544 19.0945 8.08544C19.617 8.08544 19.892 7.47127 19.5254 7.10461C18.2054 5.77544 15.8404 3.38294 14.4837 2.02627C14.1079 1.65044 13.457 1.90711 13.457 2.42961V5.62877C13.457 6.96711 14.5937 8.07627 15.9779 8.07627Z" fill="#292D32"/>
</svg>
