<svg width="31" height="32" viewBox="0 0 31 32" fill="none" xmlns="http://www.w3.org/2000/svg">
<g clip-path="url(#clip0_498_18607)">
<path d="M30.4699 16.3378C30.4699 15.2522 30.3854 14.1607 30.2052 13.0928H15.7453V19.2425H24.0258C23.6822 21.2259 22.5781 22.9804 20.9614 24.0954V28.0856H25.9016C28.8025 25.3042 30.4699 21.1966 30.4699 16.3378Z" fill="#4285F4"/>
<path d="M15.7451 31.941C19.8797 31.941 23.3665 30.5268 25.907 28.0856L20.9669 24.0954C19.5924 25.0695 17.818 25.6211 15.7507 25.6211C11.7513 25.6211 8.36024 22.8103 7.14354 19.0312H2.04567V23.1448C4.64811 28.5375 9.94875 31.941 15.7451 31.941Z" fill="#34A853"/>
<path d="M7.13796 19.0312C6.49578 17.0478 6.49578 14.9001 7.13796 12.9167V8.8032H2.04572C-0.12861 13.3158 -0.12861 18.6322 2.04572 23.1447L7.13796 19.0312Z" fill="#FBBC04"/>
<path d="M15.7451 6.32099C17.9307 6.28577 20.0431 7.14251 21.6259 8.71515L26.0028 4.15565C23.2314 1.44462 19.553 -0.0458682 15.7451 0.00107619C9.94875 0.00107619 4.64811 3.40455 2.04567 8.80317L7.13788 12.9167C8.34899 9.13177 11.7457 6.32099 15.7451 6.32099Z" fill="#EA4335"/>
</g>
<defs>
<clipPath id="clip0_498_18607">
<rect width="30.9999" height="31.9607" fill="white"/>
</clipPath>
</defs>
</svg>
