<svg width="18" height="18" viewBox="0 0 18 18" fill="none" xmlns="http://www.w3.org/2000/svg">
<path d="M8.62435 16.3121C4.38696 16.3121 0.93706 12.8621 0.93706 8.62476C0.93706 4.38738 4.38696 0.937479 8.62435 0.937479C8.93184 0.937479 9.18683 1.19247 9.18683 1.49996C9.18683 1.80745 8.93184 2.06245 8.62435 2.06245C5.00195 2.06245 2.06203 5.00987 2.06203 8.62476C2.06203 12.2397 5.00195 15.1871 8.62435 15.1871C12.2467 15.1871 15.1867 12.2397 15.1867 8.62476C15.1867 8.31727 15.4417 8.06228 15.7491 8.06228C16.0566 8.06228 16.3116 8.31727 16.3116 8.62476C16.3116 12.8621 12.8617 16.3121 8.62435 16.3121Z" fill="#494949"/>
<path d="M16.4999 17.062C16.3575 17.062 16.215 17.0095 16.1025 16.897L14.6025 15.3971C14.385 15.1796 14.385 14.8196 14.6025 14.6021C14.82 14.3846 15.18 14.3846 15.3975 14.6021L16.8974 16.102C17.1149 16.3195 17.1149 16.6795 16.8974 16.897C16.7849 17.0095 16.6424 17.062 16.4999 17.062Z" fill="#494949"/>
<path d="M13.1251 7.1548C12.4351 7.1548 10.8301 6.31483 10.3351 4.76987C9.99766 3.7124 10.3876 2.32494 11.6101 1.92745C12.1351 1.75495 12.6826 1.83745 13.1176 2.11494C13.5451 1.83745 14.1075 1.76245 14.6325 1.92745C15.855 2.32494 16.2525 3.7124 15.9075 4.76987C15.42 6.34482 13.7326 7.1548 13.1251 7.1548ZM11.4076 4.43238C11.7526 5.51985 12.9226 6.01483 13.1326 6.03733C13.3726 6.01483 14.52 5.45985 14.835 4.43988C15.0075 3.89239 14.835 3.18741 14.2875 3.00742C14.055 2.93242 13.7401 2.97742 13.5901 3.19491C13.4851 3.35241 13.3201 3.44241 13.1326 3.4499C12.9676 3.4574 12.7726 3.36741 12.6676 3.21741C12.4951 2.96992 12.1801 2.93242 11.9551 2.99992C11.4151 3.17991 11.2351 3.88489 11.4076 4.43238Z" fill="#494949"/>
</svg>
