<svg width="20" height="20" viewBox="0 0 20 20" fill="none" xmlns="http://www.w3.org/2000/svg">
<path d="M17.4993 6.45833C17.1577 6.45833 16.8743 6.175 16.8743 5.83333V3.125H14.166C13.8243 3.125 13.541 2.84167 13.541 2.5C13.541 2.15833 13.8243 1.875 14.166 1.875H17.4993C17.841 1.875 18.1243 2.15833 18.1243 2.5V5.83333C18.1243 6.175 17.841 6.45833 17.4993 6.45833Z" fill="white"/>
<path d="M12.4999 8.12489C12.3416 8.12489 12.1832 8.06659 12.0582 7.94159C11.8165 7.69992 11.8165 7.29987 12.0582 7.0582L17.0582 2.0582C17.2999 1.81654 17.6999 1.81654 17.9416 2.0582C18.1833 2.29987 18.1833 2.69992 17.9416 2.94159L12.9416 7.94159C12.8166 8.06659 12.6582 8.12489 12.4999 8.12489Z" fill="white"/>
<path d="M5.83333 18.1251H2.5C2.15833 18.1251 1.875 17.8417 1.875 17.5001V14.1667C1.875 13.8251 2.15833 13.5417 2.5 13.5417C2.84167 13.5417 3.125 13.8251 3.125 14.1667V16.8751H5.83333C6.175 16.8751 6.45833 17.1584 6.45833 17.5001C6.45833 17.8417 6.175 18.1251 5.83333 18.1251Z" fill="white"/>
<path d="M2.49989 18.1249C2.34156 18.1249 2.1832 18.0666 2.0582 17.9416C1.81654 17.6999 1.81654 17.2999 2.0582 17.0582L7.0582 12.0582C7.29987 11.8165 7.69992 11.8165 7.94159 12.0582C8.18325 12.2999 8.18325 12.6999 7.94159 12.9416L2.94159 17.9416C2.81659 18.0666 2.65823 18.1249 2.49989 18.1249Z" fill="white"/>
<path d="M1.83269 12.2917C1.54103 12.2917 1.28266 12.0834 1.22432 11.7918C1.10766 11.2084 1.04102 10.6001 1.04102 10.0001C1.04102 5.05841 5.05768 1.04175 9.99935 1.04175C10.6077 1.04175 11.216 1.10006 11.8077 1.22506C12.1493 1.29172 12.366 1.62506 12.2994 1.95839C12.2327 2.30006 11.891 2.50842 11.566 2.45008C11.0577 2.35008 10.5327 2.29175 10.0077 2.29175C5.75769 2.29175 2.29936 5.75008 2.29936 10.0001C2.29936 10.5167 2.34936 11.0417 2.45769 11.5417C2.52436 11.8834 2.30767 12.2084 1.966 12.2751C1.916 12.2917 1.87436 12.2917 1.83269 12.2917Z" fill="white"/>
<path d="M9.99954 18.9582C9.39121 18.9582 8.78289 18.8999 8.19122 18.7749C7.84956 18.7083 7.63287 18.3749 7.69954 18.0416C7.7662 17.6999 8.10787 17.4916 8.43287 17.5499C8.94121 17.6499 9.4662 17.7082 9.9912 17.7082C14.2412 17.7082 17.6995 14.2499 17.6995 9.99991C17.6995 9.48325 17.6495 8.9666 17.5495 8.45827C17.4829 8.1166 17.6996 7.79159 18.0412 7.72493C18.3746 7.65826 18.7079 7.8749 18.7746 8.21657C18.8912 8.7999 18.9495 9.39991 18.9495 9.99991C18.9579 14.9416 14.9412 18.9582 9.99954 18.9582Z" fill="white"/>
</svg>
