<svg width="24" height="24" viewBox="0 0 24 24" fill="none" xmlns="http://www.w3.org/2000/svg">
<path fill-rule="evenodd" clip-rule="evenodd" d="M4.54 2H7.92C9.33 2 10.46 3.15 10.46 4.561V7.97C10.46 9.39 9.33 10.53 7.92 10.53H4.54C3.14 10.53 2 9.39 2 7.97V4.561C2 3.15 3.14 2 4.54 2ZM16.0801 13.4697H19.4601C20.8601 13.4697 22.0001 14.6107 22.0001 16.0307V19.4397C22.0001 20.8497 20.8601 21.9997 19.4601 21.9997H16.0801C14.6701 21.9997 13.5401 20.8497 13.5401 19.4397V16.0307C13.5401 14.6107 14.6701 13.4697 16.0801 13.4697Z" fill="#F08A31"/>
</svg>
