<svg width="173" height="20" viewBox="0 0 173 20" fill="none" xmlns="http://www.w3.org/2000/svg">
<circle cx="6.5" cy="10.5" r="6.5" fill="#D9D9D9"/>
<line x1="21" y1="3" x2="21" y2="17" stroke="#D9D9D9" stroke-width="2" stroke-linecap="round"/>
<line x1="27" y1="6" x2="27" y2="14" stroke="#D9D9D9" stroke-width="2" stroke-linecap="round"/>
<line x1="33" y1="6" x2="33" y2="14" stroke="#D9D9D9" stroke-width="2" stroke-linecap="round"/>
<line x1="39" y1="1" x2="39" y2="19" stroke="#D9D9D9" stroke-width="2" stroke-linecap="round"/>
<line x1="100" y1="1" x2="100" y2="19" stroke="#D9D9D9" stroke-width="2" stroke-linecap="round"/>
<line x1="106" y1="6" x2="106" y2="14" stroke="#D9D9D9" stroke-width="2" stroke-linecap="round"/>
<line x1="112" y1="6" x2="112" y2="14" stroke="#D9D9D9" stroke-width="2" stroke-linecap="round"/>
<line x1="118" y1="3" x2="118" y2="17" stroke="#D9D9D9" stroke-width="2" stroke-linecap="round"/>
<line x1="46" y1="6" x2="46" y2="14" stroke="#D9D9D9" stroke-width="2" stroke-linecap="round"/>
<line x1="52" y1="6" x2="52" y2="14" stroke="#D9D9D9" stroke-width="2" stroke-linecap="round"/>
<line x1="58" y1="1" x2="58" y2="19" stroke="#D9D9D9" stroke-width="2" stroke-linecap="round"/>
<line x1="65" y1="6" x2="65" y2="14" stroke="#D9D9D9" stroke-width="2" stroke-linecap="round"/>
<line x1="71" y1="6" x2="71" y2="14" stroke="#D9D9D9" stroke-width="2" stroke-linecap="round"/>
<line x1="77" y1="3" x2="77" y2="17" stroke="#D9D9D9" stroke-width="2" stroke-linecap="round"/>
<line x1="142" y1="6" x2="142" y2="14" stroke="#D9D9D9" stroke-width="2" stroke-linecap="round"/>
<line x1="148" y1="6" x2="148" y2="14" stroke="#D9D9D9" stroke-width="2" stroke-linecap="round"/>
<line x1="154" y1="3" x2="154" y2="17" stroke="#D9D9D9" stroke-width="2" stroke-linecap="round"/>
<line x1="83" y1="6" x2="83" y2="14" stroke="#D9D9D9" stroke-width="2" stroke-linecap="round"/>
<line x1="89" y1="6" x2="89" y2="14" stroke="#D9D9D9" stroke-width="2" stroke-linecap="round"/>
<line x1="95" y1="3" x2="95" y2="17" stroke="#D9D9D9" stroke-width="2" stroke-linecap="round"/>
<line x1="160" y1="6" x2="160" y2="14" stroke="#D9D9D9" stroke-width="2" stroke-linecap="round"/>
<line x1="166" y1="6" x2="166" y2="14" stroke="#D9D9D9" stroke-width="2" stroke-linecap="round"/>
<line x1="172" y1="3" x2="172" y2="17" stroke="#D9D9D9" stroke-width="2" stroke-linecap="round"/>
<line x1="123" y1="6" x2="123" y2="14" stroke="#D9D9D9" stroke-width="2" stroke-linecap="round"/>
<line x1="129" y1="6" x2="129" y2="14" stroke="#D9D9D9" stroke-width="2" stroke-linecap="round"/>
<line x1="135" y1="3" x2="135" y2="17" stroke="#D9D9D9" stroke-width="2" stroke-linecap="round"/>
</svg>
