<svg width="13" height="13" viewBox="0 0 13 13" fill="none" xmlns="http://www.w3.org/2000/svg">
<path d="M7.25793 9.43563H5.89835C5.01001 9.43563 4.2896 8.68813 4.2896 7.7673C4.2896 7.54521 4.47376 7.36105 4.69585 7.36105C4.91793 7.36105 5.1021 7.54521 5.1021 7.7673C5.1021 8.23855 5.4596 8.62313 5.89835 8.62313H7.25793C7.61001 8.62313 7.90251 8.30896 7.90251 7.9298C7.90251 7.45855 7.7346 7.36646 7.45835 7.26896L5.27543 6.4998C4.85293 6.35355 4.28418 6.03938 4.28418 5.0698C4.28418 4.23563 4.9396 3.56396 5.74126 3.56396H7.10085C7.98918 3.56396 8.7096 4.31146 8.7096 5.2323C8.7096 5.45438 8.52543 5.63855 8.30335 5.63855C8.08126 5.63855 7.8971 5.45438 7.8971 5.2323C7.8971 4.76105 7.5396 4.37646 7.10085 4.37646H5.74126C5.38918 4.37646 5.09668 4.69063 5.09668 5.0698C5.09668 5.54105 5.2646 5.63313 5.54085 5.73063L7.72376 6.4998C8.14626 6.64605 8.71501 6.96021 8.71501 7.9298C8.7096 8.75855 8.0596 9.43563 7.25793 9.43563Z" fill="#8C8C8C"/>
<path d="M6.5 10.1563C6.27792 10.1563 6.09375 9.97208 6.09375 9.75V3.25C6.09375 3.02792 6.27792 2.84375 6.5 2.84375C6.72208 2.84375 6.90625 3.02792 6.90625 3.25V9.75C6.90625 9.97208 6.72208 10.1563 6.5 10.1563Z" fill="#8C8C8C"/>
<path d="M6.49967 12.3231C3.28759 12.3231 0.676758 9.71225 0.676758 6.50016C0.676758 3.28808 3.28759 0.677246 6.49967 0.677246C9.71176 0.677246 12.3226 3.28808 12.3226 6.50016C12.3226 9.71225 9.71176 12.3231 6.49967 12.3231ZM6.49967 1.48975C3.73717 1.48975 1.48926 3.73766 1.48926 6.50016C1.48926 9.26266 3.73717 11.5106 6.49967 11.5106C9.26217 11.5106 11.5101 9.26266 11.5101 6.50016C11.5101 3.73766 9.26217 1.48975 6.49967 1.48975Z" fill="#8C8C8C"/>
</svg>
