<svg width="22" height="22" viewBox="0 0 22 22" fill="none" xmlns="http://www.w3.org/2000/svg">
<path d="M10.9997 19.8458C10.7155 19.8458 10.4405 19.8092 10.2113 19.7267C6.70967 18.5258 1.14551 14.2633 1.14551 7.96583C1.14551 4.75749 3.73967 2.15416 6.92967 2.15416C8.47884 2.15416 9.92717 2.75916 10.9997 3.84083C12.0722 2.75916 13.5205 2.15416 15.0697 2.15416C18.2597 2.15416 20.8538 4.76666 20.8538 7.96583C20.8538 14.2725 15.2897 18.5258 11.788 19.7267C11.5588 19.8092 11.2838 19.8458 10.9997 19.8458ZM6.92967 3.52916C4.50051 3.52916 2.52051 5.51833 2.52051 7.96583C2.52051 14.2267 8.54301 17.71 10.6605 18.4342C10.8255 18.4892 11.183 18.4892 11.348 18.4342C13.4563 17.71 19.488 14.2358 19.488 7.96583C19.488 5.51833 17.508 3.52916 15.0788 3.52916C13.6855 3.52916 12.393 4.17999 11.5588 5.30749C11.3022 5.65583 10.7155 5.65583 10.4588 5.30749C9.60634 4.17083 8.32301 3.52916 6.92967 3.52916Z" fill="black"/>
</svg>
