<svg width="360" height="105" viewBox="0 0 360 105" fill="none" xmlns="http://www.w3.org/2000/svg">
<g filter="url(#filter0_d_796_24608)">
<path d="M0 102.676C14.0488 96.8476 45.6585 88.6871 59.7073 102.676C77.2683 120.163 86.0488 32.7295 89.561 47.526C93.0732 62.3224 93.0732 105.367 105.366 94.6058C115.2 85.997 121.171 75.774 122.927 71.7386C125.854 66.8065 132.41 64.4749 135.22 94.6058C138.732 132.269 170.341 -23.7655 179.122 3.13706C187.902 30.0396 193.171 110.748 200.195 94.6058C207.22 78.4641 214.244 24.6589 223.024 51.5615C231.805 78.4641 240.585 95.9513 245.854 71.7386C251.122 47.526 265.171 3.13688 268.683 32.7297C272.195 62.3225 270.439 93.2603 277.463 82.4994C284.488 71.7386 319.61 21.9687 360 23.3138" stroke="#F0D131" stroke-width="1.5"/>
</g>
<defs>
<filter id="filter0_d_796_24608" x="-6.28711" y="-2.75281" width="372.312" height="118.504" filterUnits="userSpaceOnUse" color-interpolation-filters="sRGB">
<feFlood flood-opacity="0" result="BackgroundImageFix"/>
<feColorMatrix in="SourceAlpha" type="matrix" values="0 0 0 0 0 0 0 0 0 0 0 0 0 0 0 0 0 0 127 0" result="hardAlpha"/>
<feOffset dy="4"/>
<feGaussianBlur stdDeviation="3"/>
<feComposite in2="hardAlpha" operator="out"/>
<feColorMatrix type="matrix" values="0 0 0 0 0.941176 0 0 0 0 0.819608 0 0 0 0 0.192157 0 0 0 0.4 0"/>
<feBlend mode="normal" in2="BackgroundImageFix" result="effect1_dropShadow_796_24608"/>
<feBlend mode="normal" in="SourceGraphic" in2="effect1_dropShadow_796_24608" result="shape"/>
</filter>
</defs>
</svg>
