<svg width="143" height="17" viewBox="0 0 143 17" fill="none" xmlns="http://www.w3.org/2000/svg">
<circle cx="5.35965" cy="8.65799" r="5.35965" fill="#5B5B5B"/>
<line x1="17.4912" y1="2.64893" x2="17.4912" y2="13.8419" stroke="#5B5B5B" stroke-width="2" stroke-linecap="round"/>
<line x1="22.4385" y1="5.12256" x2="22.4385" y2="11.3682" stroke="#5B5B5B" stroke-width="2" stroke-linecap="round"/>
<line x1="27.3857" y1="5.12256" x2="27.3857" y2="11.3682" stroke="#5B5B5B" stroke-width="2" stroke-linecap="round"/>
<line x1="32.333" y1="1" x2="32.333" y2="15.4912" stroke="#5B5B5B" stroke-width="2" stroke-linecap="round"/>
<line x1="82.6309" y1="1" x2="82.6309" y2="15.4912" stroke="#D9D9D9" stroke-width="2" stroke-linecap="round"/>
<line x1="87.5781" y1="5.12305" x2="87.5781" y2="11.3687" stroke="#D9D9D9" stroke-width="2" stroke-linecap="round"/>
<line x1="92.5254" y1="5.12305" x2="92.5254" y2="11.3687" stroke="#D9D9D9" stroke-width="2" stroke-linecap="round"/>
<line x1="97.4727" y1="2.64893" x2="97.4727" y2="13.8419" stroke="#D9D9D9" stroke-width="2" stroke-linecap="round"/>
<line x1="38.1055" y1="5.12256" x2="38.1055" y2="11.3682" stroke="#5B5B5B" stroke-width="2" stroke-linecap="round"/>
<line x1="43.0527" y1="5.12256" x2="43.0527" y2="11.3682" stroke="#5B5B5B" stroke-width="2" stroke-linecap="round"/>
<line x1="48" y1="1" x2="48" y2="15.4912" stroke="#5B5B5B" stroke-width="2" stroke-linecap="round"/>
<line x1="53.7725" y1="5.12256" x2="53.7725" y2="11.3682" stroke="#5B5B5B" stroke-width="2" stroke-linecap="round"/>
<line x1="58.7197" y1="5.12256" x2="58.7197" y2="11.3682" stroke="#D9D9D9" stroke-width="2" stroke-linecap="round"/>
<line x1="63.667" y1="2.64893" x2="63.667" y2="13.8419" stroke="#D9D9D9" stroke-width="2" stroke-linecap="round"/>
<line x1="117.264" y1="5.12256" x2="117.264" y2="11.3682" stroke="#D9D9D9" stroke-width="2" stroke-linecap="round"/>
<line x1="122.211" y1="5.12256" x2="122.211" y2="11.3682" stroke="#D9D9D9" stroke-width="2" stroke-linecap="round"/>
<line x1="127.158" y1="2.64893" x2="127.158" y2="13.8419" stroke="#D9D9D9" stroke-width="2" stroke-linecap="round"/>
<line x1="68.6143" y1="5.12256" x2="68.6143" y2="11.3682" stroke="#D9D9D9" stroke-width="2" stroke-linecap="round"/>
<line x1="73.5615" y1="5.12256" x2="73.5615" y2="11.3682" stroke="#D9D9D9" stroke-width="2" stroke-linecap="round"/>
<line x1="78.5088" y1="2.64893" x2="78.5088" y2="13.8419" stroke="#D9D9D9" stroke-width="2" stroke-linecap="round"/>
<line x1="132.105" y1="5.12256" x2="132.105" y2="11.3682" stroke="#D9D9D9" stroke-width="2" stroke-linecap="round"/>
<line x1="137.053" y1="5.12256" x2="137.053" y2="11.3682" stroke="#D9D9D9" stroke-width="2" stroke-linecap="round"/>
<line x1="142" y1="2.64893" x2="142" y2="13.8419" stroke="#D9D9D9" stroke-width="2" stroke-linecap="round"/>
<line x1="101.597" y1="5.12256" x2="101.597" y2="11.3682" stroke="#D9D9D9" stroke-width="2" stroke-linecap="round"/>
<line x1="106.544" y1="5.12256" x2="106.544" y2="11.3682" stroke="#D9D9D9" stroke-width="2" stroke-linecap="round"/>
<line x1="111.491" y1="2.64893" x2="111.491" y2="13.8419" stroke="#D9D9D9" stroke-width="2" stroke-linecap="round"/>
</svg>
