<svg width="16" height="20" viewBox="0 0 16 20" fill="none" xmlns="http://www.w3.org/2000/svg">
<path d="M13.5867 10.2785C13.5892 7.50258 11.3494 5.16905 8.38648 4.86058C5.4236 4.55211 2.6854 6.36729 2.02885 9.07492C1.37266 11.7829 3.00849 14.5168 5.82647 15.4229V19.5H9.64591V15.4226C10.7958 15.0532 11.7933 14.3592 12.4997 13.4372C13.206 12.5151 13.586 11.411 13.5867 10.2785Z" fill="white"/>
<path d="M5.22252 16.9586H10.3085V18.8071H5.22252V16.9586ZM7.73637 0.5V1.77053V0.5ZM14.7642 3.01208L13.8983 3.99413L14.7642 3.01208ZM0.5 3.01208L1.36586 3.99413L0.5 3.01208Z" fill="#D1D3D4"/>
<path d="M7.73637 0.5V1.77053M14.7642 3.01208L13.8983 3.99413M0.5 3.01208L1.36586 3.99413M13.5867 10.2785C13.5892 7.50258 11.3494 5.16905 8.38648 4.86058C5.4236 4.55211 2.6854 6.36729 2.02885 9.07492C1.37266 11.7829 3.00849 14.5168 5.82647 15.4229V19.5H9.64591V15.4226C10.7958 15.0532 11.7933 14.3592 12.4997 13.4372C13.206 12.5151 13.586 11.411 13.5867 10.2785ZM5.22252 16.9586H10.3085V18.8071H5.22252V16.9586Z" stroke="#929292" stroke-linecap="round" stroke-linejoin="round"/>
</svg>
