<svg width="18" height="7" viewBox="0 0 18 7" fill="none" xmlns="http://www.w3.org/2000/svg">
<path d="M3.67757 7C3.41854 7 3.15951 6.90905 2.95501 6.71415L0.296524 4.18051C-0.0988412 3.80371 -0.0988412 3.18005 0.296524 2.80325C0.691888 2.42645 1.34628 2.42645 1.74165 2.80325L3.67757 4.64826L8.25835 0.282599C8.65372 -0.0941995 9.30811 -0.0941995 9.70348 0.282599C10.0988 0.659397 10.0988 1.28306 9.70348 1.65986L4.3865 6.71415C4.19564 6.89605 3.9366 7 3.67757 7Z" fill="#3E6FCF"/>
<path d="M11.4738 7C11.2148 7 10.9557 6.90905 10.7512 6.71415L8.09278 4.18051C7.99919 4 8.09323 3.93391 8.43113 3.5C8.82645 3.1232 9.46875 2.80325 9.53788 2.80325L11.4738 4.64826L16.0545 0.282599C16.4498 -0.0941995 17.1042 -0.0941995 17.4995 0.282599C17.8949 0.659397 17.8949 1.28306 17.4995 1.65986L12.1827 6.71415C11.9918 6.89605 11.7328 7 11.4738 7Z" fill="#3E6FCF"/>
</svg>
