<svg width="20" height="21" viewBox="0 0 20 21" fill="none" xmlns="http://www.w3.org/2000/svg">
<path fill-rule="evenodd" clip-rule="evenodd" d="M11.4312 13.9427C12.6059 13.9427 13.562 14.892 13.562 16.0588V19.0598C13.562 19.3105 13.763 19.5115 14.0205 19.5174H15.88C17.3454 19.5174 18.5366 18.3408 18.5366 16.8949V8.38369C18.5298 7.88613 18.2927 7.41783 17.8859 7.10661L11.4537 1.97685C10.5903 1.29294 9.38246 1.29294 8.51612 1.9788L2.12781 7.10466C1.70537 7.42564 1.4683 7.89393 1.46342 8.40027V16.8949C1.46342 18.3408 2.65464 19.5174 4.12001 19.5174H5.99709C6.26148 19.5174 6.47611 19.3076 6.47611 19.0501C6.47611 18.9935 6.48294 18.9369 6.49465 18.8832V16.0588C6.49465 14.8988 7.44489 13.9505 8.61075 13.9427H11.4312ZM15.88 20.9808H14.003C12.9278 20.9554 12.0986 20.1115 12.0986 19.0598V16.0588C12.0986 15.6988 11.799 15.4061 11.4312 15.4061H8.61563C8.25563 15.4081 7.95806 15.7017 7.95806 16.0588V19.05C7.95806 19.1232 7.94831 19.1935 7.92782 19.2598C7.82246 20.2257 6.99709 20.9808 5.99709 20.9808H4.12001C1.84781 20.9808 0 19.1476 0 16.8949V8.39343C0.00975612 7.42367 0.456586 6.53587 1.2283 5.95148L7.60392 0.834392C9.00782 -0.277805 10.9639 -0.277805 12.3649 0.832441L18.7864 5.9544C19.5405 6.52904 19.9874 7.41489 20 8.37295V16.8949C20 19.1476 18.1522 20.9808 15.88 20.9808Z" fill="#9A9A9A"/>
</svg>
