<svg width="22" height="22" viewBox="0 0 22 22" fill="none" xmlns="http://www.w3.org/2000/svg">
<path d="M10.5423 19.9375C5.36315 19.9375 1.14648 15.7209 1.14648 10.5417C1.14648 5.36254 5.36315 1.14587 10.5423 1.14587C15.7215 1.14587 19.9382 5.36254 19.9382 10.5417C19.9382 15.7209 15.7215 19.9375 10.5423 19.9375ZM10.5423 2.52087C6.11482 2.52087 2.52148 6.12337 2.52148 10.5417C2.52148 14.96 6.11482 18.5625 10.5423 18.5625C14.9698 18.5625 18.5632 14.96 18.5632 10.5417C18.5632 6.12337 14.9698 2.52087 10.5423 2.52087Z" fill="#292D32"/>
<path d="M20.167 20.8541C19.9928 20.8541 19.8186 20.7899 19.6811 20.6524L17.8478 18.8191C17.582 18.5533 17.582 18.1133 17.8478 17.8474C18.1136 17.5816 18.5536 17.5816 18.8195 17.8474L20.6528 19.6808C20.9186 19.9466 20.9186 20.3866 20.6528 20.6524C20.5153 20.7899 20.3411 20.8541 20.167 20.8541Z" fill="#292D32"/>
</svg>
