<svg width="15" height="4" viewBox="0 0 15 4" fill="none" xmlns="http://www.w3.org/2000/svg">
<path d="M1.83339 -8.19956e-06C0.820763 -8.16737e-06 -0.000121772 0.820888 -0.00012174 1.83352C-0.000121708 2.84615 0.820763 3.66706 1.83339 3.66706C2.84603 3.66706 3.66693 2.84615 3.66693 1.83352C3.66693 0.820887 2.84603 -8.23175e-06 1.83339 -8.19956e-06Z" fill="black"/>
<path d="M7.49993 -8.19956e-06C6.4873 -8.16737e-06 5.66639 0.820888 5.66639 1.83352C5.66639 2.84615 6.4873 3.66706 7.49993 3.66706C8.51256 3.66706 9.33347 2.84615 9.33347 1.83352C9.33347 0.820887 8.51256 -8.23175e-06 7.49993 -8.19956e-06Z" fill="black"/>
<path d="M13.1665 -8.19956e-06C12.1538 -8.16737e-06 11.3329 0.820888 11.3329 1.83352C11.3329 2.84615 12.1538 3.66706 13.1665 3.66706C14.1791 3.66706 15 2.84615 15 1.83352C15 0.820887 14.1791 -8.23175e-06 13.1665 -8.19956e-06Z" fill="black"/>
</svg>
