<svg width="22" height="22" viewBox="0 0 22 22" fill="none" xmlns="http://www.w3.org/2000/svg">
<path fill-rule="evenodd" clip-rule="evenodd" d="M4.16134 1.83333H7.25967C8.55217 1.83333 9.58801 2.8875 9.58801 4.18091V7.30583C9.58801 8.60749 8.55217 9.65249 7.25967 9.65249H4.16134C2.87801 9.65249 1.83301 8.60749 1.83301 7.30583V4.18091C1.83301 2.8875 2.87801 1.83333 4.16134 1.83333ZM4.16134 12.3472H7.25967C8.55217 12.3472 9.58801 13.3931 9.58801 14.6948V17.8197C9.58801 19.1122 8.55217 20.1664 7.25967 20.1664H4.16134C2.87801 20.1664 1.83301 19.1122 1.83301 17.8197V14.6948C1.83301 13.3931 2.87801 12.3472 4.16134 12.3472ZM17.8381 1.83333H14.7398C13.4473 1.83333 12.4114 2.8875 12.4114 4.18091V7.30583C12.4114 8.60749 13.4473 9.65249 14.7398 9.65249H17.8381C19.1214 9.65249 20.1664 8.60749 20.1664 7.30583V4.18091C20.1664 2.8875 19.1214 1.83333 17.8381 1.83333ZM14.7398 12.3472H17.8381C19.1214 12.3472 20.1664 13.3931 20.1664 14.6948V17.8197C20.1664 19.1122 19.1214 20.1664 17.8381 20.1664H14.7398C13.4473 20.1664 12.4114 19.1122 12.4114 17.8197V14.6948C12.4114 13.3931 13.4473 12.3472 14.7398 12.3472Z" fill="black"/>
</svg>
