<svg width="17" height="15" viewBox="0 0 17 15" fill="none" xmlns="http://www.w3.org/2000/svg">
<path d="M9.04886 0.188426V12.1511C9.0481 12.1892 9.05836 12.2268 9.07841 12.2592C9.09845 12.2917 9.12745 12.3177 9.16191 12.3341C9.19638 12.3506 9.23486 12.3568 9.27276 12.352C9.31066 12.3472 9.34639 12.3315 9.37565 12.307L16.792 6.32565C16.8154 6.30855 16.8346 6.28611 16.8477 6.26025C16.8609 6.23439 16.8678 6.20586 16.8678 6.17685C16.8678 6.14785 16.8609 6.11932 16.8477 6.09346C16.8346 6.0676 16.8154 6.04516 16.792 6.02806L9.37565 0.0467213C9.34732 0.0229213 9.31288 0.00741653 9.27623 0.00208194C9.23958 -0.00325265 9.20217 0.00171031 9.1682 0.0164427C9.13424 0.031175 9.10506 0.0551016 9.08398 0.085478C9.06289 0.115855 9.05073 0.151524 9.04886 0.188426Z" fill="white"/>
<path d="M9.37542 9.04704C8.54712 8.77612 7.67047 8.68422 6.80384 8.77765C5.83532 8.89019 4.90122 9.20408 4.06179 9.69899C3.13821 10.24 2.33941 10.9693 1.71756 11.8393C1.03162 12.7844 0.548008 13.8603 0.296804 15H0.19734C-0.0657801 13.7379 -0.0657801 12.4353 0.19734 11.1731C0.479506 9.8143 1.03535 8.52674 1.8312 7.38864C2.67805 6.16663 3.76577 5.12968 5.02789 4.34122C6.37862 3.49659 7.8863 2.93266 9.46066 2.68298L9.37542 9.04704Z" fill="white"/>
</svg>
