<svg width="22" height="22" viewBox="0 0 22 22" fill="none" xmlns="http://www.w3.org/2000/svg">
<path d="M13.4746 20.8543H8.52462C3.99629 20.8543 2.07129 18.9202 2.07129 14.401V10.2852C2.07129 9.90932 2.38296 9.59766 2.75879 9.59766C3.13462 9.59766 3.44629 9.90932 3.44629 10.2852V14.401C3.44629 18.1502 4.77546 19.4793 8.52462 19.4793H13.4655C17.2146 19.4793 18.5438 18.1502 18.5438 14.401V10.2852C18.5438 9.90932 18.8555 9.59766 19.2313 9.59766C19.6071 9.59766 19.9188 9.90932 19.9188 10.2852V14.401C19.928 18.9202 17.9938 20.8543 13.4746 20.8543Z" fill="#8C8C8C"/>
<path d="M11.0001 11.6877C9.99175 11.6877 9.07508 11.2935 8.42425 10.5693C7.77342 9.84516 7.47092 8.901 7.57175 7.89266L8.18592 1.76933C8.22258 1.421 8.51592 1.146 8.87342 1.146H13.1542C13.5117 1.146 13.8051 1.41183 13.8417 1.76933L14.4559 7.89266C14.5567 8.901 14.2542 9.84516 13.6034 10.5693C12.9251 11.2935 12.0084 11.6877 11.0001 11.6877ZM9.48758 2.521L8.93758 8.03016C8.87342 8.64433 9.05675 9.22183 9.44175 9.6435C10.2209 10.5052 11.7792 10.5052 12.5584 9.6435C12.9434 9.21266 13.1267 8.63516 13.0626 8.03016L12.5126 2.521H9.48758Z" fill="#8C8C8C"/>
<path d="M16.784 11.6877C14.9232 11.6877 13.264 10.1843 13.0715 8.33266L12.4298 1.90683C12.4115 1.71433 12.4757 1.52183 12.604 1.37516C12.7323 1.2285 12.9157 1.146 13.1173 1.146H15.9132C18.6082 1.146 19.864 2.2735 20.2398 5.04183L20.4965 7.59016C20.6065 8.67183 20.2765 9.6985 19.5707 10.4777C18.8648 11.2568 17.8748 11.6877 16.784 11.6877ZM13.8782 2.521L14.4465 8.19516C14.5657 9.341 15.629 10.3127 16.784 10.3127C17.4807 10.3127 18.104 10.0468 18.5532 9.561C18.9932 9.07516 19.1948 8.42433 19.1307 7.72766L18.874 5.20683C18.5898 3.13516 17.9207 2.521 15.9132 2.521H13.8782Z" fill="#8C8C8C"/>
<path d="M5.16978 11.6877C4.07894 11.6877 3.08894 11.2568 2.38311 10.4777C1.67728 9.6985 1.34728 8.67183 1.45728 7.59016L1.70478 5.06933C2.08978 2.2735 3.34561 1.146 6.04061 1.146H8.83644C9.02894 1.146 9.21228 1.2285 9.34978 1.37516C9.48728 1.52183 9.54228 1.71433 9.52394 1.90683L8.88228 8.33266C8.68977 10.1843 7.03061 11.6877 5.16978 11.6877ZM6.04061 2.521C4.03311 2.521 3.36394 3.126 3.07061 5.22516L2.82311 7.72766C2.74978 8.42433 2.96061 9.07516 3.40061 9.561C3.84061 10.0468 4.46394 10.3127 5.16978 10.3127C6.32478 10.3127 7.39728 9.341 7.50728 8.19516L8.07561 2.521H6.04061Z" fill="#8C8C8C"/>
<path d="M13.2913 20.8543H8.70801C8.33217 20.8543 8.02051 20.5427 8.02051 20.1668V17.8752C8.02051 15.9502 9.07467 14.896 10.9997 14.896C12.9247 14.896 13.9788 15.9502 13.9788 17.8752V20.1668C13.9788 20.5427 13.6672 20.8543 13.2913 20.8543ZM9.39551 19.4793H12.6038V17.8752C12.6038 16.7202 12.1547 16.271 10.9997 16.271C9.84467 16.271 9.39551 16.7202 9.39551 17.8752V19.4793Z" fill="#8C8C8C"/>
</svg>
