<svg width="22" height="22" viewBox="0 0 22 22" fill="none" xmlns="http://www.w3.org/2000/svg">
<path d="M14.6667 20.8542H7.33338C3.09838 20.8542 2.31005 18.8833 2.10838 16.9675L1.42088 9.62499C1.32005 8.66249 1.29255 7.24165 2.24588 6.17832C3.07088 5.26165 4.43671 4.82166 6.41671 4.82166H15.5834C17.5725 4.82166 18.9384 5.27082 19.7542 6.17832C20.7075 7.24165 20.68 8.66249 20.5792 9.63416L19.8917 16.9583C19.69 18.8833 18.9017 20.8542 14.6667 20.8542ZM6.41671 6.18749C4.86755 6.18749 3.80421 6.48999 3.26338 7.09499C2.81421 7.58999 2.66755 8.35082 2.78671 9.48749L3.47421 16.83C3.63005 18.2783 4.02421 19.4792 7.33338 19.4792H14.6667C17.9667 19.4792 18.37 18.2783 18.5259 16.8208L19.2134 9.49665C19.3325 8.35082 19.1859 7.58999 18.7367 7.09499C18.1959 6.48999 17.1325 6.18749 15.5834 6.18749H6.41671Z" fill="#292D32"/>
<path d="M14.6663 6.18751C14.2905 6.18751 13.9788 5.87584 13.9788 5.50001V4.76668C13.9788 3.13501 13.9788 2.52084 11.733 2.52084H10.2663C8.02051 2.52084 8.02051 3.13501 8.02051 4.76668V5.50001C8.02051 5.87584 7.70884 6.18751 7.33301 6.18751C6.95717 6.18751 6.64551 5.87584 6.64551 5.50001V4.76668C6.64551 3.15334 6.64551 1.14584 10.2663 1.14584H11.733C15.3538 1.14584 15.3538 3.15334 15.3538 4.76668V5.50001C15.3538 5.87584 15.0422 6.18751 14.6663 6.18751Z" fill="#292D32"/>
<path d="M11.0003 15.3542C8.47949 15.3542 8.47949 13.7958 8.47949 12.8608V11.9167C8.47949 10.6242 8.79116 10.3125 10.0837 10.3125H11.917C13.2095 10.3125 13.5212 10.6242 13.5212 11.9167V12.8333C13.5212 13.7867 13.5212 15.3542 11.0003 15.3542ZM9.85449 11.6875C9.85449 11.7608 9.85449 11.8433 9.85449 11.9167V12.8608C9.85449 13.805 9.85449 13.9792 11.0003 13.9792C12.1462 13.9792 12.1462 13.8325 12.1462 12.8517V11.9167C12.1462 11.8433 12.1462 11.7608 12.1462 11.6875C12.0728 11.6875 11.9903 11.6875 11.917 11.6875H10.0837C10.0103 11.6875 9.92783 11.6875 9.85449 11.6875Z" fill="#292D32"/>
<path d="M12.8329 13.5392C12.4937 13.5392 12.1912 13.2825 12.1546 12.9342C12.1087 12.5583 12.3746 12.21 12.7504 12.1642C15.1704 11.8617 17.4896 10.945 19.4421 9.52415C19.7446 9.29499 20.1754 9.36832 20.4046 9.67999C20.6246 9.98249 20.5604 10.4133 20.2487 10.6425C18.1037 12.2008 15.5737 13.2 12.9154 13.5392C12.8879 13.5392 12.8604 13.5392 12.8329 13.5392Z" fill="#292D32"/>
<path d="M9.16635 13.5483C9.13885 13.5483 9.11135 13.5483 9.08385 13.5483C6.57219 13.2642 4.12469 12.3475 2.00719 10.8992C1.69552 10.6883 1.61302 10.2575 1.82385 9.94585C2.03469 9.63418 2.46552 9.55168 2.77719 9.76251C4.71135 11.0825 6.93885 11.9167 9.23052 12.1825C9.60635 12.2283 9.88135 12.5675 9.83552 12.9433C9.80802 13.2917 9.51469 13.5483 9.16635 13.5483Z" fill="#292D32"/>
</svg>
