<svg width="23" height="22" viewBox="0 0 23 22" fill="none" xmlns="http://www.w3.org/2000/svg">
<path fill-rule="evenodd" clip-rule="evenodd" d="M11.498 8.83789C10.2235 8.83789 9.1875 9.82972 9.1875 11.0489C9.1875 12.2671 10.2235 13.2581 11.498 13.2581C12.7726 13.2581 13.8095 12.2671 13.8095 11.0489C13.8095 9.82972 12.7726 8.83789 11.498 8.83789ZM11.498 14.6331C9.43092 14.6331 7.75 13.0252 7.75 11.0489C7.75 9.07164 9.43092 7.46289 11.498 7.46289C13.5652 7.46289 15.247 9.07164 15.247 11.0489C15.247 13.0252 13.5652 14.6331 11.498 14.6331Z" fill="black"/>
<mask id="mask0_498_16586" style="mask-type:luminance" maskUnits="userSpaceOnUse" x="1" y="3" width="21" height="16">
<path fill-rule="evenodd" clip-rule="evenodd" d="M1.91602 3.66687H21.0825V18.4298H1.91602V3.66687Z" fill="white"/>
</mask>
<g mask="url(#mask0_498_16586)">
<path fill-rule="evenodd" clip-rule="evenodd" d="M3.42036 11.0482C5.20286 14.8148 8.20532 17.0542 11.4991 17.0551C14.7929 17.0542 17.7954 14.8148 19.5779 11.0482C17.7954 7.28252 14.7929 5.04311 11.4991 5.04219C8.20628 5.04311 5.20286 7.28252 3.42036 11.0482ZM11.501 18.4301H11.4972H11.4962C7.53257 18.4274 3.97332 15.7699 1.97423 11.3195C1.89661 11.1463 1.89661 10.9501 1.97423 10.7769C3.97332 6.32736 7.53353 3.66994 11.4962 3.66719C11.4982 3.66627 11.4982 3.66627 11.4991 3.66719C11.501 3.66627 11.501 3.66627 11.502 3.66719C15.4657 3.66994 19.0249 6.32736 21.024 10.7769C21.1026 10.9501 21.1026 11.1463 21.024 11.3195C19.0259 15.7699 15.4657 18.4274 11.502 18.4301H11.501Z" fill="black"/>
</g>
</svg>
