<svg width="28" height="28" viewBox="0 0 28 28" fill="none" xmlns="http://www.w3.org/2000/svg">
<path d="M18.6663 26.5416H3.49967C2.37967 26.5416 1.45801 25.6199 1.45801 24.4999V9.33325C1.45801 4.17659 4.17634 1.45825 9.33301 1.45825H18.6663C23.823 1.45825 26.5413 4.17659 26.5413 9.33325V18.6666C26.5413 23.8233 23.823 26.5416 18.6663 26.5416ZM9.33301 3.20825C5.15634 3.20825 3.20801 5.15659 3.20801 9.33325V24.4999C3.20801 24.6633 3.33634 24.7916 3.49967 24.7916H18.6663C22.843 24.7916 24.7913 22.8433 24.7913 18.6666V9.33325C24.7913 5.15659 22.843 3.20825 18.6663 3.20825H9.33301Z" fill="#757575"/>
<path d="M18.0837 14.875H9.91699C9.43866 14.875 9.04199 14.4783 9.04199 14C9.04199 13.5217 9.43866 13.125 9.91699 13.125H18.0837C18.562 13.125 18.9587 13.5217 18.9587 14C18.9587 14.4783 18.562 14.875 18.0837 14.875Z" fill="#757575"/>
<path d="M14 18.9584C13.5217 18.9584 13.125 18.5617 13.125 18.0834V9.91675C13.125 9.43841 13.5217 9.04175 14 9.04175C14.4783 9.04175 14.875 9.43841 14.875 9.91675V18.0834C14.875 18.5617 14.4783 18.9584 14 18.9584Z" fill="#757575"/>
</svg>
