<svg width="17" height="16" viewBox="0 0 17 16" fill="none" xmlns="http://www.w3.org/2000/svg">
<path fill-rule="evenodd" clip-rule="evenodd" d="M8.64666 5.66666C7.96548 5.66666 7.41136 6.18999 7.41136 6.83399C7.41136 7.47732 7.96548 7.99999 8.64666 7.99999C9.32783 7.99999 9.88195 7.47732 9.88195 6.83399C9.88195 6.18999 9.32783 5.66666 8.64666 5.66666ZM8.64666 8.99999C7.38172 8.99999 6.35254 8.02866 6.35254 6.83399C6.35254 5.63866 7.38172 4.66666 8.64666 4.66666C9.9116 4.66666 10.9408 5.63866 10.9408 6.83399C10.9408 8.02866 9.9116 8.99999 8.64666 8.99999Z" fill="#9E9E9E"/>
<mask id="mask0_498_14618" style="mask-type:luminance" maskUnits="userSpaceOnUse" x="2" y="1" width="13" height="14">
<path fill-rule="evenodd" clip-rule="evenodd" d="M2.82324 1.33333H14.4699V14.3333H2.82324V1.33333Z" fill="white"/>
</mask>
<g mask="url(#mask0_498_14618)">
<path fill-rule="evenodd" clip-rule="evenodd" d="M8.64677 2.33333C6.01948 2.33333 3.88207 4.37133 3.88207 6.87533C3.88207 10.0613 7.85195 13.1653 8.64677 13.3307C9.4416 13.1647 13.4115 10.0607 13.4115 6.87533C13.4115 4.37133 11.2741 2.33333 8.64677 2.33333ZM8.64677 14.3333C7.38042 14.3333 2.82324 10.632 2.82324 6.87533C2.82324 3.81933 5.43571 1.33333 8.64677 1.33333C11.8578 1.33333 14.4703 3.81933 14.4703 6.87533C14.4703 10.632 9.91312 14.3333 8.64677 14.3333Z" fill="#9E9E9E"/>
</g>
</svg>
