<svg width="28" height="28" viewBox="0 0 28 28" fill="none" xmlns="http://www.w3.org/2000/svg">
<path fill-rule="evenodd" clip-rule="evenodd" d="M8.39344 5.63674C8.86238 4.78446 9.37252 4.21472 10.1295 3.91342C11.5167 3.36185 16.4848 3.36185 17.8709 3.91353C18.6275 4.21467 19.1378 4.78431 19.6071 5.63642L20.1347 6.64809C20.1468 6.66814 20.1579 6.68576 20.1678 6.70093L20.2126 6.76219C20.453 7.02411 20.8553 7.18234 21.1208 7.18234C23.6315 7.18234 25.6673 9.2177 25.6673 11.7277V18.4885C25.6673 21.6901 23.0706 24.2868 19.869 24.2868H8.13232C4.92994 24.2868 2.33398 21.6905 2.33398 18.4885V11.7277C2.33398 9.2177 4.36979 7.18234 6.88048 7.18234C7.14506 7.18234 7.54791 7.02388 7.78867 6.76219C7.79348 6.75695 7.79975 6.74915 7.80734 6.73881L7.86734 6.64678L8.39344 5.63674ZM18.0742 6.48068C17.7826 5.95121 17.5191 5.65703 17.2237 5.53948L17.0845 5.4932C15.8839 5.15383 11.7075 5.16926 10.7764 5.53948C10.4812 5.65697 10.2179 5.95099 9.92667 6.48036L9.47767 7.34847L9.36716 7.54848C9.2749 7.70193 9.18263 7.83146 9.07726 7.94626C8.48638 8.58852 7.61228 8.93234 6.88048 8.93234L6.68904 8.93879C5.23403 9.03717 4.08398 10.2486 4.08398 11.7277V18.4885C4.08398 20.724 5.8965 22.5368 8.13232 22.5368H19.869C22.1041 22.5368 23.9173 20.7236 23.9173 18.4885V11.7277C23.9173 10.1843 22.6651 8.93234 21.1208 8.93234L20.9177 8.92385C20.2311 8.86735 19.4598 8.53003 18.9233 7.94549C18.8194 7.8322 18.7276 7.70359 18.6359 7.55144C18.6227 7.52961 18.6064 7.50087 18.5876 7.46688L18.4521 7.21284L18.0742 6.48068Z" fill="white"/>
<path d="M20.4223 9.91666C21.0666 9.91666 21.589 10.439 21.589 11.0833C21.589 11.6816 21.1386 12.1747 20.5583 12.2421L20.4223 12.25C19.7675 12.25 19.2451 11.7277 19.2451 11.0833C19.2451 10.485 19.6955 9.9919 20.2757 9.92451L20.4223 9.91666Z" fill="white"/>
<path fill-rule="evenodd" clip-rule="evenodd" d="M9.41602 15.316C9.41602 12.7841 11.4679 10.7321 13.9998 10.7321C16.5318 10.7321 18.5837 12.7841 18.5837 15.316C18.5837 17.8479 16.5318 19.8998 13.9998 19.8998C11.4679 19.8998 9.41602 17.8479 9.41602 15.316ZM16.8337 15.316C16.8337 13.7506 15.5653 12.4821 13.9998 12.4821C12.4344 12.4821 11.166 13.7506 11.166 15.316C11.166 16.8814 12.4344 18.1498 13.9998 18.1498C15.5653 18.1498 16.8337 16.8814 16.8337 15.316Z" fill="white"/>
</svg>
