<svg width="22" height="22" viewBox="0 0 22 22" fill="none" xmlns="http://www.w3.org/2000/svg">
<path fill-rule="evenodd" clip-rule="evenodd" d="M16.3687 18.7157C18.0856 18.7157 19.478 17.3242 19.479 15.6073V15.6054V13.1304C18.345 13.1304 17.4265 12.2119 17.4256 11.078C17.4256 9.94501 18.3441 9.02559 19.478 9.02559H19.479V6.55059C19.4808 4.83276 18.0902 3.43943 16.3733 3.43759H16.3678H5.63179C3.91396 3.43759 2.52154 4.82909 2.52063 6.54693V6.54784V9.10534C3.61513 9.06684 4.53271 9.92301 4.57121 11.0175C4.57213 11.0377 4.57304 11.0578 4.57304 11.078C4.57396 12.2101 3.65821 13.1286 2.52613 13.1304H2.52063V15.6054C2.51971 17.3223 3.91213 18.7157 5.62904 18.7157H5.62996H16.3687Z" stroke="#1E1E1E" stroke-width="1.5" stroke-linecap="round" stroke-linejoin="round"/>
</svg>
