<svg width="22" height="22" viewBox="0 0 22 22" fill="none" xmlns="http://www.w3.org/2000/svg">
<path d="M4.75747 5.84816C4.58331 5.84816 4.39997 5.77482 4.27164 5.64649C4.00581 5.38066 4.00581 4.94066 4.27164 4.67482L7.59914 1.34732C7.86497 1.08149 8.30497 1.08149 8.57081 1.34732C8.83664 1.61316 8.83664 2.05316 8.57081 2.31899L5.24331 5.64649C5.10581 5.77482 4.93164 5.84816 4.75747 5.84816Z" fill="#8C8C8C"/>
<path d="M17.2422 5.84816C17.068 5.84816 16.8939 5.78399 16.7564 5.64649L13.4289 2.31899C13.163 2.05316 13.163 1.61316 13.4289 1.34732C13.6947 1.08149 14.1347 1.08149 14.4005 1.34732L17.728 4.67482C17.9939 4.94066 17.9939 5.38066 17.728 5.64649C17.5997 5.77482 17.4164 5.84816 17.2422 5.84816Z" fill="#8C8C8C"/>
<path d="M18.5255 9.71647C18.4613 9.71647 18.3972 9.71647 18.333 9.71647H18.1222H3.66634C3.02467 9.72564 2.29134 9.72564 1.75967 9.19397C1.33801 8.78147 1.14551 8.1398 1.14551 7.19564C1.14551 4.6748 2.98801 4.6748 3.86801 4.6748H18.1313C19.0113 4.6748 20.8538 4.6748 20.8538 7.19564C20.8538 8.14897 20.6613 8.78147 20.2397 9.19397C19.763 9.67064 19.1213 9.71647 18.5255 9.71647ZM3.86801 8.34147H18.3422C18.7547 8.35064 19.1397 8.35064 19.268 8.22231C19.3322 8.15814 19.4697 7.93814 19.4697 7.19564C19.4697 6.1598 19.213 6.0498 18.1222 6.0498H3.86801C2.77717 6.0498 2.52051 6.1598 2.52051 7.19564C2.52051 7.93814 2.66717 8.15814 2.72217 8.22231C2.85051 8.34147 3.24467 8.34147 3.64801 8.34147H3.86801Z" fill="#8C8C8C"/>
<path d="M8.94629 16.7752C8.57046 16.7752 8.25879 16.4635 8.25879 16.0877V12.8335C8.25879 12.4577 8.57046 12.146 8.94629 12.146C9.32212 12.146 9.63379 12.4577 9.63379 12.8335V16.0877C9.63379 16.4727 9.32212 16.7752 8.94629 16.7752Z" fill="#8C8C8C"/>
<path d="M13.1631 16.7752C12.7873 16.7752 12.4756 16.4635 12.4756 16.0877V12.8335C12.4756 12.4577 12.7873 12.146 13.1631 12.146C13.5389 12.146 13.8506 12.4577 13.8506 12.8335V16.0877C13.8506 16.4727 13.5389 16.7752 13.1631 16.7752Z" fill="#8C8C8C"/>
<path d="M13.6495 20.8542H8.12201C4.84034 20.8542 4.10701 18.9017 3.82284 17.2059L2.53034 9.27669C2.46618 8.90085 2.72284 8.55252 3.09868 8.48835C3.47451 8.42419 3.82284 8.68085 3.88701 9.05669L5.17951 16.9767C5.44534 18.5992 5.99534 19.4792 8.12201 19.4792H13.6495C16.0053 19.4792 16.2712 18.6542 16.5737 17.0592L18.1137 9.03835C18.187 8.66252 18.5445 8.41502 18.9203 8.49752C19.2962 8.57085 19.5345 8.92835 19.4612 9.30419L17.9212 17.325C17.5637 19.1859 16.9678 20.8542 13.6495 20.8542Z" fill="#8C8C8C"/>
</svg>
