<svg width="20" height="20" viewBox="0 0 20 20" fill="none" xmlns="http://www.w3.org/2000/svg">
<path fill-rule="evenodd" clip-rule="evenodd" d="M5.27281 6.95618L5.77531 12.9328C5.81197 13.3928 6.18781 13.7378 6.64697 13.7378H6.65031H15.7428H15.7445C16.1786 13.7378 16.5495 13.4145 16.6111 12.9853L17.4028 7.51951C17.4211 7.38951 17.3886 7.25951 17.3095 7.15451C17.2311 7.04868 17.1161 6.98034 16.9861 6.96201C16.812 6.96868 9.58447 6.95868 5.27281 6.95618ZM6.64531 14.9878C5.54781 14.9878 4.61864 14.1312 4.52947 13.0353L3.76614 3.95701L2.51031 3.74034C2.16947 3.68034 1.94197 3.35784 2.00031 3.01701C2.06031 2.67618 2.38947 2.45451 2.72281 2.50784L4.45614 2.80784C4.73531 2.85701 4.94781 3.08868 4.97197 3.37201L5.16781 5.70618C17.0645 5.71118 17.1028 5.71701 17.1603 5.72368C17.6245 5.79118 18.0328 6.03368 18.3111 6.40701C18.5895 6.77951 18.7061 7.23868 18.6395 7.69868L17.8486 13.1637C17.6995 14.2037 16.7961 14.9878 15.7461 14.9878H15.742H6.65197H6.64531Z" fill="black"/>
<path fill-rule="evenodd" clip-rule="evenodd" d="M14.4064 10.0364H12.0964C11.7505 10.0364 11.4714 9.75643 11.4714 9.41143C11.4714 9.06643 11.7505 8.78643 12.0964 8.78643H14.4064C14.7514 8.78643 15.0314 9.06643 15.0314 9.41143C15.0314 9.75643 14.7514 10.0364 14.4064 10.0364Z" fill="black"/>
<path fill-rule="evenodd" clip-rule="evenodd" d="M6.2865 17.2516C6.53733 17.2516 6.73983 17.4541 6.73983 17.7049C6.73983 17.9558 6.53733 18.1591 6.2865 18.1591C6.03483 18.1591 5.83233 17.9558 5.83233 17.7049C5.83233 17.4541 6.03483 17.2516 6.2865 17.2516Z" fill="black"/>
<mask id="mask0_496_14093" style="mask-type:luminance" maskUnits="userSpaceOnUse" x="5" y="17" width="2" height="2">
<path fill-rule="evenodd" clip-rule="evenodd" d="M5.83233 17.7046C5.83233 17.9563 6.03483 18.1596 6.28733 18.1596C6.53816 18.1596 6.74066 17.9563 6.74066 17.7046C6.74066 17.4538 6.53816 17.2513 6.28733 17.2513C6.03483 17.2513 5.83233 17.4538 5.83233 17.7046Z" fill="white"/>
</mask>
<g mask="url(#mask0_496_14093)">
<path fill-rule="evenodd" clip-rule="evenodd" d="M1.66667 22.3255H10.9075V13.0846H1.66667V22.3255Z" fill="black"/>
</g>
<path fill-rule="evenodd" clip-rule="evenodd" d="M6.28566 17.534C6.1915 17.534 6.11483 17.6107 6.11483 17.7049C6.11483 17.894 6.45733 17.894 6.45733 17.7049C6.45733 17.6107 6.37983 17.534 6.28566 17.534ZM6.28566 18.784C5.69067 18.784 5.20733 18.2999 5.20733 17.7049C5.20733 17.1099 5.69067 16.6265 6.28566 16.6265C6.88066 16.6265 7.36483 17.1099 7.36483 17.7049C7.36483 18.2999 6.88066 18.784 6.28566 18.784Z" fill="black"/>
<path fill-rule="evenodd" clip-rule="evenodd" d="M15.6865 17.2516C15.9374 17.2516 16.1407 17.4541 16.1407 17.7049C16.1407 17.9558 15.9374 18.1591 15.6865 18.1591C15.4349 18.1591 15.2324 17.9558 15.2324 17.7049C15.2324 17.4541 15.4349 17.2516 15.6865 17.2516Z" fill="black"/>
<mask id="mask1_496_14093" style="mask-type:luminance" maskUnits="userSpaceOnUse" x="15" y="17" width="2" height="2">
<path fill-rule="evenodd" clip-rule="evenodd" d="M15.2334 17.7046C15.2334 17.9563 15.4359 18.1596 15.6875 18.1596C15.9375 18.1596 16.1417 17.9563 16.1417 17.7046C16.1417 17.4538 15.9375 17.2513 15.6875 17.2513C15.4359 17.2513 15.2334 17.4538 15.2334 17.7046Z" fill="white"/>
</mask>
<g mask="url(#mask1_496_14093)">
<path fill-rule="evenodd" clip-rule="evenodd" d="M11.0667 22.3255H20.3084V13.0846H11.0667V22.3255Z" fill="black"/>
</g>
<path fill-rule="evenodd" clip-rule="evenodd" d="M15.6867 17.534C15.5934 17.534 15.5167 17.6107 15.5167 17.7049C15.5175 17.8957 15.8592 17.894 15.8584 17.7049C15.8584 17.6107 15.7809 17.534 15.6867 17.534ZM15.6867 18.784C15.0917 18.784 14.6084 18.2999 14.6084 17.7049C14.6084 17.1099 15.0917 16.6265 15.6867 16.6265C16.2825 16.6265 16.7667 17.1099 16.7667 17.7049C16.7667 18.2999 16.2825 18.784 15.6867 18.784Z" fill="black"/>
</svg>
