<svg width="20" height="16" viewBox="0 0 20 16" fill="none" xmlns="http://www.w3.org/2000/svg">
<path opacity="0.7" d="M2.99981 0H17.0002C17.3941 0 17.7842 0.0776038 18.1482 0.22838C18.5121 0.379156 18.8428 0.600152 19.1214 0.878751C19.3999 1.15735 19.6209 1.48809 19.7717 1.8521C19.9224 2.21611 20 2.60625 20 3.00024V12.9998C20 13.3938 19.9224 13.7839 19.7717 14.1479C19.6209 14.5119 19.3999 14.8427 19.1214 15.1212C18.8428 15.3998 18.5121 15.6208 18.1482 15.7716C17.7842 15.9224 17.3941 16 17.0002 16H2.99981C2.20421 16 1.4412 15.6839 0.878623 15.1212C0.31605 14.5586 0 13.7955 0 12.9998V3.00024C0 2.20453 0.31605 1.44141 0.878623 0.878751C1.4412 0.316096 2.20421 0 2.99981 0ZM17.0002 1.99951H2.99981C2.86837 1.99939 2.7382 2.02518 2.61675 2.07543C2.49529 2.12568 2.38494 2.19938 2.292 2.29234C2.19906 2.38529 2.12537 2.49566 2.07513 2.61713C2.02489 2.7386 1.9991 2.86879 1.99922 3.00024L9.99806 7.8805L17.9969 3.00024C17.9972 2.73543 17.8923 2.48133 17.7055 2.29371C17.5186 2.10609 17.265 2.00029 17.0002 1.99951ZM1.99922 12.9998C1.99922 13.2649 2.10454 13.5192 2.292 13.7067C2.47947 13.8942 2.73372 13.9995 2.99883 13.9995H17.0002C17.2653 13.9995 17.5196 13.8942 17.707 13.7067C17.8945 13.5192 17.9998 13.2649 17.9998 12.9998V5.27957L10.5197 9.846C10.3678 9.93375 10.1954 9.97995 10.0199 9.97995C9.84445 9.97995 9.67207 9.93375 9.52011 9.846L2.00117 5.27957L1.99922 12.9998Z" fill="#D9D9D9"/>
</svg>
