<svg width="22" height="22" viewBox="0 0 22 22" fill="none" xmlns="http://www.w3.org/2000/svg">
<path d="M10.5413 19.9372C5.36217 19.9372 1.14551 15.7205 1.14551 10.5413C1.14551 5.36217 5.36217 1.14551 10.5413 1.14551C15.7205 1.14551 19.9372 5.36217 19.9372 10.5413C19.9372 15.7205 15.7205 19.9372 10.5413 19.9372ZM10.5413 2.52051C6.11384 2.52051 2.52051 6.12301 2.52051 10.5413C2.52051 14.9597 6.11384 18.5622 10.5413 18.5622C14.9688 18.5622 18.5622 14.9597 18.5622 10.5413C18.5622 6.12301 14.9688 2.52051 10.5413 2.52051Z" fill="white"/>
<path d="M20.167 20.8545C19.9928 20.8545 19.8186 20.7903 19.6811 20.6528L17.8478 18.8195C17.582 18.5536 17.582 18.1136 17.8478 17.8478C18.1136 17.582 18.5536 17.582 18.8195 17.8478L20.6528 19.6811C20.9186 19.947 20.9186 20.387 20.6528 20.6528C20.5153 20.7903 20.3411 20.8545 20.167 20.8545Z" fill="white"/>
</svg>
