<svg width="27" height="25" viewBox="0 0 27 25" fill="none" xmlns="http://www.w3.org/2000/svg">
<mask id="mask0_820_20598" style="mask-type:luminance" maskUnits="userSpaceOnUse" x="2" y="5" width="18" height="17">
<path fill-rule="evenodd" clip-rule="evenodd" d="M2.25 5.20898H19.6878V21.3562H2.25V5.20898Z" fill="white"/>
</mask>
<g mask="url(#mask0_820_20598)">
<path fill-rule="evenodd" clip-rule="evenodd" d="M7.703 6.77289C7.20912 6.77289 6.89075 6.77289 6.83562 6.77497C6.00537 6.80726 5.23925 7.1333 4.68687 7.69164C4.17162 8.21351 3.90612 8.88018 3.941 9.57185C3.941 12.5854 3.94212 17.1083 3.95 17.3562C4.07825 18.7989 5.5385 19.9021 7.21025 19.7833C10.304 19.7875 14.8872 19.7968 15.1021 19.7896C15.929 19.7583 16.6962 19.4333 17.2486 18.876C17.765 18.3562 18.0305 17.6896 17.9979 17.001C17.9967 16.9896 17.9967 16.9781 17.9967 16.9666C17.9979 13.9875 17.9979 9.46768 17.99 9.22497C17.8629 7.77497 16.3959 6.6583 14.7151 6.78018C12.3909 6.77705 9.2195 6.77289 7.703 6.77289ZM6.91437 21.3562C4.53612 21.3573 2.46162 19.6698 2.26587 17.4562C2.2625 17.4135 2.25125 17.2833 2.25462 9.60726C2.20062 8.5333 2.62137 7.46664 3.44262 6.63643C4.29987 5.76976 5.48225 5.26455 6.77262 5.21351C6.929 5.20309 12.338 5.21559 14.6544 5.21976C17.1856 5.05518 19.4705 6.79476 19.6741 9.12914C19.6831 9.24268 19.6865 11.8729 19.6842 16.951C19.7315 18.051 19.3085 19.1104 18.4917 19.9333C17.6334 20.7989 16.4499 21.3021 15.1606 21.351C15.0031 21.3614 9.59187 21.3479 7.27212 21.3437C7.15287 21.3521 7.03362 21.3562 6.91437 21.3562Z" fill="white"/>
</g>
<path fill-rule="evenodd" clip-rule="evenodd" d="M23.4201 19.1142C22.9127 19.1142 22.4121 18.9527 21.9992 18.6392L18.3081 15.8309C17.9481 15.5569 17.8964 15.0642 18.1922 14.7309C18.487 14.3986 19.0191 14.3486 19.3791 14.6236L23.0691 17.4319C23.3177 17.6194 23.5675 17.5423 23.6642 17.4986C23.761 17.4569 23.9849 17.3267 23.9849 17.0309L23.9984 9.37565C23.9995 9.07982 23.7745 8.94961 23.6777 8.9069C23.5821 8.86523 23.329 8.78711 23.0826 8.97461L19.378 11.7819C19.0157 12.0559 18.4859 12.0069 18.1911 11.6715C17.8952 11.3381 17.9492 10.8465 18.3092 10.5736L22.0139 7.76523C22.6934 7.24961 23.608 7.14857 24.4011 7.49544C25.1942 7.8444 25.687 8.56523 25.6859 9.37773L25.6724 17.0329C25.6712 17.8454 25.1774 18.5663 24.3854 18.9121C24.0749 19.0486 23.7464 19.1142 23.4201 19.1142Z" fill="white"/>
</svg>
