<svg width="93" height="93" viewBox="0 0 93 93" fill="none" xmlns="http://www.w3.org/2000/svg">
<path d="M79.3805 79.3805C97.5399 61.2211 97.5398 31.7789 79.3805 13.6195C61.2211 -4.53985 31.7789 -4.53985 13.6195 13.6195C-4.53984 31.7789 -4.53985 61.2211 13.6195 79.3805C31.7789 97.5398 61.2211 97.5398 79.3805 79.3805Z" fill="#233973"/>
<path d="M42.027 67.2366V40.8878C42.0319 40.8267 42.0319 40.7653 42.027 40.7042C41.9921 39.5493 41.5292 38.4486 40.7281 37.616C39.9271 36.7834 38.8451 36.2782 37.6924 36.1987C36.5397 36.1192 35.3987 36.4711 34.4909 37.1858C33.5831 37.9006 32.9734 38.9273 32.7803 40.0665C32.7298 40.3373 32.7039 40.6122 32.703 40.8878V67.2366C32.703 68.4743 33.1947 69.6613 34.0699 70.5365C34.9451 71.4117 36.1322 71.9034 37.3699 71.9034C38.6076 71.9034 39.7946 71.4117 40.6698 70.5365C41.545 69.6613 42.0367 68.4743 42.0367 67.2366H42.027Z" fill="white"/>
<path d="M19.163 52.7031L33.9074 37.5141C34.4772 36.9877 35.1654 36.6063 35.9137 36.4021C36.6621 36.1978 37.4486 36.1768 38.2068 36.3408C38.965 36.5047 39.6725 36.8488 40.2696 37.344C40.8667 37.8392 41.3358 38.4709 41.6372 39.1856C41.6845 39.2985 41.7233 39.4148 41.7531 39.5335C41.936 40.1641 41.9911 40.8249 41.915 41.4771C41.8389 42.1293 41.6333 42.7597 41.3101 43.3313C40.987 43.9029 40.5528 44.4041 40.0332 44.8056C39.5136 45.207 38.9191 45.5006 38.2844 45.669L19.163 52.7031Z" fill="white"/>
<path d="M75.7162 55.4198L60.9717 70.6087C60.4013 71.1348 59.7125 71.5158 58.9637 71.7193C58.2148 71.9229 57.428 71.943 56.6697 71.7781C55.9114 71.6132 55.204 71.268 54.6074 70.7718C54.0107 70.2756 53.5424 69.643 53.242 68.9275L53.1261 68.5893C52.9383 67.9562 52.8793 67.2919 52.9523 66.6356C53.0254 65.9793 53.2292 65.3443 53.5515 64.768C53.8739 64.1917 54.3084 63.6857 54.8294 63.28C55.3504 62.8742 55.9474 62.5769 56.5851 62.4055L75.7162 55.4198Z" fill="white"/>
<path d="M55.4735 55.4198L40.729 70.6087C40.1586 71.1348 39.4698 71.5158 38.721 71.7193C37.9721 71.9229 37.1853 71.943 36.427 71.7781C35.6687 71.6132 34.9613 71.268 34.3647 70.7718C33.768 70.2756 33.2997 69.643 32.9993 68.9275L32.8833 68.5893C32.6956 67.9562 32.6366 67.2919 32.7096 66.6356C32.7827 65.9793 32.9865 65.3443 33.3088 64.768C33.6312 64.1917 34.0657 63.6857 34.5867 63.28C35.1077 62.8742 35.7047 62.5769 36.3424 62.4055L55.4735 55.4198Z" fill="white"/>
<path d="M52.9316 40.8848V67.2336C52.9271 67.2947 52.9271 67.3561 52.9316 67.4172C53.0047 68.6195 53.5399 69.7471 54.4252 70.5639C55.3105 71.3808 56.4774 71.8237 57.6817 71.8C58.8861 71.7762 60.0346 71.2878 60.8871 70.4367C61.7396 69.5856 62.2299 68.4379 62.2556 67.2336V40.8848C62.2531 39.6479 61.7606 38.4623 60.8859 37.5877C60.0113 36.713 58.8257 36.2205 57.5888 36.218C56.3526 36.2231 55.1686 36.7164 54.2945 37.5905C53.4204 38.4646 52.9271 39.6487 52.922 40.8848H52.9316Z" fill="white"/>
<path d="M57.6007 31.9368C60.7651 31.9368 63.3303 29.3716 63.3303 26.2071C63.3303 23.0427 60.7651 20.4775 57.6007 20.4775C54.4362 20.4775 51.871 23.0427 51.871 26.2071C51.871 29.3716 54.4362 31.9368 57.6007 31.9368Z" fill="#EE7D19"/>
<path d="M37.3543 31.9368C40.5187 31.9368 43.084 29.3716 43.084 26.2071C43.084 23.0427 40.5187 20.4775 37.3543 20.4775C34.1899 20.4775 31.6246 23.0427 31.6246 26.2071C31.6246 29.3716 34.1899 31.9368 37.3543 31.9368Z" fill="#EE7D19"/>
</svg>
