<svg width="22" height="22" viewBox="0 0 22 22" fill="none" xmlns="http://www.w3.org/2000/svg">
<path d="M4.75747 5.84834C4.58331 5.84834 4.39997 5.77501 4.27164 5.64667C4.00581 5.38084 4.00581 4.94084 4.27164 4.67501L7.59914 1.34751C7.86497 1.08167 8.30497 1.08167 8.57081 1.34751C8.83664 1.61334 8.83664 2.05334 8.57081 2.31917L5.24331 5.64667C5.10581 5.77501 4.93164 5.84834 4.75747 5.84834Z" fill="black"/>
<path d="M17.2422 5.84834C17.068 5.84834 16.8939 5.78417 16.7564 5.64667L13.4289 2.31917C13.163 2.05334 13.163 1.61334 13.4289 1.34751C13.6947 1.08167 14.1347 1.08167 14.4005 1.34751L17.728 4.67501C17.9939 4.94084 17.9939 5.38084 17.728 5.64667C17.5997 5.77501 17.4164 5.84834 17.2422 5.84834Z" fill="black"/>
<path d="M18.5255 9.71667C18.4613 9.71667 18.3972 9.71667 18.333 9.71667H18.1222H3.66634C3.02467 9.72584 2.29134 9.72584 1.75967 9.19417C1.33801 8.78167 1.14551 8.14 1.14551 7.19584C1.14551 4.675 2.98801 4.675 3.86801 4.675H18.1313C19.0113 4.675 20.8538 4.675 20.8538 7.19584C20.8538 8.14917 20.6613 8.78167 20.2397 9.19417C19.763 9.67084 19.1213 9.71667 18.5255 9.71667ZM3.86801 8.34167H18.3422C18.7547 8.35084 19.1397 8.35084 19.268 8.2225C19.3322 8.15834 19.4697 7.93834 19.4697 7.19584C19.4697 6.16 19.213 6.05 18.1222 6.05H3.86801C2.77717 6.05 2.52051 6.16 2.52051 7.19584C2.52051 7.93834 2.66717 8.15834 2.72217 8.2225C2.85051 8.34167 3.24467 8.34167 3.64801 8.34167H3.86801Z" fill="black"/>
<path d="M8.94629 16.775C8.57046 16.775 8.25879 16.4633 8.25879 16.0875V12.8333C8.25879 12.4575 8.57046 12.1458 8.94629 12.1458C9.32212 12.1458 9.63379 12.4575 9.63379 12.8333V16.0875C9.63379 16.4725 9.32212 16.775 8.94629 16.775Z" fill="black"/>
<path d="M13.1631 16.775C12.7873 16.775 12.4756 16.4633 12.4756 16.0875V12.8333C12.4756 12.4575 12.7873 12.1458 13.1631 12.1458C13.5389 12.1458 13.8506 12.4575 13.8506 12.8333V16.0875C13.8506 16.4725 13.5389 16.775 13.1631 16.775Z" fill="black"/>
<path d="M13.6495 20.8542H8.12201C4.84034 20.8542 4.10701 18.9017 3.82284 17.2058L2.53034 9.27667C2.46618 8.90084 2.72284 8.5525 3.09868 8.48834C3.47451 8.42417 3.82284 8.68084 3.88701 9.05667L5.17951 16.9767C5.44534 18.5992 5.99534 19.4792 8.12201 19.4792H13.6495C16.0053 19.4792 16.2712 18.6542 16.5737 17.0592L18.1137 9.03834C18.187 8.6625 18.5445 8.415 18.9203 8.4975C19.2962 8.57084 19.5345 8.92834 19.4612 9.30417L17.9212 17.325C17.5637 19.1858 16.9678 20.8542 13.6495 20.8542Z" fill="black"/>
</svg>
