<svg width="28" height="28" viewBox="0 0 28 28" fill="none" xmlns="http://www.w3.org/2000/svg">
<path d="M18.6663 26.5417H3.49967C2.37967 26.5417 1.45801 25.62 1.45801 24.5V9.33337C1.45801 4.17671 4.17634 1.45837 9.33301 1.45837H18.6663C23.823 1.45837 26.5413 4.17671 26.5413 9.33337V18.6667C26.5413 23.8234 23.823 26.5417 18.6663 26.5417ZM9.33301 3.20837C5.15634 3.20837 3.20801 5.15671 3.20801 9.33337V24.5C3.20801 24.6634 3.33634 24.7917 3.49967 24.7917H18.6663C22.843 24.7917 24.7913 22.8434 24.7913 18.6667V9.33337C24.7913 5.15671 22.843 3.20837 18.6663 3.20837H9.33301Z" fill="#757575"/>
<path d="M18.0837 14.875H9.91699C9.43866 14.875 9.04199 14.4783 9.04199 14C9.04199 13.5217 9.43866 13.125 9.91699 13.125H18.0837C18.562 13.125 18.9587 13.5217 18.9587 14C18.9587 14.4783 18.562 14.875 18.0837 14.875Z" fill="#757575"/>
</svg>
