<svg width="19" height="19" viewBox="0 0 19 19" fill="none" xmlns="http://www.w3.org/2000/svg">
<path d="M8.78734 18.0104H5.46234C2.36693 18.0104 0.989427 16.6329 0.989427 13.5375V10.2125C0.989427 7.11705 2.36693 5.73955 5.46234 5.73955H8.78734C11.8828 5.73955 13.2603 7.11705 13.2603 10.2125V13.5375C13.2603 16.6329 11.8828 18.0104 8.78734 18.0104ZM5.46234 6.92705C3.00818 6.92705 2.17693 7.7583 2.17693 10.2125V13.5375C2.17693 15.9916 3.00818 16.8229 5.46234 16.8229H8.78734C11.2415 16.8229 12.0728 15.9916 12.0728 13.5375V10.2125C12.0728 7.7583 11.2415 6.92705 8.78734 6.92705H5.46234Z" fill="white"/>
<path d="M13.5376 13.2604H12.6668C12.3422 13.2604 12.073 12.9912 12.073 12.6666V10.2125C12.073 7.7583 11.2418 6.92705 8.78759 6.92705H6.33343C6.00884 6.92705 5.73968 6.65788 5.73968 6.3333V5.46247C5.73968 2.36705 7.11718 0.989552 10.2126 0.989552H13.5376C16.633 0.989552 18.0105 2.36705 18.0105 5.46247V8.78747C18.0105 11.8829 16.633 13.2604 13.5376 13.2604ZM13.2605 12.0729H13.5376C15.9918 12.0729 16.823 11.2416 16.823 8.78747V5.46247C16.823 3.0083 15.9918 2.17705 13.5376 2.17705H10.2126C7.75843 2.17705 6.92718 3.0083 6.92718 5.46247V5.73955H8.78759C11.883 5.73955 13.2605 7.11705 13.2605 10.2125V12.0729Z" fill="white"/>
</svg>
