<svg width="22" height="22" viewBox="0 0 22 22" fill="none" xmlns="http://www.w3.org/2000/svg">
<path d="M16.7288 6.87462L16.7288 8.25879C16.7288 8.63462 16.4172 8.94629 16.0413 8.94629C15.6655 8.94629 15.3538 8.63462 15.3538 8.25879L15.3538 6.87462C15.3538 4.47296 13.4013 2.52046 10.9997 2.52046C8.59801 2.52046 6.64551 4.47296 6.64551 6.87462L6.64551 8.24962C6.64551 8.62546 6.33384 8.93712 5.95801 8.93712C5.58217 8.93712 5.27051 8.63462 5.27051 8.24962L5.27051 6.87462C5.27051 3.71212 7.83717 1.14546 10.9997 1.14546C14.1622 1.14546 16.7288 3.71212 16.7288 6.87462Z" fill="#A0A0A0"/>
<path d="M16.7288 13.7503L16.7288 15.1253C16.7288 18.2878 14.1622 20.8545 10.9997 20.8545C7.83717 20.8545 5.27051 18.2878 5.27051 15.1253L5.27051 13.7503C5.27051 13.3745 5.58217 13.0628 5.95801 13.0628C6.33384 13.0628 6.64551 13.3745 6.64551 13.7503L6.64551 15.1253C6.64551 17.527 8.59801 19.4795 10.9997 19.4795C13.4013 19.4795 15.3538 17.527 15.3538 15.1253L15.3538 13.7503C15.3538 13.3745 15.6655 13.0628 16.0413 13.0628C16.4172 13.0628 16.7288 13.3745 16.7288 13.7503Z" fill="#A0A0A0"/>
<path d="M11.6875 7.33366L11.6875 14.667C11.6875 15.0428 11.3758 15.3545 11 15.3545C10.6242 15.3545 10.3125 15.0428 10.3125 14.667L10.3125 7.33366C10.3125 6.95783 10.6242 6.64616 11 6.64616C11.3758 6.64616 11.6875 6.95783 11.6875 7.33366Z" fill="#A0A0A0"/>
</svg>
