<svg width="68" height="68" viewBox="0 0 68 68" fill="none" xmlns="http://www.w3.org/2000/svg">
<circle cx="34.0013" cy="33.9976" r="28.3333" fill="#233973"/>
<circle opacity="0.4" cx="34" cy="34" r="34" fill="#233973"/>
<g clip-path="url(#clip0_496_14464)">
<path d="M40.7798 32.0638H35.218V26.3008C35.218 25.4756 34.5497 24.8072 33.7244 24.8072C32.8992 24.8072 32.2308 25.4756 32.2308 26.3008V32.0638H26.2973C25.4789 32.0638 24.8105 32.7322 24.8105 33.5574C24.8105 34.3826 25.4789 35.051 26.3041 35.051H32.2376V40.7799C32.2376 41.6051 32.906 42.2735 33.7312 42.2735C34.5565 42.2735 35.2248 41.6051 35.2248 40.7799V35.051H40.7866C41.6119 35.051 42.2802 34.3826 42.2802 33.5574C42.27 32.7322 41.605 32.0638 40.7798 32.0638Z" fill="white"/>
</g>
<defs>
<clipPath id="clip0_496_14464">
<rect width="17.4595" height="17.4595" fill="white" transform="translate(24.8105 24.8108)"/>
</clipPath>
</defs>
</svg>
