<svg width="6" height="13" viewBox="0 0 6 13" fill="none" xmlns="http://www.w3.org/2000/svg">
<path fill-rule="evenodd" clip-rule="evenodd" d="M2.83345 8.33334C1.00012 8.33334 1.00012 8.47201 1.00012 10.1667V10.1833C1.00012 10.9213 1.00012 11.4547 1.18078 11.68C1.35745 11.8987 1.88212 12 2.83345 12C3.78478 12 4.30945 11.898 4.48612 11.6793C4.66678 11.4547 4.66678 10.9213 4.66678 10.1827C4.66678 8.47201 4.66678 8.33334 2.83345 8.33334ZM2.83333 13C1.70933 13 0.865999 12.882 0.402666 12.3067C0 11.8073 0 11.126 0 10.1833L0.5 10.1667H0C0 8.25334 0.120667 7.33334 2.83333 7.33334C5.546 7.33334 5.66666 8.25334 5.66666 10.1667C5.66666 11.1253 5.66666 11.8073 5.264 12.3067C4.80066 12.882 3.95733 13 2.83333 13Z" fill="#9D9D9D"/>
<path fill-rule="evenodd" clip-rule="evenodd" d="M2.83345 1C1.00012 1 1.00012 1.13867 1.00012 2.83334V2.85C1.00012 3.588 1.00012 4.12133 1.18078 4.34667C1.35745 4.56533 1.88212 4.66667 2.83345 4.66667C3.78478 4.66667 4.30945 4.56467 4.48612 4.346C4.66678 4.12133 4.66678 3.588 4.66678 2.84934C4.66678 1.13867 4.66678 1 2.83345 1ZM2.83333 5.66666C1.70933 5.66666 0.865999 5.54866 0.402666 4.97333C0 4.474 0 3.79266 0 2.85L0.5 2.83333H0C0 0.919999 0.120667 0 2.83333 0C5.546 0 5.66666 0.919999 5.66666 2.83333C5.66666 3.792 5.66666 4.474 5.264 4.97333C4.80066 5.54866 3.95733 5.66666 2.83333 5.66666Z" fill="#9D9D9D"/>
</svg>
