<svg width="22" height="22" viewBox="0 0 22 22" fill="none" xmlns="http://www.w3.org/2000/svg">
<path d="M3.66699 10.749C3.66699 10.401 3.92563 10.1133 4.2612 10.0678L4.35449 10.0615H18.1045C18.4842 10.0615 18.792 10.3693 18.792 10.749C18.792 11.0971 18.5333 11.3847 18.1978 11.4302L18.1045 11.4365H4.35449C3.9748 11.4365 3.66699 11.1287 3.66699 10.749Z" fill="black"/>
<path d="M12.0735 5.71375C11.8044 5.44584 11.8035 5.01054 12.0714 4.74148C12.315 4.49688 12.6969 4.47387 12.9664 4.67299L13.0437 4.73939L18.5895 10.2614C18.8348 10.5057 18.8572 10.8889 18.6565 11.1585L18.5896 11.2357L13.0437 16.7586C12.7747 17.0266 12.3394 17.0257 12.0715 16.7566C11.8279 16.512 11.8065 16.13 12.0067 15.8613L12.0735 15.7843L17.1298 10.7483L12.0735 5.71375Z" fill="black"/>
</svg>
