<svg width="17" height="21" viewBox="0 0 17 21" fill="none" xmlns="http://www.w3.org/2000/svg">
<path fill-rule="evenodd" clip-rule="evenodd" d="M1.6268 8.99843L9.12059e-06 10.4988L1.6268 11.9993C2.05881 11.5996 2.30089 11.0608 2.30089 10.4994C2.30089 9.93795 2.05881 9.39911 1.6268 8.99945L1.6268 8.99843ZM4.88011 5.99964L3.25332 7.50009C4.11568 8.30019 4.59924 9.37757 4.59924 10.4999C4.59924 11.6222 4.11568 12.6996 3.25332 13.4997L4.88011 15.0001C6.17621 13.801 6.90293 12.1843 6.90293 10.4999C6.90293 8.81548 6.17621 7.19878 4.88011 5.99964ZM11.3881 -2.06228e-07L9.76162 1.49936C15.1445 6.46267 15.1445 14.5371 9.76161 19.4994L11.3881 20.9998C17.6787 15.1997 17.6787 5.7991 11.3881 -2.06228e-07ZM8.13482 17.9989L6.50803 16.4995C10.0962 13.1921 10.0962 7.80879 6.50803 4.49921L8.13482 2.99982C12.6273 7.14098 12.6273 13.8567 8.13482 17.9989Z" fill="black"/>
</svg>
