<svg width="25" height="25" viewBox="0 0 25 25" fill="none" xmlns="http://www.w3.org/2000/svg">
<path d="M20.8335 12.7857C20.8335 13.1813 20.5396 13.5081 20.1583 13.5599L20.0522 13.567L4.42725 13.567C3.99578 13.567 3.646 13.2172 3.646 12.7857C3.646 12.3902 3.93991 12.0633 4.32124 12.0116L4.42725 12.0045L20.0522 12.0045C20.4837 12.0045 20.8335 12.3543 20.8335 12.7857Z" fill="black"/>
<path d="M11.2802 18.5075C11.586 18.812 11.5871 19.3066 11.2826 19.6124C11.0059 19.8903 10.5719 19.9165 10.2656 19.6902L10.1778 19.6148L3.87568 13.3398C3.5969 13.0622 3.57153 12.6266 3.79961 12.3203L3.87564 12.2326L10.1777 5.95653C10.4834 5.65207 10.9781 5.65309 11.2826 5.95882C11.5594 6.23675 11.5837 6.67083 11.3561 6.9762L11.2803 7.06367L5.53442 12.7865L11.2802 18.5075Z" fill="black"/>
</svg>
