<svg width="33" height="29" viewBox="0 0 33 29" fill="none" xmlns="http://www.w3.org/2000/svg">
<path fill-rule="evenodd" clip-rule="evenodd" d="M16.7843 7.07634C16.7843 9.92693 14.4987 12.2126 11.6461 12.2126C8.79446 12.2126 6.50792 9.92693 6.50792 7.07634C6.50792 4.22576 8.79446 1.94102 11.6461 1.94102C14.4987 1.94102 16.7843 4.22576 16.7843 7.07634ZM11.6461 21.3524C7.43613 21.3524 3.88155 20.6681 3.88155 18.0281C3.88155 15.3872 7.45846 14.7272 11.6461 14.7272C15.857 14.7272 19.4106 15.4115 19.4106 18.0514C19.4106 20.6924 15.8337 21.3524 11.6461 21.3524Z" fill="#F08A31"/>
<circle cx="24.2652" cy="19.4113" r="8.73511" fill="white"/>
<path d="M19.4136 19.6725H28.9326M19.4136 16.4995H28.9326M19.4136 22.8455H28.9326" stroke="#F08A31" stroke-width="2" stroke-linecap="round" stroke-linejoin="round"/>
</svg>
