<svg width="33" height="29" viewBox="0 0 33 29" fill="none" xmlns="http://www.w3.org/2000/svg">
<path fill-rule="evenodd" clip-rule="evenodd" d="M16.7857 7.07668C16.7857 9.92735 14.5001 12.2131 11.6474 12.2131C8.7957 12.2131 6.50909 9.92735 6.50909 7.07668C6.50909 4.22601 8.7957 1.9412 11.6474 1.9412C14.5001 1.9412 16.7857 4.22601 16.7857 7.07668ZM11.6474 21.3531C7.43733 21.3531 3.88264 20.6689 3.88264 18.0288C3.88264 15.3878 7.45966 14.7278 11.6474 14.7278C15.8585 14.7278 19.4122 15.412 19.4122 18.0521C19.4122 20.6931 15.8352 21.3531 11.6474 21.3531Z" fill="#F08A31"/>
<circle cx="24.265" cy="19.412" r="8.73537" fill="white"/>
<path d="M19.4122 19.6733H28.9315M19.4122 16.5002H28.9315M19.4122 22.8464H28.9315" stroke="#F08A31" stroke-width="2" stroke-linecap="round" stroke-linejoin="round"/>
</svg>
