<svg width="32" height="32" viewBox="0 0 32 32" fill="none" xmlns="http://www.w3.org/2000/svg">
<circle cx="16" cy="16" r="15" fill="#233973" stroke="#F08A31" stroke-width="2"/>
<mask id="mask0_878_22463" style="mask-type:luminance" maskUnits="userSpaceOnUse" x="10" y="9" width="13" height="15">
<path fill-rule="evenodd" clip-rule="evenodd" d="M10 9H22.7015V23.0019H10V9Z" fill="white"/>
</mask>
<g mask="url(#mask0_878_22463)">
<path fill-rule="evenodd" clip-rule="evenodd" d="M18.2138 10.4909L11.2534 19.1961C11.1269 19.3543 11.0804 19.5584 11.1269 19.7543L11.6304 21.8871L13.8771 21.859C14.0908 21.8568 14.2882 21.7615 14.419 21.5988C16.7973 18.6231 21.3314 12.9498 21.4601 12.7835C21.5813 12.5868 21.6286 12.3088 21.5651 12.0412C21.5 11.7669 21.3292 11.534 21.083 11.3854C21.0305 11.3492 19.7848 10.3822 19.7464 10.3519C19.2777 9.97635 18.5938 10.0414 18.2138 10.4909ZM11.1927 23.002C10.9362 23.002 10.7129 22.826 10.653 22.5754L10.0475 20.0093C9.92258 19.4778 10.0468 18.9292 10.3876 18.5034L17.3518 9.793C17.3547 9.79004 17.3569 9.78635 17.3599 9.78339C18.1236 8.87036 19.5046 8.73581 20.4361 9.48324C20.4731 9.51207 21.7099 10.4732 21.7099 10.4732C22.1594 10.7408 22.5106 11.2191 22.6436 11.7854C22.776 12.3458 22.6799 12.9239 22.3716 13.4126C22.3487 13.4488 22.3287 13.4799 15.2847 22.2923C14.9454 22.7151 14.4367 22.9613 13.8904 22.968L11.2001 23.002H11.1927Z" fill="white"/>
</g>
<path fill-rule="evenodd" clip-rule="evenodd" d="M20.5157 15.4205C20.3974 15.4205 20.2792 15.3828 20.1779 15.306L16.1472 12.2098C15.9047 12.0235 15.8589 11.676 16.0452 11.432C16.2322 11.1896 16.5797 11.1445 16.8229 11.3308L20.8543 14.4262C21.0968 14.6125 21.1427 14.9607 20.9556 15.2039C20.8469 15.3459 20.6821 15.4205 20.5157 15.4205Z" fill="white"/>
</svg>
