<svg width="22" height="22" viewBox="0 0 22 22" fill="none" xmlns="http://www.w3.org/2000/svg">
<path d="M16.4996 7.25084C16.4721 7.25084 16.4538 7.25084 16.4263 7.25084H16.3805C14.648 7.19584 13.3555 5.8575 13.3555 4.2075C13.3555 2.52083 14.7305 1.155 16.408 1.155C18.0855 1.155 19.4605 2.53 19.4605 4.2075C19.4513 5.86667 18.1588 7.205 16.5088 7.26C16.5088 7.25084 16.5088 7.25084 16.4996 7.25084ZM16.408 2.52084C15.4821 2.52084 14.7305 3.27251 14.7305 4.19834C14.7305 5.10584 15.4363 5.83917 16.3438 5.87584C16.353 5.86667 16.4263 5.86667 16.5088 5.87584C17.398 5.83001 18.0855 5.09667 18.0946 4.19834C18.0946 3.27251 17.343 2.52084 16.408 2.52084Z" fill="black"/>
<path d="M16.5091 14.0067C16.1516 14.0067 15.7941 13.9792 15.4366 13.915C15.0608 13.8509 14.8133 13.4934 14.8775 13.1175C14.9416 12.7417 15.2991 12.4942 15.675 12.5584C16.8025 12.7509 17.9941 12.54 18.7916 12.0084C19.2225 11.7242 19.4516 11.3667 19.4516 11.0092C19.4516 10.6517 19.2133 10.3034 18.7916 10.0192C17.9941 9.48753 16.7841 9.2767 15.6475 9.47837C15.2716 9.5517 14.9141 9.29503 14.85 8.9192C14.7858 8.54337 15.0333 8.18587 15.4091 8.1217C16.9033 7.85587 18.4525 8.14003 19.5525 8.87336C20.3591 9.4142 20.8266 10.1842 20.8266 11.0092C20.8266 11.825 20.3683 12.6042 19.5525 13.1542C18.7183 13.7042 17.6366 14.0067 16.5091 14.0067Z" fill="black"/>
<path d="M5.47293 7.25085C5.46376 7.25085 5.4546 7.25085 5.4546 7.25085C3.8046 7.19585 2.5121 5.85751 2.50293 4.20751C2.50293 2.52084 3.87793 1.14584 5.55543 1.14584C7.23293 1.14584 8.60793 2.52085 8.60793 4.19835C8.60793 5.85751 7.31543 7.19585 5.66543 7.25085L5.47293 6.56335L5.5371 7.25085C5.51876 7.25085 5.49126 7.25085 5.47293 7.25085ZM5.5646 5.87585C5.6196 5.87585 5.66543 5.87584 5.72043 5.88501C6.53626 5.84834 7.25126 5.11501 7.25126 4.20751C7.25126 3.28167 6.4996 2.53001 5.57377 2.53001C4.64793 2.53001 3.89626 3.28167 3.89626 4.20751C3.89626 5.10584 4.59293 5.83001 5.4821 5.88501C5.49126 5.87584 5.52793 5.87585 5.5646 5.87585Z" fill="black"/>
<path d="M5.46301 14.0067C4.33551 14.0067 3.25384 13.7042 2.41967 13.1542C1.61301 12.6134 1.14551 11.8342 1.14551 11.0092C1.14551 10.1934 1.61301 9.4142 2.41967 8.87336C3.51967 8.14003 5.06884 7.85587 6.56301 8.1217C6.93884 8.18587 7.18634 8.54337 7.12217 8.9192C7.05801 9.29503 6.70051 9.5517 6.32468 9.47837C5.18801 9.2767 3.98718 9.48753 3.18051 10.0192C2.74968 10.3034 2.52051 10.6517 2.52051 11.0092C2.52051 11.3667 2.75884 11.7242 3.18051 12.0084C3.97801 12.54 5.16967 12.7509 6.29717 12.5584C6.67301 12.4942 7.03051 12.7509 7.09468 13.1175C7.15884 13.4934 6.91134 13.8509 6.53551 13.915C6.17801 13.9792 5.82051 14.0067 5.46301 14.0067Z" fill="black"/>
<path d="M10.9996 14.0983C10.9721 14.0983 10.9538 14.0983 10.9263 14.0983H10.8805C9.14797 14.0433 7.85547 12.705 7.85547 11.055C7.85547 9.36831 9.23047 8.00247 10.908 8.00247C12.5855 8.00247 13.9605 9.37747 13.9605 11.055C13.9513 12.7141 12.6588 14.0525 11.0088 14.1075C11.0088 14.0983 11.0088 14.0983 10.9996 14.0983ZM10.908 9.36831C9.98214 9.36831 9.23047 10.12 9.23047 11.0458C9.23047 11.9533 9.9363 12.6866 10.8438 12.7233C10.853 12.7141 10.9263 12.7141 11.0088 12.7233C11.898 12.6775 12.5855 11.9441 12.5946 11.0458C12.5946 10.1291 11.843 9.36831 10.908 9.36831Z" fill="black"/>
<path d="M10.9995 20.8633C9.89952 20.8633 8.79952 20.5792 7.94702 20.0017C7.14035 19.4608 6.67285 18.6908 6.67285 17.8658C6.67285 17.05 7.13118 16.2616 7.94702 15.7208C9.66118 14.5841 12.347 14.5841 14.052 15.7208C14.8587 16.2616 15.3262 17.0317 15.3262 17.8567C15.3262 18.6725 14.8679 19.4608 14.052 20.0017C13.1995 20.57 12.0995 20.8633 10.9995 20.8633ZM8.70785 16.8758C8.27702 17.16 8.04785 17.5175 8.04785 17.875C8.04785 18.2325 8.28619 18.5808 8.70785 18.865C9.94535 19.6992 12.0445 19.6992 13.282 18.865C13.7129 18.5808 13.942 18.2233 13.942 17.8658C13.942 17.5083 13.7037 17.16 13.282 16.8758C12.0537 16.0417 9.95452 16.0508 8.70785 16.8758Z" fill="black"/>
</svg>
