<svg width="66" height="66" viewBox="0 0 66 66" fill="none" xmlns="http://www.w3.org/2000/svg">
<path d="M33 65.9999C51.2254 65.9999 65.9999 51.2253 65.9999 33C65.9999 14.7746 51.2254 0 33 0C14.7746 0 0 14.7746 0 33C0 51.2253 14.7746 65.9999 33 65.9999Z" fill="#233973"/>
<path d="M29.8256 47.7163V29.0171C29.829 28.9738 29.829 28.9302 29.8256 28.8869C29.8008 28.0673 29.4723 27.2861 28.9038 26.6952C28.3353 26.1043 27.5674 25.7458 26.7494 25.6894C25.9314 25.633 25.1216 25.8827 24.4774 26.39C23.8331 26.8972 23.4005 27.6259 23.2634 28.4343C23.2275 28.6265 23.2092 28.8216 23.2086 29.0171V47.7163C23.2086 48.5946 23.5575 49.437 24.1786 50.0582C24.7997 50.6793 25.6421 51.0282 26.5205 51.0282C27.3989 51.0282 28.2413 50.6793 28.8624 50.0582C29.4835 49.437 29.8325 48.5946 29.8325 47.7163H29.8256Z" fill="white"/>
<path d="M13.5993 37.4021L24.0631 26.6229C24.4675 26.2493 24.9559 25.9786 25.4869 25.8337C26.018 25.6888 26.5762 25.6739 27.1143 25.7902C27.6523 25.9066 28.1545 26.1508 28.5782 26.5022C29.002 26.8536 29.3349 27.3019 29.5487 27.8091C29.5823 27.8893 29.6098 27.9718 29.631 28.056C29.7608 28.5035 29.7999 28.9725 29.7459 29.4353C29.6919 29.8982 29.5459 30.3456 29.3166 30.7512C29.0873 31.1569 28.7792 31.5126 28.4105 31.7975C28.0417 32.0824 27.6197 32.2907 27.1694 32.4102L13.5993 37.4021Z" fill="white"/>
<path d="M53.734 39.3301L43.2701 50.1093C42.8653 50.4827 42.3765 50.7531 41.8451 50.8975C41.3136 51.042 40.7552 51.0563 40.2171 50.9392C39.6789 50.8222 39.1769 50.5772 38.7535 50.2251C38.3301 49.873 37.9977 49.424 37.7845 48.9162L37.7022 48.6762C37.569 48.2269 37.5271 47.7555 37.579 47.2897C37.6308 46.824 37.7754 46.3733 38.0042 45.9643C38.233 45.5553 38.5413 45.1962 38.9111 44.9083C39.2808 44.6204 39.7045 44.4093 40.157 44.2877L53.734 39.3301Z" fill="white"/>
<path d="M39.3685 39.3301L28.9046 50.1093C28.4998 50.4827 28.011 50.7531 27.4796 50.8975C26.9481 51.042 26.3897 51.0563 25.8516 50.9392C25.3134 50.8222 24.8114 50.5772 24.388 50.2251C23.9646 49.873 23.6322 49.424 23.419 48.9162L23.3367 48.6762C23.2035 48.2269 23.1616 47.7555 23.2135 47.2897C23.2653 46.824 23.4099 46.3733 23.6387 45.9643C23.8675 45.5553 24.1758 45.1962 24.5456 44.9083C24.9153 44.6204 25.339 44.4093 25.7916 44.2877L39.3685 39.3301Z" fill="white"/>
<path d="M37.5643 29.015V47.7141C37.561 47.7575 37.561 47.801 37.5643 47.8444C37.6161 48.6977 37.9959 49.4979 38.6242 50.0776C39.2525 50.6573 40.0806 50.9716 40.9353 50.9548C41.79 50.9379 42.6051 50.5913 43.2101 49.9873C43.815 49.3833 44.163 48.5688 44.1813 47.7141V29.015C44.1795 28.1372 43.83 27.2958 43.2092 26.6751C42.5885 26.0544 41.7472 25.7049 40.8693 25.7031C39.9921 25.7067 39.1518 26.0568 38.5314 26.6771C37.9111 27.2974 37.561 28.1377 37.5574 29.015H37.5643Z" fill="white"/>
<path d="M40.8778 22.6648C43.1235 22.6648 44.944 20.8443 44.944 18.5986C44.944 16.3529 43.1235 14.5324 40.8778 14.5324C38.632 14.5324 36.8115 16.3529 36.8115 18.5986C36.8115 20.8443 38.632 22.6648 40.8778 22.6648Z" fill="#EE7D19"/>
<path d="M26.5096 22.6648C28.7553 22.6648 30.5758 20.8443 30.5758 18.5986C30.5758 16.3529 28.7553 14.5324 26.5096 14.5324C24.2638 14.5324 22.4433 16.3529 22.4433 18.5986C22.4433 20.8443 24.2638 22.6648 26.5096 22.6648Z" fill="#EE7D19"/>
</svg>
