<svg width="20" height="20" viewBox="0 0 20 20" fill="none" xmlns="http://www.w3.org/2000/svg">
<path d="M2.91732 18.9583H17.084C17.4257 18.9583 17.709 18.6749 17.709 18.3333C17.709 17.9916 17.4257 17.7083 17.084 17.7083H2.91732C2.57565 17.7083 2.29232 17.9916 2.29232 18.3333C2.29232 18.6749 2.57565 18.9583 2.91732 18.9583Z" fill="#292D32"/>
<path d="M4.16745 15.2083C4.32578 15.2083 4.48411 15.15 4.60911 15.025L16.2758 3.35828C16.5174 3.11662 16.5174 2.71662 16.2758 2.47495C16.0341 2.23328 15.6341 2.23328 15.3924 2.47495L3.72578 14.1416C3.48412 14.3833 3.48412 14.7833 3.72578 15.025C3.85078 15.15 4.00912 15.2083 4.16745 15.2083Z" fill="#292D32"/>
<path d="M15.834 12.1001C16.1757 12.1001 16.459 11.8167 16.459 11.4751V2.91675C16.459 2.57508 16.1757 2.29175 15.834 2.29175H7.27565C6.93398 2.29175 6.65065 2.57508 6.65065 2.91675C6.65065 3.25841 6.93398 3.54175 7.27565 3.54175H15.209V11.4751C15.209 11.8167 15.4923 12.1001 15.834 12.1001Z" fill="#292D32"/>
</svg>
