<svg width="21" height="20" viewBox="0 0 21 20" fill="none" xmlns="http://www.w3.org/2000/svg">
<path fill-rule="evenodd" clip-rule="evenodd" d="M8.54082 13.0143C8.37282 13.0143 8.20482 12.9535 8.07707 12.831C7.43132 12.2168 7.0752 11.4002 7.0752 10.5318C7.0752 8.73183 8.6117 7.26766 10.4999 7.26766C11.4082 7.26766 12.2902 7.61683 12.9193 8.226C13.1731 8.47266 13.1704 8.86766 12.9114 9.10933C12.6533 9.35266 12.2386 9.3485 11.9839 9.1035C11.5998 8.731 11.0591 8.51766 10.4999 8.51766C9.33532 8.51766 8.3877 9.421 8.3877 10.5318C8.3877 11.066 8.60732 11.5693 9.00457 11.9477C9.26095 12.1918 9.26095 12.5868 9.00545 12.831C8.87682 12.9535 8.70882 13.0143 8.54082 13.0143Z" fill="#8C8C8C"/>
<path fill-rule="evenodd" clip-rule="evenodd" d="M10.9964 13.7427C10.6858 13.7427 10.4093 13.531 10.3515 13.2293C10.2868 12.8902 10.523 12.5643 10.88 12.5027C11.7375 12.3543 12.4165 11.706 12.5705 10.8885C12.6353 10.5493 12.9765 10.326 13.3326 10.3843C13.6896 10.4452 13.9268 10.7702 13.8629 11.1102C13.6118 12.4377 12.5075 13.491 11.1145 13.7327C11.0751 13.7393 11.0349 13.7427 10.9964 13.7427Z" fill="#8C8C8C"/>
<mask id="mask0_494_13130" style="mask-type:luminance" maskUnits="userSpaceOnUse" x="1" y="3" width="15" height="13">
<path fill-rule="evenodd" clip-rule="evenodd" d="M1.75 3.85372H15.8255V15.6022H1.75V3.85372Z" fill="white"/>
</mask>
<g mask="url(#mask0_494_13130)">
<path fill-rule="evenodd" clip-rule="evenodd" d="M5.82269 15.6022C5.68094 15.6022 5.53831 15.558 5.41756 15.4688C3.93794 14.3622 2.68756 12.7397 1.80381 10.778C1.73206 10.6197 1.73206 10.4413 1.80381 10.2838C2.69719 8.31383 3.95544 6.68299 5.44294 5.56883C8.47569 3.28299 12.5129 3.27549 15.5763 5.58549C15.8607 5.79966 15.9088 6.19299 15.6839 6.46383C15.4582 6.73299 15.0469 6.78049 14.7617 6.56549C12.1664 4.60883 8.82306 4.61549 6.25581 6.55049C4.99931 7.49216 3.92044 8.86383 3.12419 10.5322C3.91256 12.1905 4.98181 13.5538 6.22869 14.4855C6.51394 14.6988 6.56294 15.0922 6.33894 15.363C6.20944 15.5197 6.01694 15.6022 5.82269 15.6022Z" fill="#8C8C8C"/>
</g>
<mask id="mask1_494_13130" style="mask-type:luminance" maskUnits="userSpaceOnUse" x="7" y="7" width="13" height="11">
<path fill-rule="evenodd" clip-rule="evenodd" d="M7.62769 7.28432H19.2499V17.2412H7.62769V7.28432Z" fill="white"/>
</mask>
<g mask="url(#mask1_494_13130)">
<path fill-rule="evenodd" clip-rule="evenodd" d="M10.5 17.2412C9.68011 17.2412 8.86461 17.1145 8.07711 16.8653C7.73324 16.7562 7.54686 16.402 7.66149 16.0745C7.77611 15.7462 8.14624 15.572 8.49186 15.6787C9.14549 15.8862 9.82099 15.9912 10.5 15.9912C13.4995 15.9912 16.2409 13.9562 17.8762 10.5303C17.4772 9.69783 17.0126 8.94366 16.4929 8.28533C16.275 8.0095 16.3327 7.617 16.6224 7.4095C16.9111 7.202 17.3232 7.25866 17.5411 7.53366C18.1746 8.3345 18.7311 9.26033 19.1957 10.282C19.2684 10.4403 19.2684 10.6203 19.1957 10.7778C17.3617 14.8253 14.1111 17.2412 10.5 17.2412Z" fill="#8C8C8C"/>
</g>
<mask id="mask2_494_13130" style="mask-type:luminance" maskUnits="userSpaceOnUse" x="2" y="3" width="17" height="15">
<path fill-rule="evenodd" clip-rule="evenodd" d="M2.94312 3.33366H18.0574V17.7278H2.94312V3.33366Z" fill="white"/>
</mask>
<g mask="url(#mask2_494_13130)">
<path fill-rule="evenodd" clip-rule="evenodd" d="M3.59915 17.7278C3.43115 17.7278 3.26315 17.667 3.1354 17.5445C2.87902 17.3003 2.87902 16.9053 3.1354 16.6612L16.9376 3.51616C17.194 3.272 17.6088 3.272 17.8651 3.51616C18.1215 3.76033 18.1215 4.15616 17.8651 4.40033L4.0629 17.5445C3.93515 17.667 3.76715 17.7278 3.59915 17.7278Z" fill="#8C8C8C"/>
</g>
</svg>
