<svg width="22" height="22" viewBox="0 0 22 22" fill="none" xmlns="http://www.w3.org/2000/svg">
<path d="M20.8538 11C20.8538 16.4358 16.4355 20.8542 10.9997 20.8542C5.56384 20.8542 1.14551 16.4358 1.14551 11C1.14551 5.56416 5.56384 1.14583 10.9997 1.14583C16.4355 1.14583 20.8538 5.56416 20.8538 11ZM2.52051 11C2.52051 15.675 6.32467 19.4792 10.9997 19.4792C15.6747 19.4792 19.4788 15.675 19.4788 11C19.4788 6.32499 15.6747 2.52083 10.9997 2.52083C6.32467 2.52083 2.52051 6.32499 2.52051 11Z" fill="#292D32"/>
<path d="M14.9235 9.84501C14.9235 10.0192 14.8593 10.1933 14.7218 10.3308L11.486 13.5667C11.2201 13.8325 10.7801 13.8325 10.5143 13.5667L7.27848 10.3308C7.01264 10.065 7.01264 9.62501 7.27848 9.35918C7.54431 9.09334 7.98431 9.09334 8.25014 9.35918L11.0001 12.1092L13.7501 9.35918C14.016 9.09334 14.456 9.09334 14.7218 9.35918C14.8593 9.48751 14.9235 9.66168 14.9235 9.84501Z" fill="#292D32"/>
</svg>
