<svg width="21" height="21" viewBox="0 0 21 21" fill="none" xmlns="http://www.w3.org/2000/svg">
<path fill-rule="evenodd" clip-rule="evenodd" d="M10.5 3.0625C6.39888 3.0625 3.0625 6.39888 3.0625 10.5C3.0625 14.6011 6.39888 17.9375 10.5 17.9375C14.6011 17.9375 17.9375 14.6011 17.9375 10.5C17.9375 6.39888 14.6011 3.0625 10.5 3.0625ZM10.5 19.25C5.67525 19.25 1.75 15.3247 1.75 10.5C1.75 5.67525 5.67525 1.75 10.5 1.75C15.3247 1.75 19.25 5.67525 19.25 10.5C19.25 15.3247 15.3247 19.25 10.5 19.25Z" fill="#F08A31"/>
<path fill-rule="evenodd" clip-rule="evenodd" d="M10.4998 12.9447C10.3257 12.9447 10.1577 12.8756 10.0352 12.7513L6.99805 9.70108C6.74167 9.44383 6.74342 9.02821 6.9998 8.77271C7.25705 8.51721 7.67267 8.51721 7.92817 8.77446L10.4998 11.3592L13.0723 8.77446C13.3278 8.51721 13.7434 8.51721 14.0007 8.77271C14.257 9.02821 14.2579 9.44383 14.0024 9.70108L10.9644 12.7513C10.8419 12.8756 10.6739 12.9447 10.4998 12.9447Z" fill="#F08A31"/>
</svg>
