<svg width="25" height="25" viewBox="0 0 25 25" fill="none" xmlns="http://www.w3.org/2000/svg">
<path fill-rule="evenodd" clip-rule="evenodd" d="M12.7566 22.9163C11.3451 22.9163 9.96908 22.9007 8.60762 22.8725C6.86595 22.8382 5.66074 21.709 5.46387 19.9257C5.13574 16.9673 4.57429 9.99442 4.56908 9.92463C4.53366 9.49442 4.85449 9.11734 5.2847 9.08296C5.70866 9.0715 6.09199 9.36942 6.12637 9.79859C6.13158 9.86942 6.69199 16.8184 7.01699 19.7538C7.12845 20.7673 7.67533 21.2903 8.63991 21.31C11.2441 21.3653 13.9014 21.3684 16.766 21.3163C17.791 21.2965 18.3451 20.784 18.4597 19.7465C18.7826 16.8361 19.3451 9.86942 19.3514 9.79859C19.3857 9.36942 19.766 9.06942 20.192 9.08296C20.6222 9.11838 20.943 9.49442 20.9087 9.92463C20.9024 9.99546 20.3378 16.9861 20.0128 19.9184C19.8107 21.7382 18.6087 22.8455 16.7941 22.8788C15.4055 22.9028 14.066 22.9163 12.7566 22.9163Z" fill="#FB2323"/>
<path fill-rule="evenodd" clip-rule="evenodd" d="M21.5708 7.28027H3.90625C3.475 7.28027 3.125 6.93027 3.125 6.49902C3.125 6.06777 3.475 5.71777 3.90625 5.71777H21.5708C22.0021 5.71777 22.3521 6.06777 22.3521 6.49902C22.3521 6.93027 22.0021 7.28027 21.5708 7.28027Z" fill="#FB2323"/>
<path fill-rule="evenodd" clip-rule="evenodd" d="M18.1669 7.28037C16.9814 7.28037 15.9523 6.43558 15.7189 5.27308L15.4658 4.00641C15.4127 3.8137 15.1929 3.646 14.9429 3.646H10.5335C10.2835 3.646 10.0637 3.8137 10.0002 4.05433L9.75749 5.27308C9.5252 6.43558 8.49499 7.28037 7.30957 7.28037C6.87832 7.28037 6.52832 6.93037 6.52832 6.49912C6.52832 6.06787 6.87832 5.71787 7.30957 5.71787C7.75332 5.71787 8.13874 5.4012 8.22624 4.96579L8.47936 3.69912C8.73665 2.72829 9.57728 2.0835 10.5335 2.0835H14.9429C15.8992 2.0835 16.7398 2.72829 16.9867 3.65225L17.2512 4.96579C17.3377 5.4012 17.7231 5.71787 18.1669 5.71787C18.5981 5.71787 18.9481 6.06787 18.9481 6.49912C18.9481 6.93037 18.5981 7.28037 18.1669 7.28037Z" fill="#FB2323"/>
</svg>
