<svg width="80" height="23" viewBox="0 0 80 23" fill="none" xmlns="http://www.w3.org/2000/svg">
<path d="M1.00238 20.4964L5.68148 18.7185C6.10061 18.5593 6.36292 18.1409 6.32372 17.6943L5.79793 11.7026C5.70569 10.6516 7.09123 10.1903 7.64747 11.0868L11.3627 17.0748C11.6635 17.5597 12.308 17.6958 12.7792 17.3739L19.6577 12.6756C20.1241 12.357 20.7615 12.4867 21.0663 12.9621L25.4636 19.8208C25.9696 20.6102 27.1858 20.334 27.3014 19.4035L29.478 1.88193C29.6034 0.872499 30.9792 0.670632 31.3893 1.60149L37.8582 16.2846C38.2092 17.0814 39.3395 17.0821 39.6915 16.2857L44.0027 6.53135C44.38 5.67784 45.6165 5.75808 45.8803 6.65318L50.1752 21.2277C50.4295 22.0909 51.6046 22.2072 52.0232 21.4107L57.1989 11.5626C57.5073 10.9757 58.2906 10.8448 58.7731 11.2996L62.7786 15.0753L68.013 20.954C68.4726 21.4702 69.3046 21.377 69.6386 20.7718L78.998 3.81237" stroke="#3E6FCF" stroke-width="2" stroke-linecap="round"/>
</svg>
