<svg width="24" height="24" viewBox="0 0 24 24" fill="none" xmlns="http://www.w3.org/2000/svg">
<path d="M3.10012 9.85L2.51012 19.74C2.49012 20.01 2.62012 20.19 2.69012 20.27C2.77012 20.36 2.94012 20.5 3.22012 20.5H5.95012L3.79012 9.85H3.10012ZM2.00012 6L2.01012 6.02C1.99012 6.26 2.01012 6.51 2.07012 6.76L9.44012 20.29C9.68012 21.3 10.5801 22 11.6201 22H3.22012C1.93012 22 0.910117 20.91 1.01012 19.62L2.00012 6Z" fill="#3E6FCF"/>
<path d="M12.5498 2.24039C12.4498 1.84039 12.6998 1.43039 13.0998 1.33039C13.4998 1.24039 13.9098 1.48039 14.0098 1.88039L14.5098 3.95039H12.9698L12.5498 2.24039Z" fill="#3E6FCF"/>
<path d="M5.95012 2.20957C5.86012 1.79957 6.12012 1.40957 6.53012 1.31957C6.93012 1.22957 7.33012 1.48957 7.42012 1.89957L7.87012 3.96957H6.33012L5.95012 2.20957Z" fill="#3E6FCF"/>
<path d="M2.18025 5.33043C2.51025 4.53043 3.29025 3.96043 4.25025 3.96043H6.33025L6.89025 6.55043C6.97025 6.90043 7.28025 7.14043 7.62025 7.14043C7.67025 7.14043 7.73025 7.14043 7.78025 7.12043C8.18025 7.03043 8.44024 6.63043 8.36024 6.23043L7.87025 3.95043H12.9702L13.6002 6.55043C13.6802 6.89043 13.9902 7.12043 14.3302 7.12043C14.3902 7.12043 14.4502 7.11043 14.5102 7.10043C14.9102 7.00043 15.1602 6.60043 15.0602 6.19043L14.5202 3.94043H16.5502C17.5302 3.94043 18.4002 4.58043 18.6902 5.52043L22.9002 19.0704C23.3402 20.5204 22.2702 22.0004 20.7602 22.0004H7.62025C6.58025 22.0004 5.68025 21.3004 5.44025 20.2904L2.07025 6.76043C2.01025 6.51043 1.99025 6.26043 2.01025 6.02043C2.03025 5.78043 2.08025 5.54043 2.18025 5.33043ZM9.30025 16.7504H17.3002C17.7102 16.7504 18.0502 16.4104 18.0502 16.0004C18.0502 15.5904 17.7102 15.2504 17.3002 15.2504H9.30025C8.89025 15.2504 8.55025 15.5904 8.55025 16.0004C8.55025 16.4104 8.89025 16.7504 9.30025 16.7504ZM8.30025 12.7504H16.3002C16.7102 12.7504 17.0502 12.4104 17.0502 12.0004C17.0502 11.5904 16.7102 11.2504 16.3002 11.2504H8.30025C7.89025 11.2504 7.55024 11.5904 7.55024 12.0004C7.55024 12.4104 7.89025 12.7504 8.30025 12.7504Z" fill="#3E6FCF"/>
</svg>
