<svg width="22" height="22" viewBox="0 0 22 22" fill="none" xmlns="http://www.w3.org/2000/svg">
<path d="M14.9231 20.2583H11.4398C10.9264 20.2583 9.80809 20.1025 9.21225 19.5066L6.43475 17.3616L7.27809 16.2708L10.1198 18.4708C10.3489 18.6908 10.9264 18.8741 11.4398 18.8741H14.9231C15.7481 18.8741 16.6373 18.2141 16.8206 17.4716L19.0389 10.7341C19.1856 10.3308 19.1581 9.96412 18.9656 9.69828C18.7639 9.41412 18.3973 9.24912 17.9481 9.24912H14.2814C13.8048 9.24912 13.3648 9.04745 13.0623 8.69912C12.7506 8.34162 12.6131 7.86495 12.6864 7.36995L13.1448 4.42745C13.2548 3.91412 12.9064 3.33662 12.4114 3.17162C11.9623 3.00662 11.3848 3.24495 11.1831 3.53828L7.42475 9.12995L6.28809 8.36912L10.0464 2.77745C10.6239 1.91578 11.8889 1.50328 12.8789 1.87912C14.0248 2.25495 14.7581 3.51995 14.5014 4.69328L14.0523 7.58078C14.0431 7.64495 14.0431 7.73662 14.1073 7.80995C14.1531 7.85578 14.2173 7.88328 14.2906 7.88328H17.9573C18.8556 7.88328 19.6348 8.25912 20.0931 8.90995C20.5423 9.54245 20.6339 10.3766 20.3406 11.1833L18.1498 17.8566C17.8106 19.1858 16.3989 20.2583 14.9231 20.2583Z" fill="#8C8C8C"/>
<path d="M4.93164 19.2499H4.01497C2.31914 19.2499 1.49414 18.4524 1.49414 16.8207V7.83737C1.49414 6.2057 2.31914 5.4082 4.01497 5.4082H4.93164C6.62747 5.4082 7.45247 6.2057 7.45247 7.83737V16.8207C7.45247 18.4524 6.62747 19.2499 4.93164 19.2499ZM4.01497 6.7832C3.01581 6.7832 2.86914 7.02154 2.86914 7.83737V16.8207C2.86914 17.6365 3.01581 17.8749 4.01497 17.8749H4.93164C5.93081 17.8749 6.07747 17.6365 6.07747 16.8207V7.83737C6.07747 7.02154 5.93081 6.7832 4.93164 6.7832H4.01497Z" fill="#8C8C8C"/>
</svg>
