<svg width="19" height="17" viewBox="0 0 19 17" fill="none" xmlns="http://www.w3.org/2000/svg">
<path d="M10.1929 0.212259V13.6881C10.1921 13.731 10.2037 13.7733 10.2262 13.8099C10.2488 13.8464 10.2815 13.8757 10.3203 13.8943C10.3591 13.9128 10.4025 13.9197 10.4452 13.9143C10.4879 13.9089 10.5281 13.8913 10.5611 13.8637L18.9155 7.12577C18.9419 7.1065 18.9635 7.08123 18.9783 7.05209C18.9931 7.02296 19.0009 6.99083 19.0009 6.95815C19.0009 6.92547 18.9931 6.89334 18.9783 6.8642C18.9635 6.83507 18.9419 6.8098 18.9155 6.79053L10.5611 0.052631C10.5292 0.0258206 10.4904 0.00835462 10.4491 0.00234528C10.4078 -0.00366407 10.3656 0.00192664 10.3274 0.0185225C10.2891 0.0351183 10.2563 0.0620712 10.2325 0.0962899C10.2088 0.130509 10.1951 0.17069 10.1929 0.212259Z" fill="#363636"/>
<path d="M10.5613 10.1915C9.62823 9.88627 8.64068 9.78275 7.66443 9.888C6.57342 10.0148 5.52117 10.3684 4.57556 10.9259C3.53515 11.5353 2.63532 12.3569 1.93481 13.3369C1.16211 14.4016 0.617324 15.6136 0.334345 16.8974H0.222301C-0.0741005 15.4756 -0.0741005 14.0083 0.222301 12.5865C0.540157 11.0558 1.16631 9.60535 2.06282 8.32329C3.01679 6.94671 4.2421 5.77861 5.66386 4.89041C7.18543 3.93895 8.88382 3.30369 10.6573 3.02244L10.5613 10.1915Z" fill="#363636"/>
</svg>
