<svg width="26" height="24" viewBox="0 0 26 24" fill="none" xmlns="http://www.w3.org/2000/svg">
<path d="M17.1591 11.9999L12.9492 15.0093C12.8893 15.0046 12.8294 14.9999 12.7696 14.9999C11.8867 14.9999 11.1734 15.6703 11.1734 16.4999C11.1734 17.3296 11.8867 17.9999 12.7696 17.9999C13.6525 17.9999 14.3658 17.3296 14.3658 16.4999C14.3658 16.4437 14.3608 16.3874 14.3558 16.3312L17.5581 12.3749L17.1591 11.9999Z" fill="black"/>
<path d="M12.7702 4.50004C6.60004 4.50004 1.59705 9.2016 1.59705 15C1.59705 16.6125 1.98611 18.136 2.67446 19.5H4.47514C3.70698 18.2532 3.26803 16.8469 3.20319 15.375H4.78938V14.625H3.20319C3.26305 13.275 3.63715 11.9766 4.29058 10.8094L5.66229 11.5547L6.06133 10.9032L4.68962 10.1625C5.05874 9.61879 5.49768 9.10316 5.99649 8.63441C6.50527 8.16098 7.05894 7.74379 7.64752 7.39223L8.43563 8.67191L9.12897 8.29691L8.34086 7.01723C9.57789 6.40785 10.9446 6.06566 12.3712 6.00941V7.50004H13.1693V6.00941C14.5958 6.06566 15.9626 6.41254 17.1996 7.01723L16.4165 8.29691L17.1098 8.67191L17.8979 7.39223C18.4865 7.74379 19.0402 8.16098 19.549 8.63441C20.0478 9.10316 20.4817 9.6141 20.8558 10.1625L19.4891 10.9032L19.8881 11.5547L21.2599 10.8094C21.9133 11.9766 22.2874 13.275 22.3472 14.625H20.7511V15.375H22.3373C22.2724 16.8469 21.8335 18.2532 21.0653 19.5H22.866C23.5543 18.136 23.9434 16.6125 23.9434 15C23.9434 9.2016 18.9404 4.50004 12.7702 4.50004Z" fill="black"/>
</svg>
