<svg width="22" height="22" viewBox="0 0 22 22" fill="none" xmlns="http://www.w3.org/2000/svg">
<path d="M16.069 7.12251C16.0048 7.11334 15.9406 7.11334 15.8765 7.12251C14.4556 7.07668 13.3281 5.91251 13.3281 4.48251C13.3281 3.02501 14.5106 1.83334 15.9773 1.83334C17.4348 1.83334 18.6265 3.01584 18.6265 4.48251C18.6173 5.91251 17.4898 7.07668 16.069 7.12251Z" fill="#F08A31"/>
<path d="M19.0576 13.475C18.031 14.1625 16.5918 14.4192 15.2626 14.245C15.611 13.4933 15.7943 12.6592 15.8035 11.7792C15.8035 10.8625 15.6018 9.99167 15.2168 9.23084C16.5735 9.0475 18.0126 9.30417 19.0485 9.99167C20.4968 10.945 20.4968 12.5125 19.0576 13.475Z" fill="#F08A31"/>
<path d="M5.9038 7.12251C5.96797 7.11334 6.03214 7.11334 6.0963 7.12251C7.51714 7.07668 8.64464 5.91251 8.64464 4.48251C8.64464 3.01584 7.46214 1.83334 5.99547 1.83334C4.53797 1.83334 3.35547 3.01584 3.35547 4.48251C3.35547 5.91251 4.48297 7.07668 5.9038 7.12251Z" fill="#F08A31"/>
<path d="M6.00452 11.7792C6.00452 12.6683 6.19702 13.5117 6.54535 14.2725C5.25285 14.41 3.90535 14.135 2.91535 13.4842C1.46702 12.5217 1.46702 10.9542 2.91535 9.99166C3.89618 9.33166 5.28035 9.06583 6.58202 9.21249C6.20618 9.98249 6.00452 10.8533 6.00452 11.7792Z" fill="#F08A31"/>
<path d="M11.1104 14.5475C11.0371 14.5383 10.9546 14.5383 10.8721 14.5475C9.18539 14.4925 7.83789 13.1083 7.83789 11.4033C7.84706 9.66167 9.24956 8.25 11.0004 8.25C12.7421 8.25 14.1537 9.66167 14.1537 11.4033C14.1446 13.1083 12.8062 14.4925 11.1104 14.5475Z" fill="#F08A31"/>
<path d="M8.1309 16.445C6.74673 17.3708 6.74673 18.8925 8.1309 19.8092C9.70757 20.8633 12.2926 20.8633 13.8692 19.8092C15.2534 18.8833 15.2534 17.3617 13.8692 16.445C12.3017 15.3908 9.71673 15.3908 8.1309 16.445Z" fill="#F08A31"/>
</svg>
