<svg width="22" height="22" viewBox="0 0 22 22" fill="none" xmlns="http://www.w3.org/2000/svg">
<path d="M11.0007 20.8541C5.56482 20.8541 1.14648 16.4358 1.14648 10.9999C1.14648 5.56409 5.56482 1.14575 11.0007 1.14575C16.4365 1.14575 20.8548 5.56409 20.8548 10.9999C20.8548 16.4358 16.4365 20.8541 11.0007 20.8541ZM11.0007 2.52075C6.32565 2.52075 2.52148 6.32492 2.52148 10.9999C2.52148 15.6749 6.32565 19.4791 11.0007 19.4791C15.6757 19.4791 19.4798 15.6749 19.4798 10.9999C19.4798 6.32492 15.6757 2.52075 11.0007 2.52075Z" fill="#292D32"/>
<path d="M12.1554 14.9232C11.9813 14.9232 11.8071 14.8591 11.6696 14.7216L8.43375 11.4857C8.16792 11.2199 8.16792 10.7799 8.43375 10.5141L11.6696 7.27823C11.9354 7.0124 12.3754 7.0124 12.6413 7.27823C12.9071 7.54407 12.9071 7.98407 12.6413 8.2499L9.89125 10.9999L12.6413 13.7499C12.9071 14.0157 12.9071 14.4557 12.6413 14.7216C12.5129 14.8591 12.3388 14.9232 12.1554 14.9232Z" fill="#292D32"/>
</svg>
