<svg width="22" height="22" viewBox="0 0 22 22" fill="none" xmlns="http://www.w3.org/2000/svg">
<path d="M13.4938 20.8542H8.55301C7.96634 20.8542 7.45299 20.8175 6.98549 20.7533C6.60966 20.6983 6.34381 20.35 6.39881 19.9742C6.45381 19.5984 6.79301 19.3234 7.17801 19.3875C7.58135 19.4425 8.0305 19.47 8.54384 19.47H13.4847C17.2338 19.47 18.563 18.1408 18.563 14.3916V10.2758C18.563 9.89996 18.8747 9.58829 19.2505 9.58829C19.6263 9.58829 19.938 9.89996 19.938 10.2758V14.3916C19.9472 18.92 18.013 20.8542 13.4938 20.8542Z" fill="black"/>
<path d="M2.78711 14.9142C2.41128 14.9142 2.09961 14.6025 2.09961 14.2267V10.285C2.09961 9.90914 2.41128 9.59747 2.78711 9.59747C3.16294 9.59747 3.47461 9.90914 3.47461 10.285V14.2267C3.47461 14.6025 3.16294 14.9142 2.78711 14.9142Z" fill="black"/>
<path d="M11.0275 11.6875C10.0191 11.6875 9.10242 11.2934 8.45159 10.5692C7.80075 9.84503 7.49826 8.90082 7.59909 7.89249L8.2133 1.76921C8.24997 1.42088 8.5433 1.14583 8.9008 1.14583H13.1816C13.5391 1.14583 13.8325 1.41171 13.8691 1.76921L14.4833 7.89249C14.5841 8.90082 14.2816 9.84503 13.6308 10.5692C12.9524 11.2934 12.0358 11.6875 11.0275 11.6875ZM9.50578 2.52083L8.9558 8.03001C8.89163 8.64417 9.07495 9.22168 9.45995 9.64335C10.2391 10.505 11.7974 10.505 12.5766 9.64335C12.9616 9.21252 13.145 8.63501 13.0808 8.03001L12.5308 2.52083H9.50578Z" fill="black"/>
<path d="M16.8026 11.6875C14.9417 11.6875 13.2826 10.1841 13.0901 8.33247L12.4484 1.90663C12.4301 1.71413 12.4942 1.52167 12.6226 1.375C12.7509 1.22833 12.9342 1.14583 13.1359 1.14583H15.9317C18.6267 1.14583 19.8825 2.27333 20.2584 5.04167L20.515 7.59003C20.625 8.67169 20.295 9.69838 19.5892 10.4775C18.8834 11.2567 17.8934 11.6875 16.8026 11.6875ZM13.8967 2.52083L14.4651 8.19495C14.5842 9.34078 15.6567 10.3125 16.8026 10.3125C17.4992 10.3125 18.1226 10.0467 18.5717 9.56088C19.0117 9.07505 19.2134 8.42421 19.1492 7.72755L18.8925 5.20671C18.6084 3.13505 17.9392 2.52083 15.9317 2.52083H13.8967Z" fill="black"/>
<path d="M5.19711 11.6875C4.10627 11.6875 3.11629 11.2567 2.41046 10.4775C1.70463 9.69838 1.37462 8.67169 1.48462 7.59003L1.74131 5.06919C2.12631 2.27336 3.38213 1.14583 6.07713 1.14583H8.87295C9.06545 1.14583 9.24878 1.22833 9.38628 1.375C9.51462 1.52167 9.57878 1.71413 9.56045 1.90663L8.91877 8.33247C8.71711 10.1841 7.04877 11.6875 5.19711 11.6875ZM6.06795 2.52083C4.06045 2.52083 3.39129 3.12579 3.09796 5.22495L2.85044 7.71837C2.77711 8.41504 2.98795 9.06587 3.42795 9.55171C3.86795 10.0375 4.50044 10.3033 5.19711 10.3033C6.35211 10.3033 7.4246 9.33171 7.5346 8.18588L8.10298 2.51166H6.06795V2.52083Z" fill="black"/>
<path d="M4.58366 21.7708C3.30033 21.7708 2.09951 21.2116 1.27451 20.2308C1.26534 20.2216 1.22866 20.185 1.20116 20.1391C1.06366 19.9741 0.944485 19.8092 0.852819 19.635C0.449485 18.9842 0.229492 18.2142 0.229492 17.4075C0.229492 16.0692 0.825352 14.8317 1.86119 14.0067C2.04452 13.86 2.24616 13.7225 2.46616 13.6033C3.09866 13.2458 3.84116 13.0442 4.58366 13.0442C5.64699 13.0442 6.62785 13.4108 7.41618 14.0983C7.51702 14.1717 7.65447 14.3092 7.77364 14.4375C8.51614 15.2533 8.92865 16.2983 8.92865 17.3891C8.92865 18.1866 8.70865 18.9659 8.29615 19.635C8.09448 19.9834 7.847 20.2858 7.572 20.5242C7.517 20.5792 7.462 20.6342 7.39783 20.6801C6.67367 21.3859 5.65616 21.7708 4.58366 21.7708ZM2.27364 19.2867C2.30114 19.3142 2.34697 19.3599 2.38364 19.4241C2.8878 20.0199 3.71283 20.405 4.58366 20.405C5.30783 20.405 6.0045 20.1391 6.53616 19.6625C6.56366 19.6258 6.60033 19.5891 6.64616 19.5616C6.82949 19.4058 6.98535 19.2041 7.13202 18.9658C7.41619 18.4983 7.572 17.9758 7.572 17.4258C7.572 16.6833 7.28784 15.9592 6.77451 15.4C6.71034 15.3267 6.64613 15.2533 6.56363 15.1983C5.57363 14.3458 4.21698 14.2176 3.13531 14.8317C2.98864 14.9142 2.86032 14.9966 2.74115 15.0975C2.02615 15.6658 1.61367 16.5092 1.61367 17.4258C1.61367 17.9667 1.76031 18.4984 2.04447 18.9567C2.11781 19.0851 2.19114 19.1859 2.27364 19.2775C2.26447 19.2775 2.27364 19.2775 2.27364 19.2867Z" fill="black"/>
<path d="M5.95762 18.0858H3.2168C2.84096 18.0858 2.5293 17.7741 2.5293 17.3983C2.5293 17.0225 2.84096 16.7108 3.2168 16.7108H5.95762C6.33345 16.7108 6.64512 17.0225 6.64512 17.3983C6.64512 17.7741 6.33345 18.0858 5.95762 18.0858Z" fill="black"/>
<path d="M4.58301 19.4883C4.20717 19.4883 3.89551 19.1767 3.89551 18.8008V16.06C3.89551 15.6842 4.20717 15.3725 4.58301 15.3725C4.95884 15.3725 5.27051 15.6842 5.27051 16.06V18.8008C5.27051 19.1858 4.95884 19.4883 4.58301 19.4883Z" fill="black"/>
</svg>
