<svg width="18" height="18" viewBox="0 0 18 18" fill="none" xmlns="http://www.w3.org/2000/svg">
<path d="M12.6301 4.34734C12.9148 4.34734 13.1502 4.55896 13.1874 4.83352L13.1926 4.90984V15.1232C13.1926 15.4338 12.9407 15.6857 12.6301 15.6857C12.3453 15.6857 12.11 15.4741 12.0727 15.1995L12.0676 15.1232V4.90984C12.0676 4.59918 12.3194 4.34734 12.6301 4.34734Z" fill="#494949"/>
<path d="M15.2896 11.6543C15.5087 11.4341 15.8649 11.4333 16.085 11.6524C16.2852 11.8517 16.3041 12.1641 16.1412 12.3847L16.0869 12.4479L13.0286 15.5204C12.8287 15.7212 12.515 15.7395 12.2944 15.5752L12.2312 15.5204L9.17289 12.4479C8.95373 12.2277 8.95455 11.8716 9.17473 11.6524C9.37489 11.4532 9.68743 11.4358 9.90726 11.5997L9.97022 11.6543L12.6296 14.3258L15.2896 11.6543Z" fill="#494949"/>
<path d="M5.18406 2.31219C5.46883 2.31219 5.70418 2.5238 5.74143 2.79836L5.74656 2.87469V13.088C5.74656 13.3987 5.49472 13.6505 5.18406 13.6505C4.89929 13.6505 4.66394 13.4389 4.6267 13.1643L4.62156 13.088V2.87469C4.62156 2.56403 4.8734 2.31219 5.18406 2.31219Z" fill="#494949"/>
<path d="M4.78521 2.47743C4.9851 2.27662 5.29879 2.25836 5.51937 2.42267L5.58254 2.47743L8.64087 5.54993C8.86003 5.77011 8.85921 6.12626 8.63904 6.34542C8.43887 6.54466 8.12634 6.56209 7.9065 6.39819L7.84354 6.34358L5.18371 3.67126L2.52421 6.34358C2.32497 6.54375 2.01252 6.56262 1.79193 6.39974L1.72872 6.34542C1.52856 6.14618 1.50968 5.83373 1.67256 5.61314L1.72688 5.54993L4.78521 2.47743Z" fill="#494949"/>
</svg>
