<svg width="22" height="22" viewBox="0 0 22 22" fill="none" xmlns="http://www.w3.org/2000/svg">
<path fill-rule="evenodd" clip-rule="evenodd" d="M3.01482 3.7472L3.08132 3.6777C4.84813 1.91074 5.99869 1.44238 7.22631 2.14832C7.57944 2.35138 7.91049 2.63563 8.36066 3.09284L9.7415 4.5247C10.5042 5.35693 10.6776 6.15521 10.4292 7.0901L10.395 7.21386L10.357 7.33692L10.1724 7.87851C9.77735 9.09308 9.9423 9.77834 11.348 11.1837C12.8098 12.6451 13.4922 12.7647 14.8004 12.3075L15.0336 12.2265L15.3155 12.1349L15.4389 12.1007C16.4326 11.8355 17.272 12.0471 18.1623 12.9367L19.2748 14.0114L19.6024 14.3335C19.9655 14.7038 20.2054 14.9972 20.3827 15.3073C21.0842 16.5346 20.6154 17.6844 18.7976 19.4954L18.6247 19.6706C18.3533 19.9322 18.0997 20.1196 17.7272 20.2965C17.1019 20.5933 16.3632 20.7053 15.5048 20.5859C13.3897 20.2917 10.707 18.6228 7.30772 15.2244C7.03101 14.9478 6.76599 14.6765 6.51239 14.4104L6.02035 13.8853C1.40965 8.87594 1.00289 5.79872 2.89241 3.86879L3.01482 3.7472ZM7.24771 3.92418C6.94906 3.62976 6.73213 3.45027 6.54087 3.34029C6.11781 3.09701 5.66103 3.19985 4.81568 3.92743L4.55006 4.16473C4.50373 4.2075 4.45634 4.2519 4.40785 4.29796L4.10326 4.59462L4.07582 4.62891L3.86933 4.83636C3.37034 5.34604 3.13398 5.96808 3.33766 7.03786C3.67188 8.7933 5.20171 11.1747 8.27987 14.252C11.4872 17.4585 13.9309 18.9788 15.6942 19.224C16.7222 19.367 17.2465 19.118 17.7812 18.5702L18.189 18.1587C18.3802 17.9586 18.5436 17.7772 18.6816 17.6115L18.8698 17.3744C19.3507 16.7338 19.3947 16.3495 19.189 15.9897C19.1107 15.8528 18.9969 15.7027 18.8311 15.5192L18.6063 15.2818L18.4733 15.1486L17.0697 13.7933C16.6006 13.3607 16.2801 13.2993 15.7934 13.4292L15.6529 13.4696L15.0714 13.667C13.3847 14.2117 12.1678 13.9476 10.3759 12.1561C8.51993 10.3006 8.30227 9.06159 8.92412 7.27757L8.96401 7.16293L9.07432 6.83057L9.12854 6.61873C9.2247 6.15767 9.11492 5.83621 8.6193 5.3405C8.59889 5.3201 8.57608 5.29711 8.55126 5.27193L7.24771 3.92418Z" fill="#3E6FCF"/>
</svg>
