<svg width="128" height="30" viewBox="0 0 128 30" fill="none" xmlns="http://www.w3.org/2000/svg">
<g filter="url(#filter0_d_796_24347)">
<path d="M0 29.3361C4.99512 27.6707 16.2341 25.3392 21.2293 29.3361C27.4732 34.3323 30.5951 9.3513 31.8439 13.5788C33.0927 17.8064 33.0927 30.1048 37.4634 27.0302C40.96 24.5706 43.0829 21.6497 43.7073 20.4967C44.748 19.0876 47.079 18.4214 48.078 27.0302C49.3268 37.7912 60.5659 -6.79014 63.6878 0.896304C66.8098 8.58275 68.6829 31.6421 71.1805 27.0302C73.678 22.4183 76.1756 7.04541 79.2976 14.7319C82.4195 22.4183 85.5415 27.4146 87.4146 20.4967C89.2878 13.5788 94.2829 0.896252 95.5317 9.35134C96.7805 17.8064 96.1561 26.6458 98.6537 23.5713C101.151 20.4967 113.639 6.27676 128 6.66109" stroke="#F08A31" stroke-width="1.5"/>
</g>
<defs>
<filter id="filter0_d_796_24347" x="-6.23633" y="-2.75117" width="140.256" height="43.5016" filterUnits="userSpaceOnUse" color-interpolation-filters="sRGB">
<feFlood flood-opacity="0" result="BackgroundImageFix"/>
<feColorMatrix in="SourceAlpha" type="matrix" values="0 0 0 0 0 0 0 0 0 0 0 0 0 0 0 0 0 0 127 0" result="hardAlpha"/>
<feOffset dy="4"/>
<feGaussianBlur stdDeviation="3"/>
<feComposite in2="hardAlpha" operator="out"/>
<feColorMatrix type="matrix" values="0 0 0 0 0.941176 0 0 0 0 0.819608 0 0 0 0 0.192157 0 0 0 0.4 0"/>
<feBlend mode="normal" in2="BackgroundImageFix" result="effect1_dropShadow_796_24347"/>
<feBlend mode="normal" in="SourceGraphic" in2="effect1_dropShadow_796_24347" result="shape"/>
</filter>
</defs>
</svg>
