<svg width="14" height="15" viewBox="0 0 14 15" fill="none" xmlns="http://www.w3.org/2000/svg">
<path fill-rule="evenodd" clip-rule="evenodd" d="M5.87968 11.6205H2.2041C1.9626 11.6205 1.7666 11.4105 1.7666 11.1517C1.7666 10.893 1.9626 10.683 2.2041 10.683H5.87968C6.12118 10.683 6.31718 10.893 6.31718 11.1517C6.31718 11.4105 6.12118 11.6205 5.87968 11.6205Z" fill="#3E6FCF"/>
<path fill-rule="evenodd" clip-rule="evenodd" d="M11.1945 5.56274H7.51953C7.27803 5.56274 7.08203 5.35274 7.08203 5.09399C7.08203 4.83524 7.27803 4.62524 7.51953 4.62524H11.1945C11.436 4.62524 11.632 4.83524 11.632 5.09399C11.632 5.35274 11.436 5.56274 11.1945 5.56274Z" fill="#3E6FCF"/>
<mask id="mask0_498_14844" style="mask-type:luminance" maskUnits="userSpaceOnUse" x="1" y="3" width="5" height="4">
<path fill-rule="evenodd" clip-rule="evenodd" d="M1.75 3.12524H5.38172V6.99499H1.75V3.12524Z" fill="white"/>
</mask>
<g mask="url(#mask0_498_14844)">
<path fill-rule="evenodd" clip-rule="evenodd" d="M3.56592 4.0625C3.04733 4.0625 2.625 4.51 2.625 5.06062C2.625 5.61063 3.04733 6.0575 3.56592 6.0575C4.08508 6.0575 4.50683 5.61063 4.50683 5.06062C4.50683 4.51 4.08508 4.0625 3.56592 4.0625ZM3.56592 6.995C2.56492 6.995 1.75 6.1275 1.75 5.06062C1.75 3.99375 2.56492 3.125 3.56592 3.125C4.5675 3.125 5.38183 3.99375 5.38183 5.06062C5.38183 6.1275 4.5675 6.995 3.56592 6.995Z" fill="#3E6FCF"/>
</g>
<path fill-rule="evenodd" clip-rule="evenodd" d="M10.1427 10.13C9.62351 10.13 9.20117 10.5775 9.20117 11.1275C9.20117 11.6781 9.62351 12.125 10.1427 12.125C10.6613 12.125 11.083 11.6781 11.083 11.1275C11.083 10.5775 10.6613 10.13 10.1427 10.13ZM10.1427 13.0625C9.14109 13.0625 8.32617 12.1944 8.32617 11.1275C8.32617 10.0606 9.14109 9.1925 10.1427 9.1925C11.1437 9.1925 11.958 10.0606 11.958 11.1275C11.958 12.1944 11.1437 13.0625 10.1427 13.0625Z" fill="#3E6FCF"/>
</svg>
