<svg width="12" height="15" viewBox="0 0 12 15" fill="none" xmlns="http://www.w3.org/2000/svg">
<path d="M7.29441 13.7165H1.94741C1.43092 13.7165 0.935588 13.5114 0.570377 13.1462C0.205167 12.781 0 12.2856 0 11.7691V2.5357C0 2.27996 0.0503633 2.02674 0.14823 1.79047C0.246097 1.5542 0.389543 1.3395 0.570377 1.15866C0.751211 0.977827 0.965899 0.834368 1.20217 0.736501C1.43844 0.638634 1.69167 0.588284 1.94741 0.588284H7.29441C7.55014 0.588284 7.80337 0.638634 8.03964 0.736501C8.27591 0.834368 8.4906 0.977827 8.67143 1.15866C8.85227 1.3395 8.9957 1.5542 9.09357 1.79047C9.19144 2.02674 9.24181 2.27996 9.24181 2.5357V11.7691C9.24181 12.2856 9.03665 12.781 8.67143 13.1462C8.30622 13.5114 7.81089 13.7165 7.29441 13.7165ZM1.94741 1.31856C1.61492 1.31855 1.29592 1.45005 1.06004 1.68436C0.824149 1.91868 0.69052 2.23678 0.688303 2.56926V11.8027C0.69052 12.1352 0.824149 12.4533 1.06004 12.6876C1.29592 12.9219 1.61492 13.0534 1.94741 13.0534H7.29441C7.62611 13.0534 7.94424 12.9216 8.17879 12.6871C8.41334 12.4525 8.54511 12.1344 8.54511 11.8027V2.56926C8.54511 2.23755 8.41334 1.91943 8.17879 1.68488C7.94424 1.45032 7.62611 1.31856 7.29441 1.31856H1.94741Z" fill="white"/>
<path d="M10.7427 1.52454L5.26979 0.0580813C4.36525 -0.18429 3.43549 0.35252 3.19312 1.25706L0.670808 10.6704C0.428437 11.575 0.965231 12.5048 1.86977 12.7471L7.34267 14.2136C8.24721 14.456 9.17696 13.9191 9.41934 13.0146L11.9416 3.60122C12.184 2.69668 11.6472 1.76691 10.7427 1.52454Z" fill="white"/>
<path d="M5.93438 7.46924H3.99537V6.77252H5.93438V4.76634H6.65627V6.77252H8.62047V7.46924H6.65627V9.49218H5.93438V7.46924Z" fill="#864D1B"/>
</svg>
