<svg width="14" height="13" viewBox="0 0 14 13" fill="none" xmlns="http://www.w3.org/2000/svg">
<path fill-rule="evenodd" clip-rule="evenodd" d="M3.62684 1.89578C2.03085 1.89578 2.03085 2.00845 2.03085 3.38537V3.39891C2.03085 3.99854 2.03085 4.43188 2.18812 4.61496C2.34192 4.79263 2.79866 4.87496 3.62684 4.87496C4.45501 4.87496 4.91175 4.79209 5.06555 4.61442C5.22282 4.43188 5.22282 3.99854 5.22282 3.39837C5.22282 2.00845 5.22282 1.89578 3.62684 1.89578ZM3.62684 5.68747C2.64835 5.68747 1.91419 5.59159 1.51084 5.12413C1.16031 4.71842 1.16031 4.16483 1.16031 3.39891L1.59558 3.38537H1.16031C1.16031 1.83078 1.26535 1.08328 3.62684 1.08328C5.98832 1.08328 6.09336 1.83078 6.09336 3.38537C6.09336 4.16429 6.09336 4.71842 5.74283 5.12413C5.33948 5.59159 4.60532 5.68747 3.62684 5.68747Z" fill="#9D9D9D"/>
<path fill-rule="evenodd" clip-rule="evenodd" d="M10.0106 1.89578C8.4146 1.89578 8.4146 2.00845 8.4146 3.38537V3.39891C8.4146 3.99854 8.4146 4.43188 8.57187 4.61496C8.72567 4.79263 9.18241 4.87496 10.0106 4.87496C10.8388 4.87496 11.2955 4.79209 11.4493 4.61442C11.6066 4.43188 11.6066 3.99854 11.6066 3.39837C11.6066 2.00845 11.6066 1.89578 10.0106 1.89578ZM10.0106 5.68747C9.0321 5.68747 8.29794 5.59159 7.89459 5.12413C7.54406 4.71842 7.54406 4.16483 7.54406 3.39891L7.97933 3.38537H7.54406C7.54406 1.83078 7.6491 1.08328 10.0106 1.08328C12.3721 1.08328 12.4771 1.83078 12.4771 3.38537C12.4771 4.16429 12.4771 4.71842 12.1266 5.12413C11.7232 5.59159 10.9891 5.68747 10.0106 5.68747Z" fill="#9D9D9D"/>
<path fill-rule="evenodd" clip-rule="evenodd" d="M3.62684 7.85408C2.03085 7.85408 2.03085 7.96675 2.03085 9.34367V9.35721C2.03085 9.95684 2.03085 10.3902 2.18812 10.5733C2.34192 10.7509 2.79866 10.8333 3.62684 10.8333C4.45501 10.8333 4.91175 10.7504 5.06555 10.5727C5.22282 10.3902 5.22282 9.95684 5.22282 9.35667C5.22282 7.96675 5.22282 7.85408 3.62684 7.85408ZM3.62684 11.6458C2.64835 11.6458 1.91419 11.5499 1.51084 11.0824C1.16031 10.6767 1.16031 10.1231 1.16031 9.35721L1.59558 9.34367H1.16031C1.16031 7.78908 1.26535 7.04158 3.62684 7.04158C5.98832 7.04158 6.09336 7.78908 6.09336 9.34367C6.09336 10.1226 6.09336 10.6767 5.74283 11.0824C5.33948 11.5499 4.60532 11.6458 3.62684 11.6458Z" fill="#9D9D9D"/>
<path fill-rule="evenodd" clip-rule="evenodd" d="M10.0106 7.85408C8.4146 7.85408 8.4146 7.96675 8.4146 9.34367V9.35721C8.4146 9.95684 8.4146 10.3902 8.57187 10.5733C8.72567 10.7509 9.18241 10.8333 10.0106 10.8333C10.8388 10.8333 11.2955 10.7504 11.4493 10.5727C11.6066 10.3902 11.6066 9.95684 11.6066 9.35667C11.6066 7.96675 11.6066 7.85408 10.0106 7.85408ZM10.0106 11.6458C9.0321 11.6458 8.29794 11.5499 7.89459 11.0824C7.54406 10.6767 7.54406 10.1231 7.54406 9.35721L7.97933 9.34367H7.54406C7.54406 7.78908 7.6491 7.04158 10.0106 7.04158C12.3721 7.04158 12.4771 7.78908 12.4771 9.34367C12.4771 10.1226 12.4771 10.6767 12.1266 11.0824C11.7232 11.5499 10.9891 11.6458 10.0106 11.6458Z" fill="#9D9D9D"/>
</svg>
