<svg width="10" height="9" viewBox="0 0 10 9" fill="none" xmlns="http://www.w3.org/2000/svg">
<path d="M5.9425 0.332294C5.99083 0.383146 6.1975 0.575158 6.3675 0.754018C7.43667 1.80263 9.18667 4.53814 9.72083 5.9699C9.80667 6.18734 9.98833 6.73707 10 7.03078C10 7.31223 9.94 7.58052 9.81833 7.83653C9.64833 8.15567 9.38083 8.41169 9.065 8.55197C8.84583 8.64228 8.19 8.78256 8.17833 8.78256C7.46083 8.92284 6.295 9 5.00667 9C3.77917 9 2.66083 8.92284 1.9325 8.80799C1.92083 8.79484 1.10583 8.65455 0.826666 8.50112C0.316666 8.21968 -3.35264e-07 7.66995 -3.09548e-07 7.08164L-3.07325e-07 7.03078C0.0124995 6.64764 0.329167 5.84189 0.340833 5.84189C0.875833 4.48729 2.54 1.8149 3.64583 0.740867C3.64583 0.740867 3.93 0.438383 4.1075 0.306868C4.3625 0.101705 4.67833 -2.32617e-07 4.99417 -2.18812e-07C5.34667 -2.03404e-07 5.675 0.114856 5.9425 0.332294Z" fill="#F08A31"/>
</svg>
