<svg width="22" height="22" viewBox="0 0 22 22" fill="none" xmlns="http://www.w3.org/2000/svg">
<path d="M15.9955 20.8538C14.9597 20.8538 13.8688 20.6063 12.7413 20.1297C11.6413 19.6622 10.5322 19.0205 9.45051 18.2413C8.37801 17.453 7.34218 16.573 6.36134 15.6105C5.38968 14.6297 4.50968 13.5938 3.73051 12.5305C2.94217 11.4305 2.30967 10.3305 1.86051 9.26717C1.38384 8.13051 1.14551 7.03051 1.14551 5.99467C1.14551 5.27967 1.27384 4.60134 1.52134 3.96884C1.77801 3.31801 2.19051 2.71301 2.74967 2.19051C3.45551 1.49384 4.26217 1.14551 5.12384 1.14551C5.48134 1.14551 5.84801 1.22801 6.15967 1.37467C6.51717 1.53967 6.81967 1.78717 7.03967 2.11717L9.16634 5.11467C9.35884 5.38051 9.50551 5.63717 9.60634 5.89384C9.72551 6.16884 9.78968 6.44384 9.78968 6.70967C9.78968 7.05801 9.68884 7.39717 9.49634 7.71801C9.35884 7.96551 9.14801 8.23134 8.88217 8.49717L8.25884 9.14801C8.26801 9.17551 8.27717 9.19384 8.28634 9.21217C8.39634 9.40467 8.61634 9.73467 9.03801 10.2297C9.48717 10.743 9.90884 11.2105 10.3305 11.6413C10.8713 12.173 11.3205 12.5947 11.7422 12.943C12.2647 13.383 12.6038 13.603 12.8055 13.7038L12.7872 13.7497L13.4563 13.0897C13.7405 12.8055 14.0155 12.5947 14.2813 12.4572C14.7855 12.1455 15.4272 12.0905 16.0688 12.3563C16.3072 12.4572 16.5638 12.5947 16.8388 12.7872L19.8822 14.9505C20.2213 15.1797 20.4688 15.473 20.6155 15.8213C20.753 16.1697 20.8172 16.4905 20.8172 16.8113C20.8172 17.2513 20.7163 17.6913 20.5238 18.1038C20.3313 18.5163 20.093 18.8738 19.7905 19.2038C19.268 19.7813 18.6997 20.1938 18.0397 20.4597C17.4072 20.7163 16.7197 20.8538 15.9955 20.8538ZM5.12384 2.52051C4.61967 2.52051 4.15217 2.74051 3.70301 3.18051C3.28134 3.57467 2.98801 4.00551 2.80467 4.47301C2.61217 4.94967 2.52051 5.45384 2.52051 5.99467C2.52051 6.84717 2.72217 7.77301 3.12551 8.72634C3.53801 9.69801 4.11551 10.7063 4.84884 11.7147C5.58217 12.723 6.41634 13.7038 7.33301 14.6297C8.24968 15.5372 9.23967 16.3805 10.2572 17.123C11.2472 17.8472 12.2647 18.4338 13.273 18.8555C14.8405 19.5247 16.3072 19.6805 17.5172 19.1763C17.9847 18.9838 18.3972 18.6905 18.773 18.2688C18.9838 18.0397 19.1488 17.7922 19.2863 17.4988C19.3963 17.2697 19.4513 17.0313 19.4513 16.793C19.4513 16.6463 19.4238 16.4997 19.3505 16.3347C19.323 16.2797 19.268 16.1788 19.0938 16.0597L16.0505 13.8963C15.8672 13.768 15.7022 13.6763 15.5463 13.6122C15.3447 13.5297 15.2622 13.4472 14.9505 13.6397C14.7672 13.7313 14.6022 13.8688 14.4188 14.0522L13.7222 14.7397C13.3647 15.088 12.8147 15.1705 12.393 15.0147L12.1455 14.9047C11.7697 14.703 11.3297 14.3913 10.8438 13.9788C10.4038 13.603 9.92718 13.163 9.34968 12.5947C8.90051 12.1363 8.45134 11.6505 7.98384 11.1097C7.55301 10.6055 7.24134 10.1747 7.04884 9.81717L6.93884 9.54217C6.88384 9.33134 6.86551 9.21217 6.86551 9.08384C6.86551 8.75384 6.98467 8.46051 7.21384 8.23134L7.90134 7.51634C8.08467 7.33301 8.22217 7.15884 8.31384 7.00301C8.38717 6.88384 8.41468 6.78301 8.41468 6.69134C8.41468 6.61801 8.38718 6.50801 8.34134 6.39801C8.27718 6.25134 8.17634 6.08634 8.04801 5.91217L5.92134 2.90551C5.82967 2.77717 5.71968 2.68551 5.58217 2.62134C5.43551 2.55717 5.27968 2.52051 5.12384 2.52051ZM12.7872 13.7588L12.6405 14.3822L12.888 13.7405C12.8422 13.7313 12.8055 13.7405 12.7872 13.7588Z" fill="white"/>
<path d="M16.9583 8.93783C16.5825 8.93783 16.2708 8.62616 16.2708 8.25033C16.2708 7.92033 15.9408 7.23283 15.3908 6.64616C14.85 6.06866 14.2542 5.72949 13.75 5.72949C13.3742 5.72949 13.0625 5.41783 13.0625 5.04199C13.0625 4.66616 13.3742 4.35449 13.75 4.35449C14.6392 4.35449 15.5742 4.83116 16.39 5.70199C17.1508 6.51783 17.6458 7.51699 17.6458 8.25033C17.6458 8.62616 17.3342 8.93783 16.9583 8.93783Z" fill="white"/>
<path d="M20.1667 8.93717C19.7908 8.93717 19.4792 8.62551 19.4792 8.24967C19.4792 5.08717 16.9125 2.52051 13.75 2.52051C13.3742 2.52051 13.0625 2.20884 13.0625 1.83301C13.0625 1.45717 13.3742 1.14551 13.75 1.14551C17.6642 1.14551 20.8542 4.33551 20.8542 8.24967C20.8542 8.62551 20.5425 8.93717 20.1667 8.93717Z" fill="white"/>
</svg>
