<svg width="22" height="22" viewBox="0 0 22 22" fill="none" xmlns="http://www.w3.org/2000/svg">
<mask id="mask0_498_16690" style="mask-type:luminance" maskUnits="userSpaceOnUse" x="0" y="0" width="21" height="21">
<path fill-rule="evenodd" clip-rule="evenodd" d="M0.916016 0.916992H20.6179V20.6196H0.916016V0.916992Z" fill="white"/>
</mask>
<g mask="url(#mask0_498_16690)">
<path fill-rule="evenodd" clip-rule="evenodd" d="M5.59875 18.0357C6.13042 18.0357 6.63183 18.2374 7.16258 18.451C10.414 19.9543 14.2594 19.2705 16.7647 16.7662C20.0702 13.4588 20.0702 8.07891 16.7647 4.77341C15.1642 3.17291 13.0357 2.29199 10.7697 2.29199C8.50275 2.29199 6.37333 3.17383 4.77375 4.77433C2.26758 7.27866 1.58558 11.1241 3.07517 14.3443C3.28967 14.8751 3.49683 15.3921 3.49683 15.9292C3.49683 16.4655 3.31258 17.0054 3.15033 17.4821C3.0165 17.8744 2.81392 18.4666 2.94408 18.5967C3.0715 18.7287 3.66733 18.5207 4.06058 18.3859C4.53267 18.2246 5.068 18.0394 5.59875 18.0357ZM10.7467 20.6198C9.34608 20.6198 7.93625 20.3237 6.61717 19.7132C6.2285 19.5574 5.86458 19.4107 5.60333 19.4107C5.30267 19.4126 4.89842 19.5519 4.50792 19.6867C3.70675 19.9617 2.70942 20.3045 1.9715 19.5693C1.23633 18.8332 1.5755 17.8387 1.84867 17.0384C1.98342 16.6442 2.12183 16.2372 2.12183 15.9292C2.12183 15.6762 1.99992 15.3536 1.81292 14.8888C0.0959995 11.1809 0.889833 6.71216 3.80208 3.80174C5.66108 1.94183 8.13517 0.916992 10.7688 0.916992C13.4023 0.916992 15.8773 1.94091 17.7363 3.80083C21.579 7.64349 21.579 13.8952 17.7363 17.7378C15.8526 19.6225 13.3162 20.6198 10.7467 20.6198Z" fill="#3E6FCF"/>
</g>
<path fill-rule="evenodd" clip-rule="evenodd" d="M14.3871 12.0662C13.8811 12.0662 13.4668 11.6565 13.4668 11.1496C13.4668 10.6427 13.8729 10.2329 14.3789 10.2329H14.3871C14.8931 10.2329 15.3038 10.6427 15.3038 11.1496C15.3038 11.6565 14.8931 12.0662 14.3871 12.0662Z" fill="#3E6FCF"/>
<path fill-rule="evenodd" clip-rule="evenodd" d="M10.7133 12.0662C10.2073 12.0662 9.79297 11.6565 9.79297 11.1496C9.79297 10.6427 10.1981 10.2329 10.7051 10.2329H10.7133C11.2193 10.2329 11.63 10.6427 11.63 11.1496C11.63 11.6565 11.2193 12.0662 10.7133 12.0662Z" fill="#3E6FCF"/>
<path fill-rule="evenodd" clip-rule="evenodd" d="M7.03752 12.0662C6.53152 12.0662 6.11719 11.6565 6.11719 11.1496C6.11719 10.6427 6.52327 10.2329 7.02927 10.2329H7.03752C7.54352 10.2329 7.95419 10.6427 7.95419 11.1496C7.95419 11.6565 7.54352 12.0662 7.03752 12.0662Z" fill="#3E6FCF"/>
</svg>
