<svg width="20" height="16" viewBox="0 0 20 16" fill="none" xmlns="http://www.w3.org/2000/svg">
<path d="M2.99976 0H16.9999C17.3939 0 17.784 0.0776026 18.1479 0.228377C18.5119 0.379151 18.8425 0.600144 19.1211 0.878738C19.3997 1.15733 19.6206 1.48807 19.7714 1.85207C19.9221 2.21607 19.9997 2.60621 19.9997 3.0002V12.9996C19.9997 13.3936 19.9221 13.7837 19.7714 14.1477C19.6206 14.5117 19.3997 14.8424 19.1211 15.121C18.8425 15.3996 18.5119 15.6206 18.1479 15.7714C17.784 15.9222 17.3939 15.9998 16.9999 15.9998H2.99976C2.20418 15.9998 1.44117 15.6837 0.87861 15.121C0.316045 14.5584 0 13.7953 0 12.9996V3.0002C0 2.2045 0.316045 1.44138 0.87861 0.878738C1.44117 0.316091 2.20418 0 2.99976 0ZM16.9999 1.99949H2.99976C2.86833 1.99936 2.73816 2.02515 2.61671 2.0754C2.49526 2.12564 2.38491 2.19935 2.29197 2.2923C2.19903 2.38525 2.12534 2.49562 2.0751 2.61709C2.02486 2.73856 1.99907 2.86875 1.99919 3.0002L9.99791 7.88038L17.9966 3.0002C17.9969 2.73539 17.8921 2.48129 17.7052 2.29368C17.5184 2.10606 17.2647 2.00026 16.9999 1.99949ZM1.99919 12.9996C1.99919 13.2647 2.10451 13.519 2.29197 13.7065C2.47943 13.894 2.73368 13.9993 2.99879 13.9993H16.9999C17.2651 13.9993 17.5193 13.894 17.7068 13.7065C17.8942 13.519 17.9995 13.2647 17.9995 12.9996V5.2795L10.5196 9.84586C10.3676 9.93361 10.1952 9.9798 10.0198 9.9798C9.8443 9.9798 9.67193 9.93361 9.51997 9.84586L2.00114 5.2795L1.99919 12.9996Z" fill="#959595"/>
</svg>
