<svg width="24" height="23" viewBox="0 0 24 23" fill="none" xmlns="http://www.w3.org/2000/svg">
<path fill-rule="evenodd" clip-rule="evenodd" d="M8.98243 5.95571C8.95043 5.95571 8.91843 5.95949 8.88643 5.96705C5.91653 6.6577 3.50061 9.69811 3.50061 12.7442C3.50061 16.5764 6.8005 19.6942 10.8574 19.6942C14.5142 19.6942 17.5701 17.233 18.1241 13.8411C18.1281 13.8128 18.1421 13.7306 18.0601 13.6389C17.9821 13.553 17.8581 13.5019 17.7281 13.5019C16.3172 13.5019 15.2402 13.5322 14.3992 13.5548C12.3633 13.6125 11.5213 13.6342 10.6894 13.0513C9.43541 12.1735 9.32941 10.6656 9.32941 6.23065C9.32941 6.15129 9.29342 6.08515 9.22142 6.03224C9.15442 5.98216 9.06942 5.95571 8.98243 5.95571ZM10.8574 21.1115C5.97353 21.1115 2.00066 17.3577 2.00066 12.7442C2.00066 9.08587 4.92856 5.42756 8.52744 4.59045C9.08942 4.46102 9.6934 4.58195 10.1474 4.91642C10.5804 5.23765 10.8294 5.71667 10.8294 6.23065C10.8294 10.3737 10.9774 11.4885 11.5823 11.9128C11.9793 12.1896 12.5233 12.1868 14.3562 12.1386C15.2082 12.1149 16.2992 12.0847 17.7281 12.0847C18.2981 12.0847 18.8351 12.3152 19.1991 12.7168C19.5371 13.09 19.6851 13.5775 19.6071 14.0575C18.9391 18.1438 15.2592 21.1115 10.8574 21.1115Z" fill="black"/>
<mask id="mask0_498_16584" style="mask-type:luminance" maskUnits="userSpaceOnUse" x="12" y="0" width="11" height="11">
<path fill-rule="evenodd" clip-rule="evenodd" d="M12.4748 0.945323H22.8934V10.6668H12.4748V0.945323Z" fill="white"/>
</mask>
<g mask="url(#mask0_498_16584)">
<path fill-rule="evenodd" clip-rule="evenodd" d="M14.0115 2.36382C13.9015 4.7438 14.0645 7.81822 14.1405 9.03608C14.1445 9.10883 14.2005 9.16174 14.2765 9.16552C15.3045 9.22127 18.8464 9.37622 21.3933 9.02191C21.3993 7.69539 20.4383 5.89647 18.9914 4.53027C17.5074 3.13006 15.7515 2.36382 14.0335 2.36382H14.0115ZM17.3154 10.6668C16.0055 10.6668 14.8525 10.6168 14.1895 10.5809C13.3556 10.5346 12.6916 9.90626 12.6436 9.11828C12.5656 7.86924 12.3966 4.69561 12.5166 2.24099C12.5496 1.52766 13.1596 0.959823 13.9055 0.947541C16.0425 0.888962 18.2474 1.82622 20.0513 3.52782C21.8093 5.18786 22.9252 7.36943 22.8932 9.08616C22.8812 9.75603 22.3663 10.3154 21.6703 10.4146C20.3123 10.6083 18.7224 10.6668 17.3154 10.6668Z" fill="black"/>
</g>
</svg>
