<svg width="81" height="19" viewBox="0 0 81 19" fill="none" xmlns="http://www.w3.org/2000/svg">
<path d="M1.01213 17.3219L5.71125 15.8279C6.1628 15.6844 6.45435 15.2468 6.41292 14.7748L6.01928 10.2891C5.93081 9.28087 7.21331 8.78127 7.83016 9.58366L11.5341 14.4018C11.8394 14.7988 12.3891 14.913 12.8272 14.6702L20.0924 10.6444C20.5249 10.4047 21.0673 10.5126 21.3751 10.8996L25.7688 16.4225C26.3112 17.1043 27.4042 16.828 27.5574 15.9703L30.0804 1.8477C30.2492 0.903168 31.5148 0.701539 31.9687 1.54689L38.286 13.3127C38.6619 14.0127 39.6609 14.0266 40.0561 13.3372L44.6989 5.23742C45.13 4.48517 46.2457 4.58783 46.5324 5.40614L50.5918 16.9941C50.867 17.7795 51.9196 17.9158 52.3857 17.2263L57.9056 9.06122C58.2287 8.58327 58.8853 8.47161 59.3482 8.81588L63.4216 11.8452L68.6787 16.5376C69.1293 16.9398 69.8296 16.8604 70.1788 16.3675L79.9875 2.51995" stroke="#F0D131" stroke-width="2" stroke-linecap="round"/>
</svg>
