<svg width="24" height="24" viewBox="0 0 24 24" fill="none" xmlns="http://www.w3.org/2000/svg">
<path fill-rule="evenodd" clip-rule="evenodd" d="M20.5 12C20.5 7.313 16.687 3.5 12 3.5C7.313 3.5 3.5 7.313 3.5 12C3.5 16.687 7.313 20.5 12 20.5C16.687 20.5 20.5 16.687 20.5 12ZM2 12C2 6.486 6.486 2 12 2C17.514 2 22 6.486 22 12C22 17.514 17.514 22 12 22C6.486 22 2 17.514 2 12Z" fill="black"/>
<path fill-rule="evenodd" clip-rule="evenodd" d="M9.20563 12C9.20563 11.801 9.28463 11.609 9.42663 11.469L12.9126 7.99799C13.2066 7.70499 13.6816 7.70699 13.9736 7.99999C14.2656 8.29399 14.2656 8.76899 13.9716 9.06099L11.0176 12L13.9716 14.94C14.2656 15.232 14.2656 15.707 13.9736 16.001C13.6816 16.294 13.2066 16.295 12.9126 16.003L9.42663 12.531C9.28463 12.391 9.20563 12.199 9.20563 12Z" fill="black"/>
</svg>
