<svg width="33" height="29" viewBox="0 0 33 29" fill="none" xmlns="http://www.w3.org/2000/svg">
<path fill-rule="evenodd" clip-rule="evenodd" d="M16.7843 7.07647C16.7843 9.92705 14.4987 12.2128 11.6461 12.2128C8.79446 12.2128 6.50792 9.92705 6.50792 7.07647C6.50792 4.22588 8.79446 1.94114 11.6461 1.94114C14.4987 1.94114 16.7843 4.22588 16.7843 7.07647ZM11.6461 21.3525C7.43613 21.3525 3.88155 20.6682 3.88155 18.0283C3.88155 15.3873 7.45846 14.7273 11.6461 14.7273C15.857 14.7273 19.4106 15.4116 19.4106 18.0516C19.4106 20.6925 15.8337 21.3525 11.6461 21.3525Z" fill="#F08A31"/>
<circle cx="24.2652" cy="19.4114" r="8.73511" fill="white"/>
<path d="M19.4136 19.6728H28.9326M19.4136 16.4998H28.9326M19.4136 22.8458H28.9326" stroke="#F08A31" stroke-width="2" stroke-linecap="round" stroke-linejoin="round"/>
</svg>
