<svg width="4" height="14" viewBox="0 0 4 14" fill="none" xmlns="http://www.w3.org/2000/svg">
<path d="M3.42257 1.71126C3.42257 0.766145 2.6564 -7.79412e-06 1.71129 -7.75281e-06C0.766173 -7.7115e-06 -1.16115e-07 0.766145 -7.48028e-08 1.71126C-3.34905e-08 2.65637 0.766174 3.42255 1.71129 3.42255C2.6564 3.42255 3.42257 2.65637 3.42257 1.71126Z" fill="white"/>
<path d="M3.42257 6.99999C3.42257 6.05487 2.6564 5.2887 1.71129 5.2887C0.766173 5.2887 -1.16115e-07 6.05487 -7.48028e-08 6.99999C-3.34905e-08 7.9451 0.766174 8.71127 1.71129 8.71127C2.6564 8.71127 3.42257 7.9451 3.42257 6.99999Z" fill="white"/>
<path d="M3.42257 12.2887C3.42257 11.3436 2.6564 10.5774 1.71129 10.5774C0.766173 10.5774 -1.16115e-07 11.3436 -7.48028e-08 12.2887C-3.34905e-08 13.2338 0.766174 14 1.71129 14C2.6564 14 3.42257 13.2338 3.42257 12.2887Z" fill="white"/>
</svg>
