<svg width="30" height="25" viewBox="0 0 30 25" fill="none" xmlns="http://www.w3.org/2000/svg">
<path d="M26.5886 3.46209H25.8988C24.9598 3.46329 24.0583 3.10153 23.3905 2.45552C23.0465 2.10168 22.7779 1.68441 22.6003 1.22801C22.4417 0.857168 22.1725 0.541695 21.828 0.322738C21.4835 0.103782 21.0796 -0.00850073 20.6689 0.00050193H8.59114C8.18081 -0.00682537 7.77764 0.106125 7.43344 0.324873C7.08925 0.543622 6.81978 0.858167 6.6597 1.22801C6.41213 1.86302 5.97514 2.41047 5.40552 2.79922C4.81495 3.19676 4.11558 3.41066 3.39883 3.41298C2.4974 3.41298 1.6329 3.76344 0.995493 4.38729C0.358088 5.01114 0 5.85726 0 6.73952V21.1873C0 22.0696 0.358088 22.9157 0.995493 23.5395C1.6329 24.1634 2.4974 24.5139 3.39883 24.5139H26.6012C27.5026 24.5139 28.3671 24.1634 29.0045 23.5395C29.6419 22.9157 30 22.0696 30 21.1873V6.78863C30 6.35075 29.9117 5.91716 29.7401 5.51276C29.5685 5.10836 29.317 4.74112 29.0001 4.43206C28.6831 4.123 28.307 3.87822 27.8932 3.71176C27.4793 3.54531 27.036 3.46047 26.5886 3.46209ZM16.8436 19.9721C15.2995 20.2713 13.6979 20.0765 12.2755 19.4165C10.8531 18.7564 9.68536 17.6661 8.94469 16.3067C8.20401 14.9472 7.92972 13.3906 8.16232 11.8668C8.39491 10.3431 9.12206 8.93288 10.2364 7.84465C11.3507 6.75641 12.793 6.04779 14.3504 5.82346C15.9078 5.59912 17.4976 5.87098 18.885 6.59885C20.2724 7.32673 21.3838 8.47204 22.0551 9.86561C22.7264 11.2592 22.922 12.8271 22.6129 14.3378C22.3265 15.7293 21.6259 17.0067 20.5993 18.0093C19.5727 19.0119 18.266 19.6948 16.8436 19.9721Z" fill="#959292"/>
<path d="M4.62768 8.87584C6.9966 8.87584 8.91698 6.99631 8.91698 4.67778C8.91698 2.35924 6.9966 0.479675 4.62768 0.479675C2.25877 0.479675 0.338379 2.35924 0.338379 4.67778C0.338379 6.99631 2.25877 8.87584 4.62768 8.87584Z" fill="#DCDCDC"/>
<path d="M15.4143 17.1229C17.7832 17.1229 19.7036 15.2434 19.7036 12.9249C19.7036 10.6063 17.7832 8.72678 15.4143 8.72678C13.0454 8.72678 11.125 10.6063 11.125 12.9249C11.125 15.2434 13.0454 17.1229 15.4143 17.1229Z" fill="#DCDCDC"/>
</svg>
