<svg width="15" height="15" viewBox="0 0 15 15" fill="none" xmlns="http://www.w3.org/2000/svg">
<path d="M7.49456 15C3.88533 15 0.737922 12.4827 0.0132351 9.01703C-0.0436031 8.73113 0.141122 8.45917 0.425313 8.39641C0.716609 8.34062 0.993694 8.52192 1.05764 8.80084C1.68286 11.7854 4.38977 13.954 7.49456 13.954C10.5922 13.954 13.2992 11.7993 13.9315 8.82874C13.9883 8.54284 14.2725 8.36155 14.5638 8.42431C14.8551 8.48009 15.0398 8.75901 14.9759 9.04491C14.237 12.4897 11.0967 15 7.49456 15Z" fill="#929292"/>
<path d="M14.4638 6.67336C14.2151 6.67336 13.9948 6.49904 13.9451 6.248C13.3412 3.23558 10.6272 1.04598 7.49397 1.04598C4.38208 1.04598 1.67517 3.21466 1.05705 6.19918C1.00022 6.48509 0.716025 6.65941 0.42473 6.60362C0.133434 6.54784 -0.0512912 6.26892 0.0126518 5.98302C0.737338 2.51734 3.88475 0 7.49397 0C11.1387 0 14.2861 2.54523 14.9895 6.04577C15.0463 6.33167 14.8545 6.60363 14.5703 6.65942C14.5348 6.67336 14.4993 6.67336 14.4638 6.67336Z" fill="#929292"/>
<path d="M7.49505 9.07266C6.61406 9.07266 5.89648 8.36837 5.89648 7.50369C5.89648 6.63901 6.61406 5.93472 7.49505 5.93472C8.37604 5.93472 9.09363 6.63901 9.09363 7.50369C9.09363 8.36837 8.37604 9.07266 7.49505 9.07266ZM7.49505 6.9807C7.20376 6.9807 6.96219 7.21779 6.96219 7.50369C6.96219 7.78959 7.20376 8.02668 7.49505 8.02668C7.78635 8.02668 8.02791 7.78959 8.02791 7.50369C8.02791 7.21779 7.78635 6.9807 7.49505 6.9807Z" fill="#929292"/>
</svg>
