<svg width="24" height="22" viewBox="0 0 24 22" fill="none" xmlns="http://www.w3.org/2000/svg">
<path fill-rule="evenodd" clip-rule="evenodd" d="M20.2044 9.07894H2.77819C2.37343 9.07894 2.04493 8.77094 2.04493 8.39144C2.04493 8.01194 2.37343 7.70394 2.77819 7.70394H20.2044C20.6092 7.70394 20.9377 8.01194 20.9377 8.39144C20.9377 8.77094 20.6092 9.07894 20.2044 9.07894Z" fill="black"/>
<path fill-rule="evenodd" clip-rule="evenodd" d="M15.8394 12.6588C15.4346 12.6588 15.1022 12.3508 15.1022 11.9713C15.1022 11.5918 15.4258 11.2838 15.8306 11.2838H15.8394C16.2441 11.2838 16.5726 11.5918 16.5726 11.9713C16.5726 12.3508 16.2441 12.6588 15.8394 12.6588Z" fill="black"/>
<path fill-rule="evenodd" clip-rule="evenodd" d="M11.5 12.6588C11.0953 12.6588 10.7629 12.3508 10.7629 11.9713C10.7629 11.5918 11.0865 11.2838 11.4912 11.2838H11.5C11.9048 11.2838 12.2333 11.5918 12.2333 11.9713C12.2333 12.3508 11.9048 12.6588 11.5 12.6588Z" fill="black"/>
<path fill-rule="evenodd" clip-rule="evenodd" d="M7.15187 12.6588C6.74711 12.6588 6.41372 12.3508 6.41372 11.9713C6.41372 11.5918 6.73831 11.2838 7.14307 11.2838H7.15187C7.55663 11.2838 7.88514 11.5918 7.88514 11.9713C7.88514 12.3508 7.55663 12.6588 7.15187 12.6588Z" fill="black"/>
<path fill-rule="evenodd" clip-rule="evenodd" d="M15.8394 16.2216C15.4346 16.2216 15.1022 15.9136 15.1022 15.5341C15.1022 15.1546 15.4258 14.8466 15.8306 14.8466H15.8394C16.2441 14.8466 16.5726 15.1546 16.5726 15.5341C16.5726 15.9136 16.2441 16.2216 15.8394 16.2216Z" fill="black"/>
<path fill-rule="evenodd" clip-rule="evenodd" d="M11.5 16.2216C11.0953 16.2216 10.7629 15.9136 10.7629 15.5341C10.7629 15.1546 11.0865 14.8466 11.4912 14.8466H11.5C11.9048 14.8466 12.2333 15.1546 12.2333 15.5341C12.2333 15.9136 11.9048 16.2216 11.5 16.2216Z" fill="black"/>
<path fill-rule="evenodd" clip-rule="evenodd" d="M7.15187 16.2216C6.74711 16.2216 6.41372 15.9136 6.41372 15.5341C6.41372 15.1546 6.73831 14.8466 7.14307 14.8466H7.15187C7.55663 14.8466 7.88514 15.1546 7.88514 15.5341C7.88514 15.9136 7.55663 16.2216 7.15187 16.2216Z" fill="black"/>
<path fill-rule="evenodd" clip-rule="evenodd" d="M15.4406 5.30842C15.0359 5.30842 14.7074 5.00042 14.7074 4.62092V1.60417C14.7074 1.22467 15.0359 0.916666 15.4406 0.916666C15.8454 0.916666 16.1739 1.22467 16.1739 1.60417V4.62092C16.1739 5.00042 15.8454 5.30842 15.4406 5.30842Z" fill="black"/>
<path fill-rule="evenodd" clip-rule="evenodd" d="M7.54183 5.30842C7.13706 5.30842 6.80856 5.00042 6.80856 4.62092V1.60417C6.80856 1.22467 7.13706 0.916666 7.54183 0.916666C7.94659 0.916666 8.27509 1.22467 8.27509 1.60417V4.62092C8.27509 5.00042 7.94659 5.30842 7.54183 5.30842Z" fill="black"/>
<mask id="mask0_498_16063" style="mask-type:luminance" maskUnits="userSpaceOnUse" x="1" y="2" width="21" height="19">
<path fill-rule="evenodd" clip-rule="evenodd" d="M1.95456 2.36417H21.0194V20.625H1.95456V2.36417Z" fill="white"/>
</mask>
<g mask="url(#mask0_498_16063)">
<path fill-rule="evenodd" clip-rule="evenodd" d="M7.35236 3.73917C4.81723 3.73917 3.42109 5.00692 3.42109 7.30867V15.6036C3.42109 17.9558 4.81723 19.2501 7.35236 19.2501H15.6216C18.1568 19.2501 19.5529 17.9796 19.5529 15.6733V7.30867C19.5568 6.17659 19.2322 5.29659 18.5879 4.69159C17.9251 4.06826 16.9034 3.73917 15.6304 3.73917H7.35236ZM15.6216 20.6251H7.35236C4.02335 20.6251 1.95456 18.701 1.95456 15.6036V7.30867C1.95456 4.25801 4.02335 2.36417 7.35236 2.36417H15.6304C17.3013 2.36417 18.6828 2.83351 19.6262 3.71992C20.5423 4.58251 21.0243 5.82276 21.0194 7.31051V15.6733C21.0194 18.7276 18.9506 20.6251 15.6216 20.6251Z" fill="black"/>
</g>
</svg>
