<svg width="14" height="12" viewBox="0 0 14 12" fill="none" xmlns="http://www.w3.org/2000/svg">
<path d="M3.65648 0L1.70825 2.5553H0C0 1.14353 0.868239 0 1.94118 0H3.65648Z" fill="white"/>
<path d="M7.16414 0L5.21592 2.5553H2.64648L4.59473 0H7.16414Z" fill="white"/>
<path d="M10.6661 0L8.71787 2.5553H6.14844L8.09669 0H10.6661Z" fill="white"/>
<path d="M13.3006 2.56149H9.6582L11.5923 0.0273438C12.0498 0.107574 12.4591 0.360221 12.7359 0.733229C13.12 1.26396 13.3185 1.90656 13.3006 2.56149Z" fill="white"/>
<path d="M9.72439e-06 2.81641V9.42348C-0.000921806 9.76209 0.0650812 10.0976 0.194231 10.4106C0.323382 10.7236 0.513142 11.008 0.752576 11.2474C0.99201 11.4868 1.2764 11.6766 1.58941 11.8058C1.90243 11.9349 2.23788 12.0009 2.57649 12H10.7295C11.0675 12 11.4022 11.9333 11.7144 11.8037C12.0266 11.6741 12.3101 11.4842 12.5488 11.2449C12.7875 11.0055 12.9766 10.7215 13.1053 10.4089C13.234 10.0964 13.2998 9.76149 13.2989 9.42348V2.81641H9.72439e-06ZM8.19532 7.80702L5.82356 9.42348C5.73054 9.48771 5.62175 9.52534 5.50892 9.53231C5.39609 9.53928 5.28349 9.51532 5.18327 9.46303C5.08305 9.41074 4.999 9.33212 4.94017 9.23559C4.88134 9.13906 4.84997 9.02831 4.84944 8.91526V5.66817C4.84997 5.55512 4.88134 5.44437 4.94017 5.34784C4.999 5.25131 5.08305 5.17269 5.18327 5.1204C5.28349 5.06811 5.39609 5.04415 5.50892 5.05112C5.62175 5.05809 5.73054 5.09572 5.82356 5.15995L8.19532 6.77641C8.27793 6.83486 8.3452 6.91243 8.3914 7.00247C8.4376 7.09251 8.46137 7.19235 8.46068 7.29355C8.45998 7.39474 8.43486 7.49427 8.38743 7.58367C8.34001 7.67307 8.27168 7.7497 8.18828 7.80702H8.19532Z" fill="white"/>
</svg>
