<svg width="16" height="17" viewBox="0 0 16 17" fill="none" xmlns="http://www.w3.org/2000/svg">
<path d="M15.4991 3.23449V10.0954C15.4991 10.2382 15.4685 10.3795 15.4095 10.5096L14.3572 12.8269C14.1947 13.1847 13.838 13.4144 13.4451 13.4144H11.3015C10.9877 13.4144 10.692 13.5614 10.5027 13.8116L9.10661 15.6563C8.75505 16.1208 8.0828 16.1885 7.64565 15.8034L6.26109 14.5838C6.15974 14.4945 6.04138 14.4267 5.91313 14.3843L2.02052 13.0985C1.64938 12.9759 1.38344 12.6486 1.33935 12.2603L0.506961 4.92809C0.484508 4.73031 0.521486 4.53032 0.613177 4.35364L2.09048 1.50706C2.25208 1.19567 2.5648 0.991508 2.91489 0.968833L10.1073 0.502988C10.2563 0.493333 10.4057 0.517141 10.5444 0.572669L14.8697 2.30449C15.2499 2.4567 15.4991 2.82498 15.4991 3.23449Z" fill="#F08A31" stroke="#F08A31"/>
</svg>
