<svg width="23" height="23" viewBox="0 0 23 23" fill="none" xmlns="http://www.w3.org/2000/svg">
<mask id="mask0_496_14096" style="mask-type:luminance" maskUnits="userSpaceOnUse" x="2" y="1" width="19" height="17">
<path fill-rule="evenodd" clip-rule="evenodd" d="M2.66309 3.0802L18.4269 1.11776L20.2674 15.9024L4.50363 17.8648L2.66309 3.0802Z" fill="white"/>
</mask>
<g mask="url(#mask0_496_14096)">
<path fill-rule="evenodd" clip-rule="evenodd" d="M10.7029 3.37749C7.72431 3.7483 5.93875 6.34017 6.19943 8.43412C6.42 10.2059 6.03021 11.0861 5.68554 11.8629C5.40923 12.4867 5.19103 12.9795 5.31506 13.9758C5.65748 15.5654 6.82366 16.2778 12.2251 15.6054C17.5968 14.9367 18.5813 13.9184 18.5204 12.2756C18.4007 11.335 18.0684 10.9108 17.6476 10.3738C17.1229 9.7052 16.5292 8.94742 16.3087 7.17562C16.048 5.08167 13.6815 3.00669 10.7029 3.37749ZM12.3843 16.8838C8.39922 17.3799 4.76265 17.547 4.04605 14.1891C3.86865 12.785 4.20842 12.0174 4.50851 11.3414C4.81181 10.6562 5.09751 10.0105 4.92107 8.59326C4.57806 5.83798 6.75554 2.57073 10.5437 2.09914C14.3319 1.62754 17.244 4.26119 17.587 7.01647C17.7635 8.43375 18.1988 8.9897 18.6608 9.57953C19.1175 10.1614 19.635 10.8222 19.8031 12.1721C19.935 15.6582 16.3693 16.3877 12.3843 16.8838Z" fill="black"/>
</g>
<path fill-rule="evenodd" clip-rule="evenodd" d="M12.7828 20.4274L12.7811 20.4276C11.8256 20.5457 10.869 20.2373 10.0878 19.5582C9.81911 19.326 9.79002 18.9185 10.0232 18.6506C10.2562 18.381 10.6628 18.352 10.9317 18.586C11.4344 19.0228 12.0347 19.2224 12.6228 19.1492L12.6236 19.149C13.2142 19.0755 13.7499 18.7345 14.1309 18.1868C14.3352 17.8957 14.7365 17.8241 15.0276 18.0276C15.3194 18.231 15.3911 18.6332 15.1876 18.9242C14.5942 19.7744 13.7407 20.3082 12.7828 20.4274Z" fill="black"/>
</svg>
