<svg width="13" height="23" viewBox="0 0 13 23" fill="none" xmlns="http://www.w3.org/2000/svg">
<path d="M5.74475 17.8239C5.18167 17.7705 4.57934 17.6775 3.93775 17.545C3.31152 17.4318 2.72113 17.3041 2.16656 17.1618C1.62905 17.0212 1.16833 16.8879 0.784391 16.7618L1.13953 14.1325C1.57806 14.2279 2.06693 14.337 2.60614 14.4599C3.16241 14.5844 3.70247 14.6983 4.22632 14.8018C4.76893 14.8891 5.21087 14.949 5.55213 14.9813C6.06402 15.0299 6.48631 15.0251 6.81902 14.9669C7.16879 14.9105 7.43835 14.7926 7.62771 14.6133C7.81876 14.4162 7.93301 14.1222 7.97046 13.7312C7.9994 13.4291 7.94474 13.1908 7.80649 13.0163C7.68531 12.8434 7.42506 12.6843 7.02576 12.5388C6.64523 12.3772 6.077 12.1978 5.32108 12.0006C4.37917 11.7678 3.60531 11.4882 2.99951 11.1618C2.41077 10.837 1.99605 10.4032 1.75534 9.86033C1.51633 9.2997 1.44023 8.56624 1.52704 7.65993C1.63257 6.55814 1.94547 5.7181 2.46574 5.13981C2.98602 4.56152 3.64199 4.18438 4.43365 4.00839C5.22702 3.81464 6.07587 3.76063 6.98021 3.84638C7.57742 3.90301 8.18828 3.99679 8.8128 4.12774C9.43903 4.24091 10.0294 4.36862 10.584 4.51086C11.1386 4.65311 11.5993 4.78645 11.9662 4.9109L11.6059 7.59346C11.1862 7.48193 10.6973 7.37281 10.1393 7.26611C9.58304 7.14164 9.02506 7.03493 8.46539 6.946C7.92278 6.85869 7.46378 6.79724 7.08839 6.76164C6.69594 6.72443 6.34189 6.73569 6.02625 6.79542C5.71231 6.83738 5.46151 6.93913 5.27386 7.10066C5.10327 7.2638 5.00096 7.52308 4.96692 7.8785C4.94309 8.12729 4.99176 8.33812 5.11295 8.511C5.23413 8.68388 5.47646 8.85032 5.83994 9.01031C6.22217 9.15414 6.77504 9.31416 7.49854 9.49035C8.54112 9.7506 9.36447 10.0528 9.96856 10.397C10.5727 10.7412 10.9857 11.1928 11.2076 11.7518C11.4466 12.3124 11.5227 13.0459 11.4359 13.9522C11.281 15.5694 10.7114 16.663 9.72703 17.2331C8.76141 17.7871 7.43399 17.9841 5.74475 17.8239Z" fill="black"/>
<path d="M12.2217 0.927395L10.645 7.5025" stroke="black" stroke-width="1.5"/>
<path d="M9.92117 16.0124L8.96467 21.9629" stroke="black" stroke-width="1.5"/>
<path d="M8.55841 0.556677L6.73128 6.66968" stroke="black" stroke-width="1.5"/>
<line y1="-0.75" x2="8.01258" y2="-0.75" transform="matrix(-0.310971 0.956779 -0.984514 -0.207026 4.01731 0)" stroke="black" stroke-width="1.5"/>
<path d="M6.23925 15.9765L4.99035 21.5377" stroke="black" stroke-width="1.5"/>
<line x1="2.39386" y1="16.046" x2="0.727501" y2="22.1134" stroke="black" stroke-width="1.5"/>
</svg>
