<svg width="22" height="22" viewBox="0 0 22 22" fill="none" xmlns="http://www.w3.org/2000/svg">
<path fill-rule="evenodd" clip-rule="evenodd" d="M5.72884 3.2085C3.20801 3.2085 3.20801 3.39916 3.20801 5.72933V5.75225C3.20801 6.767 3.20801 7.50033 3.45642 7.81016C3.69934 8.11083 4.42076 8.25016 5.72884 8.25016C7.03692 8.25016 7.75834 8.10991 8.00126 7.80925C8.24967 7.50033 8.24967 6.767 8.24967 5.75133C8.24967 3.39916 8.24967 3.2085 5.72884 3.2085ZM5.72884 9.62516C4.18334 9.62516 3.02376 9.46291 2.38667 8.67183C1.83301 7.98525 1.83301 7.04841 1.83301 5.75225L2.52051 5.72933H1.83301C1.83301 3.0985 1.99892 1.8335 5.72884 1.8335C9.45876 1.8335 9.62467 3.0985 9.62467 5.72933C9.62467 7.0475 9.62467 7.98525 9.07101 8.67183C8.43392 9.46291 7.27434 9.62516 5.72884 9.62516Z" fill="#8C8C8C"/>
<path fill-rule="evenodd" clip-rule="evenodd" d="M15.8118 3.2085C13.291 3.2085 13.291 3.39916 13.291 5.72933V5.75225C13.291 6.767 13.291 7.50033 13.5394 7.81016C13.7823 8.11083 14.5038 8.25016 15.8118 8.25016C17.1199 8.25016 17.8413 8.10991 18.0843 7.80925C18.3327 7.50033 18.3327 6.767 18.3327 5.75133C18.3327 3.39916 18.3327 3.2085 15.8118 3.2085ZM15.8118 9.62516C14.2663 9.62516 13.1068 9.46291 12.4697 8.67183C11.916 7.98525 11.916 7.04841 11.916 5.75225L12.6035 5.72933H11.916C11.916 3.0985 12.0819 1.8335 15.8118 1.8335C19.5418 1.8335 19.7077 3.0985 19.7077 5.72933C19.7077 7.0475 19.7077 7.98525 19.154 8.67183C18.5169 9.46291 17.3573 9.62516 15.8118 9.62516Z" fill="#8C8C8C"/>
<path fill-rule="evenodd" clip-rule="evenodd" d="M5.72884 13.292C3.20801 13.292 3.20801 13.4827 3.20801 15.8128V15.8357C3.20801 16.8505 3.20801 17.5838 3.45642 17.8937C3.69934 18.1943 4.42076 18.3337 5.72884 18.3337C7.03692 18.3337 7.75834 18.1934 8.00126 17.8927C8.24967 17.5838 8.24967 16.8505 8.24967 15.8348C8.24967 13.4827 8.24967 13.292 5.72884 13.292ZM5.72884 19.7087C4.18334 19.7087 3.02376 19.5464 2.38667 18.7553C1.83301 18.0687 1.83301 17.1319 1.83301 15.8357L2.52051 15.8128H1.83301C1.83301 13.182 1.99892 11.917 5.72884 11.917C9.45876 11.917 9.62467 13.182 9.62467 15.8128C9.62467 17.131 9.62467 18.0687 9.07101 18.7553C8.43392 19.5464 7.27434 19.7087 5.72884 19.7087Z" fill="#8C8C8C"/>
<path fill-rule="evenodd" clip-rule="evenodd" d="M15.8118 13.292C13.291 13.292 13.291 13.4827 13.291 15.8128V15.8357C13.291 16.8505 13.291 17.5838 13.5394 17.8937C13.7823 18.1943 14.5038 18.3337 15.8118 18.3337C17.1199 18.3337 17.8413 18.1934 18.0843 17.8927C18.3327 17.5838 18.3327 16.8505 18.3327 15.8348C18.3327 13.4827 18.3327 13.292 15.8118 13.292ZM15.8118 19.7087C14.2663 19.7087 13.1068 19.5464 12.4697 18.7553C11.916 18.0687 11.916 17.1319 11.916 15.8357L12.6035 15.8128H11.916C11.916 13.182 12.0819 11.917 15.8118 11.917C19.5418 11.917 19.7077 13.182 19.7077 15.8128C19.7077 17.131 19.7077 18.0687 19.154 18.7553C18.5169 19.5464 17.3573 19.7087 15.8118 19.7087Z" fill="#8C8C8C"/>
</svg>
