<svg width="21" height="21" viewBox="0 0 21 21" fill="none" xmlns="http://www.w3.org/2000/svg">
<path fill-rule="evenodd" clip-rule="evenodd" d="M10.5016 0C4.58701 0 0 4.33301 0 10.1868C0 13.2485 1.25517 15.8933 3.29724 17.7199C3.46701 17.8736 3.5708 18.086 3.57885 18.3177L3.63678 20.1869C3.64094 20.3243 3.67883 20.4586 3.74711 20.578C3.8154 20.6973 3.91198 20.798 4.02835 20.8712C4.14473 20.9445 4.27732 20.9879 4.41445 20.9978C4.55158 21.0077 4.68903 20.9837 4.81471 20.928L6.89943 20.0091C7.07724 19.9318 7.27437 19.9166 7.45942 19.9664C8.4169 20.2296 9.43632 20.372 10.4984 20.372C16.413 20.372 21 16.0398 21 10.186C21 4.33301 16.4138 0 10.5016 0ZM16.0155 7.95793L13.3861 12.1284C13.2871 12.2854 13.1567 12.4202 13.0031 12.5243C12.8495 12.6284 12.676 12.6995 12.4935 12.7332C12.3111 12.7669 12.1236 12.7625 11.9429 12.7202C11.7622 12.6778 11.5923 12.5985 11.4438 12.4873L9.35184 10.9198C9.25867 10.8502 9.14549 10.8126 9.02919 10.8126C8.9129 10.8126 8.79972 10.8502 8.70655 10.9198L5.88402 13.0626C5.50988 13.3482 5.01506 12.8968 5.26609 12.4993L7.89552 8.32887C7.99447 8.17189 8.12486 8.0371 8.27848 7.93301C8.4321 7.82892 8.60561 7.75777 8.78808 7.72406C8.97055 7.69034 9.15803 7.69479 9.3387 7.73712C9.51936 7.77945 9.68931 7.85874 9.83782 7.97L11.9298 9.53745C12.0229 9.60706 12.1361 9.64467 12.2524 9.64467C12.3687 9.64467 12.4819 9.60706 12.5751 9.53745L15.3976 7.39468C15.7757 7.10501 16.2706 7.55641 16.0155 7.95793Z" fill="white"/>
</svg>
